<?xml version="1.0" encoding="utf-8"?>
<!-- Generator: Adobe Illustrator 25.2.0, SVG Export Plug-In . SVG Version: 6.00 Build 0)  -->
<svg version="1.1" id="Layer_1" xmlns="http://www.w3.org/2000/svg" xmlns:xlink="http://www.w3.org/1999/xlink" x="0px" y="0px"
	 viewBox="0 0 397.8 457.5" style="enable-background:new 0 0 397.8 457.5;" xml:space="preserve">
<style type="text/css">
	.st0{fill:#DEB317;}
</style>
<g id="Group_312" transform="translate(-844.395 -513.085)">
	<path id="Path_3700" class="st0" d="M1241.8,677.2c-0.3-44.2,5.4-31.5-30-55.5c-20.3-13.7-39.8-28.7-61.9-39.6l-0.3,0.2
		c-1-0.7-2-1.4-3-2.2c-5.4-4.3-10.5-9.1-16.3-13c-24.3-16.4-49.1-32-73-48.9c-10.5-7.4-18.9-6.7-28.6,0.5
		c-24.2,18.1-49.7,34.4-74.9,51c-32.2,21.2-63.9,43.1-96.8,63.3c-8.3,4.5-13.1,13.6-12.3,23c0.3,56.3,0.2,112.6-0.1,168.8
		c-0.8,7.8,2.2,15.5,8,20.7c60.5,40.7,121,81.4,181.5,122.1c7.5,5,14.6,2.7,21.7-2c58.4-39.1,116.9-78.1,175.6-116.8
		c7.4-4.5,11.6-12.9,10.8-21.6C1241.9,777.3,1242.2,727.3,1241.8,677.2z M982.6,742.8c0.2,0.2,0.4,0.4,0.6,0.7
		c-0.2,0.2-0.5,0.4-0.8,0.5c-0.3-0.1-0.6-0.2-0.8-0.3C981.9,743.4,982.3,743.1,982.6,742.8z M1027.4,920.9c-0.3,1.5-0.7,2.9-1.2,4.3
		c-23.8-15.8-47.2-31.2-70.4-46.9c-27-18.3-55-35.2-81.1-54.9c-0.3-44.7,2.1-89.4-1.4-134c-0.1-3,1.1-5.9,3.3-7.9
		c2.9-1.9,5.6,1.5,8.1,3.2c26.8,17.9,53.6,36,80.4,53.9c2.7,1.6,5.4,3,8.2,4.3c16,11,31.9,22.1,47.9,33c3.9,1.9,6.4,5.8,6.4,10.1
		C1027.4,831,1027.5,876,1027.4,920.9L1027.4,920.9z M1211.3,815c0,5,0.3,9.6-5.1,13.2c-48.4,32-96.6,64.2-147.3,98
		c0-41.3,0.2-80.3-0.1-119.2c-0.1-7.5,2.3-15.3-2.1-22.7c-1.5-2.6,1.3-4.3,3.6-5.8c47.1-31,94.1-62,141.1-93.1
		c2.6-1.7,6.1-4.6,8-3.8c4,1.5,1.8,6.2,1.9,9.4C1211.5,732.2,1211.3,773.6,1211.3,815z"/>
	<path id="Path_3717" class="st0" d="M1098.8,800.5c-0.4-0.3-0.8-0.6-1.2-0.8C1098.3,799.5,1098.8,799.7,1098.8,800.5z"/>
	<path id="Path_3721" class="st0" d="M1039.8,848.7c-0.1,0.1-0.2,0.1-0.3,0.2c-0.1,0-0.2-0.1-0.3-0.1c0.1-0.1,0.2-0.2,0.4-0.4
		C1039.7,848.6,1039.7,848.7,1039.8,848.7z"/>
</g>
</svg>
