<svg xmlns="http://www.w3.org/2000/svg" xmlns:xlink="http://www.w3.org/1999/xlink" width="572" height="380.926"
  viewBox="0 0 572 380.926">
  <defs>
    <radialGradient id="radial-gradient" cx="0.5" cy="0.5" r="1.082"
      gradientTransform="translate(0.012 0.012) scale(0.462 0.462)" gradientUnits="objectBoundingBox">
      <stop offset="0" />
      <stop offset="0.041" stop-color="#242424" />
      <stop offset="0.099" stop-color="#515151" />
      <stop offset="0.164" stop-color="#7b7b7b" />
      <stop offset="0.232" stop-color="#9e9e9e" />
      <stop offset="0.306" stop-color="#bcbcbc" />
      <stop offset="0.387" stop-color="#d5d5d5" />
      <stop offset="0.479" stop-color="#e7e7e7" />
      <stop offset="0.586" stop-color="#f5f5f5" />
      <stop offset="0.723" stop-color="#fcfcfc" />
      <stop offset="1" stop-color="#fff" />
    </radialGradient>
    <radialGradient id="radial-gradient-2" cx="0.5" cy="0.5" r="1.082"
      gradientTransform="translate(0.208 0.006) scale(0.462 0.462)" xlink:href="#radial-gradient" />
    <radialGradient id="radial-gradient-3" cx="0.5" cy="0.5" r="1.082"
      gradientTransform="translate(0.404 0.012) scale(0.462 0.462)" xlink:href="#radial-gradient" />
    <radialGradient id="radial-gradient-4" cx="0.5" cy="0.5" r="1.082"
      gradientTransform="translate(0.214 0.042) scale(0.462 0.462)" xlink:href="#radial-gradient" />
    <linearGradient id="linear-gradient" y1="0.5" x2="1" y2="0.5" gradientUnits="objectBoundingBox">
      <stop offset="0" stop-color="#605518" />
      <stop offset="0.26" stop-color="#655917" />
      <stop offset="0.583" stop-color="#746617" />
      <stop offset="0.94" stop-color="#8d7c16" />
      <stop offset="1" stop-color="#938116" />
    </linearGradient>
    <linearGradient id="linear-gradient-2" y1="0.5" x2="1" y2="0.5" gradientUnits="objectBoundingBox">
      <stop offset="0" stop-color="#9b8712" />
      <stop offset="0.368" stop-color="#a58f0d" />
      <stop offset="1" stop-color="#c1a500" />
    </linearGradient>
    <linearGradient id="linear-gradient-3" y1="0.5" x2="1" y2="0.5" gradientUnits="objectBoundingBox">
      <stop offset="0" stop-color="#897609" />
      <stop offset="1" stop-color="#c1a500" />
    </linearGradient>
    <linearGradient id="linear-gradient-4" x1="0.454" y1="0.619" x2="0.535" y2="0.403"
      gradientUnits="objectBoundingBox">
      <stop offset="0" stop-color="#998929" />
      <stop offset="0.685" stop-color="#f4d103" />
      <stop offset="0.776" stop-color="#efcd04" />
      <stop offset="0.872" stop-color="#e3c308" />
      <stop offset="0.969" stop-color="#ceb20f" />
      <stop offset="1" stop-color="#c6ac12" />
    </linearGradient>
    <linearGradient id="linear-gradient-5" x1="0.467" y1="0.352" x2="0.558" y2="0.588"
      gradientUnits="objectBoundingBox">
      <stop offset="0" stop-color="#998929" />
      <stop offset="0.28" stop-color="#c4ab16" />
      <stop offset="0.543" stop-color="#e6c608" />
      <stop offset="0.685" stop-color="#f4d103" />
      <stop offset="0.776" stop-color="#efcd04" />
      <stop offset="0.872" stop-color="#e3c308" />
      <stop offset="0.969" stop-color="#ceb20f" />
      <stop offset="1" stop-color="#c6ac12" />
    </linearGradient>
    <linearGradient id="linear-gradient-9" x1="0.46" y1="0.366" x2="0.551" y2="0.595" gradientUnits="objectBoundingBox">
      <stop offset="0" stop-color="#998929" />
      <stop offset="0.097" stop-color="#af9b1f" />
      <stop offset="0.25" stop-color="#cdb213" />
      <stop offset="0.401" stop-color="#e2c30a" />
      <stop offset="0.548" stop-color="#efcd04" />
      <stop offset="0.685" stop-color="#f4d103" />
      <stop offset="0.776" stop-color="#efcd04" />
      <stop offset="0.872" stop-color="#e3c308" />
      <stop offset="0.969" stop-color="#ceb20f" />
      <stop offset="1" stop-color="#c6ac12" />
    </linearGradient>
    <linearGradient id="linear-gradient-13" x1="0.464" y1="0.582" x2="0.538" y2="0.416"
      gradientUnits="objectBoundingBox">
      <stop offset="0" stop-color="#998929" />
      <stop offset="0.671" stop-color="#f4d103" />
      <stop offset="0.844" stop-color="#f2cf03" />
      <stop offset="0.906" stop-color="#ebca05" />
      <stop offset="0.951" stop-color="#dfc009" />
      <stop offset="0.986" stop-color="#ceb30f" />
      <stop offset="1" stop-color="#c6ac12" />
    </linearGradient>
  </defs>
  <g id="Layer_3" data-name="Layer 3" transform="translate(-58.461 -172.551)">
    <g id="Group_894" data-name="Group 894" transform="translate(58.461 172.551)">
      <ellipse id="Ellipse_9" data-name="Ellipse 9" cx="122.282" cy="56.483" rx="122.282" ry="56.483"
        transform="translate(327.436 173.437)" opacity="0.6" fill="url(#radial-gradient)"
        style="mix-blend-mode: multiply;isolation: isolate" />
      <ellipse id="Ellipse_10" data-name="Ellipse 10" cx="122.282" cy="56.483" rx="122.282" ry="56.483"
        transform="translate(163.718 267.959)" opacity="0.6" fill="url(#radial-gradient-2)"
        style="mix-blend-mode: multiply;isolation: isolate" />
      <ellipse id="Ellipse_11" data-name="Ellipse 11" cx="122.282" cy="56.483" rx="122.282" ry="56.483"
        transform="translate(0 175.305)" opacity="0.6" fill="url(#radial-gradient-3)"
        style="mix-blend-mode: multiply;isolation: isolate" />
      <ellipse id="Ellipse_12" data-name="Ellipse 12" cx="134.957" cy="62.338" rx="134.957" ry="62.338"
        transform="translate(151.043 73.06)" opacity="0.6" fill="url(#radial-gradient-4)"
        style="mix-blend-mode: multiply;isolation: isolate" />
      <g id="Group_893" data-name="Group 893" transform="translate(64.759)">
        <g id="Group_876" data-name="Group 876" transform="translate(163.718)">
          <path id="Path_4985" data-name="Path 4985" d="M331.307,215.261v66.421l57.523,33.211V248.472Z"
            transform="translate(-331.307 -179.496)" fill="url(#linear-gradient)" />
          <path id="Path_4986" data-name="Path 4986" d="M400,314.4l61.947-35.765V212.211L400,247.976Z"
            transform="translate(-342.477 -179)" fill="url(#linear-gradient-2)" />
          <path id="Path_4987" data-name="Path 4987" d="M331.307,208.316l61.947-35.765,57.522,33.211L388.83,241.527Z"
            transform="translate(-331.307 -172.551)" fill="url(#linear-gradient-3)" />
        </g>
        <path id="Path_4988" data-name="Path 4988"
          d="M578.361,343.917c-.008-.177-.02-.348-.039-.515-.016-.145-.037-.286-.061-.422,0-.023-.01-.045-.015-.068l-.008-.039c-.017-.086-.034-.173-.054-.256-.027-.107-.056-.212-.088-.313s-.064-.193-.1-.286-.071-.176-.111-.26h0c-.038-.082-.078-.162-.12-.239s-.085-.151-.131-.223-.092-.141-.141-.207-.1-.132-.153-.193l-.022-.023-.01-.012c-.044-.049-.088-.1-.133-.144s-.12-.116-.182-.169-.129-.106-.2-.155-.142-.1-.215-.142l-.024-.014-133.206-78.19c-.294-.172-3.163-1.9-5.708-.547a13.3,13.3,0,0,0-6.335,10.793,6.261,6.261,0,0,0,.554,2.529A4.924,4.924,0,0,0,433.872,277L567.6,355.5a3.057,3.057,0,0,0,.439.21c.051.02.107.032.16.049a3.045,3.045,0,0,0,.316.093c.065.013.135.018.2.029.1.015.2.033.308.039.075.005.153,0,.23,0,.1,0,.2,0,.309,0,.083-.007.167-.021.252-.032.1-.014.208-.026.317-.048.088-.018.178-.044.267-.066.108-.028.215-.054.325-.09.093-.029.187-.067.281-.1.111-.041.221-.082.333-.131.1-.042.193-.091.291-.139.08-.039.157-.071.237-.114s.137-.075.207-.114c.131-.075.261-.154.39-.237q.23-.148.455-.311c.131-.1.26-.194.388-.3l.027-.023.017-.013c.1-.084.205-.168.307-.255s.212-.188.317-.286.2-.188.295-.286c.083-.082.163-.166.245-.251l.014-.014.023-.025q.136-.143.267-.291t.258-.3q.126-.151.249-.306c.081-.1.162-.209.242-.315l.02-.028.01-.014c.069-.093.137-.186.2-.281.078-.111.155-.222.229-.335s.151-.229.224-.344.146-.237.218-.357l.042-.074.02-.034c.051-.089.1-.178.153-.268q.108-.195.21-.392c.073-.142.144-.285.213-.428.058-.121.112-.245.167-.368l.023-.052.034-.074q.134-.308.251-.618c.074-.193.127-.389.192-.583.043-.13.09-.259.127-.389.019-.064.046-.129.064-.193.1-.373.188-.745.254-1.115,0-.023,0-.046.008-.069.021-.123.023-.241.04-.363.039-.294.085-.589.1-.876.005-.118.008-.235.008-.351S578.366,344.031,578.361,343.917Z"
          transform="translate(-183.85 -186.931)" fill="url(#linear-gradient-4)" />
        <path id="Path_4989" data-name="Path 4989"
          d="M354.273,271.419c0-.1,0-.2,0-.294,0-.042,0-.084,0-.126,0-.027,0-.054,0-.081q-.006-.259-.026-.518c0-.041-.009-.082-.013-.123s-.011-.111-.018-.166c-.009-.085-.015-.168-.027-.253-.017-.121-.04-.241-.061-.361-.009-.054-.017-.107-.027-.16,0-.022-.007-.044-.011-.066-.044-.217-.1-.433-.154-.647,0-.011-.007-.021-.009-.031-.026-.092-.059-.183-.087-.274-.047-.15-.089-.3-.143-.449-.005-.015-.013-.03-.019-.045a9.887,9.887,0,0,0-.394-.921c-.009-.018-.015-.038-.024-.057s-.039-.059-.054-.09a9.765,9.765,0,0,0-.722-1.2l-.021-.033a9.719,9.719,0,0,0-.914-1.089c-.029-.03-.051-.065-.08-.095s-.044-.038-.064-.059a9.619,9.619,0,0,0-.738-.665h0q-.305-.246-.635-.468l-.081-.054c-.158-.1-.319-.2-.481-.3s-.342-.188-.515-.274c-.031-.015-.062-.027-.093-.042l-.084-.039c-.1-.048-.206-.1-.31-.14q-.235-.1-.471-.18c-.106-.038-.213-.072-.319-.1l-.142-.042q-.23-.065-.46-.117c-.041-.009-.083-.015-.124-.024l-.129-.024c-.07-.013-.139-.029-.208-.041-.157-.025-.313-.046-.469-.062l-.019,0-.049,0c-.139-.013-.277-.024-.414-.029-.078,0-.156,0-.234,0-.051,0-.1,0-.154,0s-.076,0-.114,0q-.266.006-.529.032l-.034,0c-.044,0-.087.013-.131.018-.136.016-.274.031-.409.054-.044.008-.087.021-.131.029-.095.018-.188.04-.281.062s-.161.032-.24.053c-.049.013-.1.034-.146.049-.144.042-.286.09-.426.141-.068.024-.139.042-.206.068-.033.013-.062.033-.094.045a7.073,7.073,0,0,0-.827.4l-87.061,49.721a7.068,7.068,0,0,1,.826-.4c.1-.041.2-.077.3-.114.141-.05.281-.1.425-.14q.191-.057.385-.1c.094-.022.188-.044.282-.063q.269-.051.541-.084c.043-.005.085-.013.127-.017.224-.023.451-.034.679-.036l.155,0c.214,0,.43.011.646.032l.049,0c.232.023.464.059.7.1l.131.025c.242.05.484.11.724.183a8.607,8.607,0,0,1,1.1.425l.083.038a9.164,9.164,0,0,1,1.089.612q.373.246.716.523a9.475,9.475,0,0,1,.738.666c.05.049.1.1.144.152a9.741,9.741,0,0,1,.915,1.09c.008.01.013.021.02.031a9.789,9.789,0,0,1,.723,1.206c.025.049.054.1.078.147a9.751,9.751,0,0,1,.394.921c.06.163.111.329.162.495.028.091.062.181.087.273q.1.369.174.745c.011.053.018.106.028.159.035.2.065.408.087.613.007.056.013.112.018.168.022.24.035.481.038.721,0,.042,0,.084,0,.126,0,.237-.008.474-.028.71,0,.018,0,.034,0,.051-.022.245-.056.489-.1.731-.008.044-.014.088-.023.132q-.068.352-.165.7c-.013.047-.028.093-.042.14-.065.217-.139.431-.223.643-.011.026-.019.054-.03.08a8.07,8.07,0,0,1-.347.744,7.737,7.737,0,0,1-.457.731c-.061.089-.12.179-.183.264-.075.1-.161.19-.24.286a7.281,7.281,0,0,1-.673.707c-.087.08-.173.162-.265.237a7.17,7.17,0,0,1-1,.709l87.061-49.721a7.063,7.063,0,0,0,1-.709c.091-.075.177-.157.265-.236a7.3,7.3,0,0,0,.673-.708c.049-.059.107-.1.154-.162.03-.039.056-.083.085-.122.064-.085.123-.177.184-.265.072-.1.149-.2.217-.311.084-.137.163-.276.24-.42.03-.056.059-.113.088-.17q.134-.269.249-.544l.011-.029c.011-.026.019-.053.029-.079.053-.134.1-.268.15-.4.028-.08.049-.162.074-.243.013-.045.028-.09.041-.137s.023-.07.032-.106q.064-.239.114-.48c.008-.038.013-.075.019-.112s.016-.089.023-.133c.013-.078.029-.155.041-.233.023-.158.042-.318.056-.478l0-.019c0-.018,0-.034,0-.051C354.258,271.7,354.268,271.558,354.273,271.419Z"
          transform="translate(-155.123 -187.042)" fill="url(#linear-gradient-5)" />
        <g id="Group_877" data-name="Group 877" transform="translate(95.742 124.343)">
          <path id="Path_4990" data-name="Path 4990"
            d="M259.883,321.392a8.786,8.786,0,0,1,2.273,1.074c3.983,2.624,5.485,7.984,3.362,11.965a7.333,7.333,0,0,1-8.784,3.536,8.809,8.809,0,0,1-2.268-1.074c-3.993-2.628-5.5-7.987-3.373-11.967A7.334,7.334,0,0,1,259.883,321.392Z"
            transform="translate(-250.13 -321.04)" fill="#353535" />
        </g>
        <path id="Path_4991" data-name="Path 4991" d="M526.818,328.14v66.421l57.523,33.211V361.35Z"
          transform="translate(-199.382 -197.852)" fill="url(#linear-gradient)" />
        <path id="Path_4992" data-name="Path 4992" d="M595.511,427.275l61.947-35.765V325.089l-61.947,35.765Z"
          transform="translate(-210.552 -197.356)" fill="url(#linear-gradient-2)" />
        <path id="Path_4993" data-name="Path 4993" d="M526.818,321.194l61.947-35.765,57.523,33.211L584.34,354.4Z"
          transform="translate(-199.382 -190.906)" fill="url(#linear-gradient-3)" />
        <g id="Group_878" data-name="Group 878" transform="translate(264.164 223.155)">
          <path id="Path_4994" data-name="Path 4994"
            d="M461.009,439.4a9.309,9.309,0,0,1,5.212,4.156c2.517,4.19,1.522,9.424-2.227,11.7a7.491,7.491,0,0,1-6.135.7,9.308,9.308,0,0,1-5.211-4.156c-2.517-4.19-1.522-9.425,2.227-11.7A7.49,7.49,0,0,1,461.009,439.4Z"
            transform="translate(-451.258 -439.04)" fill="#353535" />
        </g>
        <path id="Path_4995" data-name="Path 4995"
          d="M554.544,386.709c0-.047,0-.094-.005-.141-.011-.172-.026-.344-.047-.518,0-.022-.007-.044-.01-.066-.005-.042-.013-.084-.018-.126-.016-.116-.031-.231-.052-.348-.017-.093-.039-.185-.059-.278-.013-.062-.025-.123-.039-.184-.008-.038-.014-.074-.023-.112-.052-.211-.111-.422-.178-.631l0-.008c-.012-.037-.028-.073-.04-.111-.07-.208-.142-.415-.227-.621-.005-.013-.013-.026-.018-.039a9.92,9.92,0,0,0-.43-.9c-.007-.013-.012-.026-.018-.039q-.192-.352-.417-.694a10.011,10.011,0,0,0-.645-.862c-.069-.082-.139-.16-.209-.239q-.256-.29-.529-.554c-.045-.044-.086-.1-.133-.14-.032-.029-.067-.054-.1-.083q-.289-.26-.594-.492c-.045-.034-.087-.076-.132-.11l-.039-.026c-.079-.057-.16-.107-.24-.162-.121-.082-.24-.168-.363-.245-.026-.016-.054-.029-.08-.045-.064-.038-.128-.073-.193-.109-.1-.055-.193-.114-.292-.166-.067-.035-.136-.065-.2-.1l-.181-.087c-.046-.021-.091-.045-.137-.065-.164-.073-.331-.14-.5-.2l-.024-.008-.059-.02c-.132-.048-.265-.094-.4-.135-.109-.033-.218-.064-.327-.092l-.147-.037q-.234-.057-.47-.1c-.031-.006-.063-.009-.094-.014l-.13-.02c-.082-.013-.164-.027-.246-.037-.131-.016-.264-.027-.4-.036l-.056-.006-.023,0q-.243-.015-.485-.015c-.054,0-.109,0-.163.006l-.163.005c-.058,0-.115,0-.172.006-.158.01-.316.028-.473.048l-.04,0h-.012c-.189.026-.377.059-.564.1-.031.007-.061.017-.091.023-.084.019-.165.044-.248.065s-.2.047-.291.077c-.043.013-.084.033-.126.048-.14.046-.276.1-.414.156-.075.03-.153.053-.228.085-.029.013-.056.032-.085.046a7.117,7.117,0,0,0-.815.433l0,0L456.7,432.04a7.108,7.108,0,0,1,.818-.435c.1-.047.209-.089.314-.132.137-.054.273-.109.412-.155s.278-.087.418-.125c.083-.022.164-.046.248-.065.22-.05.441-.094.666-.124l.044-.005c.214-.028.428-.044.642-.053l.162-.005c.223-.005.447,0,.671.011l.058.006c.214.015.426.04.639.073l.131.02c.238.04.475.089.71.15s.485.141.724.226l.063.021c.222.082.441.175.658.276l.182.087c.168.082.333.171.5.264.064.037.128.071.192.109.15.09.3.191.443.291.08.054.161.1.239.161.058.042.113.091.171.136.2.155.4.318.595.492.079.071.154.147.231.221.183.176.359.362.531.555.069.079.14.157.208.238a9.84,9.84,0,0,1,.645.863c.158.24.3.485.436.733a9.777,9.777,0,0,1,.43.9c.09.216.17.435.243.654.013.04.031.08.044.119.08.25.147.5.2.752.014.061.026.121.039.183.044.208.08.416.11.624.007.044.014.087.02.131.03.241.049.483.061.724,0,.049,0,.1,0,.148.008.243.008.485-.005.725,0,.019,0,.039,0,.057-.013.23-.038.459-.069.685-.006.041-.01.082-.017.123-.035.23-.08.458-.134.683-.013.051-.026.1-.039.152-.052.2-.11.394-.176.586-.013.039-.024.079-.039.117-.079.221-.169.438-.268.651-.033.072-.071.142-.107.213-.071.143-.147.285-.227.423s-.153.246-.234.367c-.063.1-.125.191-.192.283a7.289,7.289,0,0,1-.734.852c-.054.054-.112.106-.168.158a7.158,7.158,0,0,1-.924.745l-.168.109,84.952-53.248c.056-.035.111-.071.167-.108a7.164,7.164,0,0,0,.924-.745c.057-.053.114-.1.168-.158a7.2,7.2,0,0,0,.734-.852c.014-.02.034-.036.048-.055.052-.073.095-.152.144-.227.08-.121.161-.242.234-.368.019-.033.044-.064.063-.1.059-.1.109-.214.163-.322.035-.071.074-.141.108-.214.009-.02.021-.039.03-.06.081-.178.155-.361.223-.545.005-.015.009-.031.015-.046.013-.038.024-.077.038-.115.04-.118.081-.236.116-.357.022-.076.039-.154.059-.23.013-.052.027-.1.039-.155s.021-.076.03-.116c.036-.161.067-.322.094-.487,0-.027.007-.054.011-.08s.01-.08.016-.121c.013-.094.028-.188.038-.283.014-.134.023-.269.031-.4,0-.019,0-.038,0-.057l0-.025q.011-.244.01-.49c0-.07-.005-.14-.007-.209C554.547,386.809,554.545,386.759,554.544,386.709Z"
          transform="translate(-187.979 -205.909)" fill="url(#linear-gradient-9)" />
        <g id="Group_879" data-name="Group 879" transform="translate(0 94.523)">
          <path id="Path_4996" data-name="Path 4996" d="M135.8,328.14v66.421l57.522,33.211V361.35Z"
            transform="translate(-135.796 -292.374)" fill="url(#linear-gradient)" />
          <path id="Path_4997" data-name="Path 4997" d="M204.489,427.275l61.947-35.765V325.089l-61.947,35.765Z"
            transform="translate(-146.967 -291.878)" fill="url(#linear-gradient-2)" />
          <path id="Path_4998" data-name="Path 4998" d="M135.8,321.194l61.947-35.765,57.523,33.211L193.319,354.4Z"
            transform="translate(-135.796 -285.429)" fill="url(#linear-gradient-3)" />
        </g>
        <path id="Path_4999" data-name="Path 4999"
          d="M383.919,465.677c0-.139,0-.276-.013-.41-.005-.08-.011-.158-.019-.236,0-.042-.008-.083-.013-.124-.013-.107-.03-.212-.049-.314s-.038-.186-.059-.275c-.01-.039-.021-.075-.032-.113l-.012-.041c-.009-.033-.018-.068-.028-.1q-.038-.117-.08-.229c-.028-.073-.059-.144-.091-.213-.02-.044-.043-.086-.065-.129l-.013-.025c-.008-.013-.014-.028-.022-.043-.035-.064-.073-.125-.111-.183s-.079-.116-.121-.17-.083-.1-.126-.15l0,0,0-.006a2.012,2.012,0,0,0-.147-.147c-.053-.049-.107-.095-.163-.138s-.114-.083-.173-.121L243.248,374.75c.022.014.039.036.06.05-1.243-.842-3.248-.439-5.407,1.335-3.329,2.734-5.754,7.688-5.411,11.055a3.186,3.186,0,0,0,1.339,2.541c-.007,0-.015-.005-.022-.009l139.325,87.758a2.418,2.418,0,0,0,.705.281c.059.015.12.029.182.04a3.124,3.124,0,0,0,.818.041c.024,0,.05-.01.075-.013a4.572,4.572,0,0,0,.854-.188c.075-.023.149-.046.225-.073a6.806,6.806,0,0,0,.986-.445c.013-.007.024-.009.037-.017.176-.1.354-.207.534-.325.031-.02.062-.044.093-.064l.108-.075c.078-.054.155-.1.234-.162.122-.09.245-.184.368-.283l.118-.1c.075-.061.148-.124.222-.187q.16-.138.317-.281t.288-.274q.139-.134.276-.275l.089-.094.029-.031c.049-.05.1-.1.145-.152q.127-.138.251-.28c.082-.094.164-.188.245-.285s.157-.191.235-.288.135-.171.2-.257l.01-.013.018-.023q.112-.147.221-.3t.214-.3q.1-.151.206-.3t.2-.306c.033-.051.064-.1.1-.155l.02-.032c.025-.041.051-.081.075-.122.064-.106.127-.213.189-.32s.125-.219.185-.33.133-.246.2-.37c.052-.1.1-.2.15-.3l.019-.039.037-.074q.133-.276.255-.554c.08-.184.141-.368.213-.552.061-.157.126-.311.18-.466.135-.382.247-.76.342-1.135.02-.08.049-.161.068-.24,0-.014.009-.029.013-.044.07-.306.126-.609.167-.905.018-.126.026-.249.038-.372,0-.044.009-.087.013-.131s.012-.1.015-.144Q383.919,465.92,383.919,465.677Z"
          transform="translate(-151.515 -205.371)" fill="url(#linear-gradient-13)" />
        <g id="Group_880" data-name="Group 880" transform="translate(163.718 189.045)">
          <path id="Path_5000" data-name="Path 5000" d="M331.307,441.018v66.421L388.83,540.65V474.228Z"
            transform="translate(-331.307 -405.252)" fill="url(#linear-gradient)" />
          <path id="Path_5001" data-name="Path 5001" d="M400,540.154l61.947-35.765V437.967L400,473.732Z"
            transform="translate(-342.477 -404.756)" fill="url(#linear-gradient-2)" />
          <path id="Path_5002" data-name="Path 5002" d="M331.307,434.072l61.947-35.765,57.522,33.211L388.83,467.283Z"
            transform="translate(-331.307 -398.307)" fill="url(#linear-gradient-3)" />
        </g>
        <g id="Group_881" data-name="Group 881" transform="translate(384.854 163.499)"
          style="mix-blend-mode: overlay;isolation: isolate">
          <path id="Path_5003" data-name="Path 5003"
            d="M595.491,367.8c.09,11.069.067,22.14.1,33.21-.037,11.07-.013,22.14-.1,33.211-.09-11.07-.068-22.141-.1-33.211C595.424,389.94,595.4,378.869,595.491,367.8Z"
            transform="translate(-595.386 -367.8)" fill="#fff" />
        </g>
        <g id="Group_882" data-name="Group 882" transform="translate(221.136 68.976)"
          style="mix-blend-mode: overlay;isolation: isolate">
          <path id="Path_5004" data-name="Path 5004"
            d="M399.98,254.921c.09,11.07.067,22.14.1,33.211-.037,11.07-.014,22.14-.1,33.211-.09-11.07-.068-22.14-.1-33.211C399.913,277.061,399.89,265.991,399.98,254.921Z"
            transform="translate(-399.875 -254.921)" fill="#fff" />
        </g>
        <g id="Group_883" data-name="Group 883" transform="translate(221.136 258.021)"
          style="mix-blend-mode: overlay;isolation: isolate">
          <path id="Path_5005" data-name="Path 5005"
            d="M399.98,480.678c.09,11.07.067,22.141.1,33.211-.037,11.07-.014,22.141-.1,33.21-.09-11.069-.068-22.14-.1-33.21C399.913,502.819,399.89,491.748,399.98,480.678Z"
            transform="translate(-399.875 -480.678)" fill="#fff" />
        </g>
        <g id="Group_884" data-name="Group 884" transform="translate(57.418 163.499)"
          style="mix-blend-mode: overlay;isolation: isolate">
          <path id="Path_5006" data-name="Path 5006"
            d="M204.469,367.8c.09,11.069.067,22.14.1,33.21-.037,11.07-.014,22.14-.1,33.211-.09-11.07-.067-22.141-.1-33.211C204.4,389.94,204.379,378.869,204.469,367.8Z"
            transform="translate(-204.364 -367.8)" fill="#fff" />
        </g>
        <g id="Group_885" data-name="Group 885" transform="translate(384.959 127.733)"
          style="mix-blend-mode: overlay;isolation: isolate">
          <path id="Path_5007" data-name="Path 5007"
            d="M657.458,325.089c-10.28,6.038-20.616,11.98-30.921,17.973-10.343,5.929-20.657,11.909-31.026,17.793,10.279-6.039,20.615-11.98,30.921-17.974C636.776,336.952,647.089,330.972,657.458,325.089Z"
            transform="translate(-595.511 -325.089)" fill="#fff" />
        </g>
        <g id="Group_886" data-name="Group 886" transform="translate(221.241 33.211)"
          style="mix-blend-mode: overlay;isolation: isolate">
          <path id="Path_5008" data-name="Path 5008"
            d="M461.947,212.211c-10.28,6.038-20.616,11.98-30.921,17.973-10.343,5.929-20.657,11.909-31.026,17.792C410.28,241.937,420.616,236,430.921,230,441.265,224.074,451.578,218.094,461.947,212.211Z"
            transform="translate(-400 -212.211)" fill="#fff" />
        </g>
        <g id="Group_887" data-name="Group 887" transform="translate(221.241 222.256)"
          style="mix-blend-mode: overlay;isolation: isolate">
          <path id="Path_5009" data-name="Path 5009"
            d="M461.947,437.967c-10.28,6.038-20.616,11.98-30.921,17.973-10.343,5.93-20.657,11.91-31.026,17.793,10.28-6.039,20.616-11.98,30.921-17.974C441.265,449.831,451.578,443.85,461.947,437.967Z"
            transform="translate(-400 -437.967)" fill="#fff" />
        </g>
        <g id="Group_888" data-name="Group 888" transform="translate(57.523 127.733)"
          style="mix-blend-mode: overlay;isolation: isolate">
          <path id="Path_5010" data-name="Path 5010"
            d="M266.436,325.089c-10.28,6.038-20.616,11.98-30.921,17.973-10.343,5.929-20.656,11.909-31.026,17.793,10.28-6.039,20.616-11.98,30.921-17.974C245.754,336.952,256.067,330.972,266.436,325.089Z"
            transform="translate(-204.489 -325.089)" fill="#fff" />
        </g>
        <g id="Group_889" data-name="Group 889" transform="translate(327.436 130.288)"
          style="mix-blend-mode: overlay;isolation: isolate">
          <path id="Path_5011" data-name="Path 5011"
            d="M584.341,361.351c-9.632-5.458-19.208-11.012-28.814-16.515-9.569-5.568-19.167-11.083-28.709-16.7,9.632,5.456,19.208,11.012,28.814,16.515C565.2,350.222,574.8,355.738,584.341,361.351Z"
            transform="translate(-526.818 -328.14)" fill="#fff" />
        </g>
        <g id="Group_890" data-name="Group 890" transform="translate(163.718 35.765)"
          style="mix-blend-mode: overlay;isolation: isolate">
          <path id="Path_5012" data-name="Path 5012"
            d="M388.83,248.472c-9.632-5.457-19.208-11.012-28.814-16.515-9.569-5.567-19.167-11.082-28.709-16.7,9.632,5.457,19.208,11.012,28.814,16.515C369.689,237.344,379.288,242.859,388.83,248.472Z"
            transform="translate(-331.307 -215.261)" fill="#fff" />
        </g>
        <g id="Group_891" data-name="Group 891" transform="translate(163.718 224.811)"
          style="mix-blend-mode: overlay;isolation: isolate">
          <path id="Path_5013" data-name="Path 5013"
            d="M388.83,474.229c-9.632-5.457-19.208-11.012-28.814-16.515-9.569-5.567-19.167-11.083-28.709-16.7,9.632,5.456,19.208,11.012,28.814,16.515C369.689,463.1,379.288,468.616,388.83,474.229Z"
            transform="translate(-331.307 -441.018)" fill="#fff" />
        </g>
        <g id="Group_892" data-name="Group 892" transform="translate(0 130.288)"
          style="mix-blend-mode: overlay;isolation: isolate">
          <path id="Path_5014" data-name="Path 5014"
            d="M193.319,361.351c-9.632-5.458-19.208-11.012-28.814-16.515-9.568-5.568-19.167-11.083-28.709-16.7,9.632,5.456,19.208,11.012,28.814,16.515C174.178,350.222,183.777,355.738,193.319,361.351Z"
            transform="translate(-135.796 -328.14)" fill="#fff" />
        </g>
      </g>
    </g>
  </g>
</svg>