<svg xmlns="http://www.w3.org/2000/svg" width="236.188" height="118.225" viewBox="0 0 236.188 118.225">
  <g id="Group_1" data-name="Group 1" transform="translate(-100.032 -322.307)">
    <path id="Path_2" data-name="Path 2"
      d="M311.367,339.17c-1.794-1.047-3.595-2.087-5.341-3.206a1.275,1.275,0,0,0-1.764,0c-.437.377-.574.191-.568-.335.024-1.842,0-3.678.018-5.521a.806.806,0,0,0-.449-.8q-5.769-3.409-11.514-6.854a.8.8,0,0,0-.963.036q-5.715,3.427-11.442,6.831a.958.958,0,0,0-.544.957q.018,39.619,0,79.232a.778.778,0,0,0,.646.9q5.634,1.776,11.245,3.619a1.551,1.551,0,0,0,1.1-.024c3.744-1.435,7.488-2.865,11.245-4.259a.863.863,0,0,0,.67-.975q-.018-21.981.006-43.956a1.11,1.11,0,0,0-.652-1.113q-5.616-3.311-11.215-6.657c-.209-.126-.538-.167-.55-.5-.012-.7,0-1.4,0-2.2,2.357,1.4,4.588,2.733,6.819,4.061.084.048.2.114.209.185.12.73.778.778,1.322,1.13V341.275c0-.263-.09-.544.251-.742,1.711-1,3.4-2.022,5.228-3.116v7.524q0,14.409-.018,28.823c0,.574.15.736.718.676,1.83-.2,3.66-.377,5.5-.514.49-.036.568-.227.568-.652q-.018-16.607,0-33.2A.911.911,0,0,0,311.367,339.17Zm-20.085-13.344c.885.52,1.687.987,2.476,1.459,2.363,1.406,4.707,2.829,7.082,4.211a.965.965,0,0,1,.562,1.023c-.036.544-.006,1.089-.006,1.752-1.28-.754-2.47-1.453-3.648-2.153-1.932-1.148-3.852-2.309-5.8-3.433a1.089,1.089,0,0,1-.682-1.178A15.474,15.474,0,0,0,291.283,325.826Zm0,66.439c1.352.807,2.548,1.525,3.75,2.243,1.95,1.166,3.888,2.333,5.844,3.469a.9.9,0,0,1,.532.969c-.042.52-.006,1.041-.006,1.543-.269.108-.413-.066-.562-.156-2.937-1.741-5.856-3.5-8.8-5.216a1.227,1.227,0,0,1-.766-1.34A12.4,12.4,0,0,0,291.283,392.265ZM294.04,410.3a.462.462,0,0,1-.335,0c-.766-.443-1.519-.9-2.273-1.352-.167-.1-.144-.287-.144-.455-.006-.616-.006-1.238-.006-2,1.657.987,3.224,1.92,4.958,2.949C295.4,409.777,294.728,410.047,294.04,410.3Zm4.833-1.878a.668.668,0,0,1-.6-.138q-3.293-1.956-6.585-3.906a.681.681,0,0,1-.407-.676c.03-.6.006-1.2.006-1.86.664.275,9.049,5.269,9.66,5.754C300.225,407.881,299.549,408.151,298.873,408.426Zm2.416-3.23c-.341.2-.807-.353-1.208-.586-2.715-1.6-5.413-3.218-8.134-4.8a1.091,1.091,0,0,1-.67-1.178,13.512,13.512,0,0,0,.006-1.477,1.044,1.044,0,0,1,.706.281c2.913,1.729,5.808,3.481,8.733,5.192a1.1,1.1,0,0,1,.688,1.232C301.331,404.317,301.618,405,301.289,405.2Zm.12-10.8a13.847,13.847,0,0,0-.012,1.519c-1.286-.766-2.452-1.453-3.613-2.141-1.926-1.142-3.84-2.315-5.79-3.421a1.128,1.128,0,0,1-.712-1.292c.072-.455-.221-1.142.126-1.334s.813.359,1.214.6c2.686,1.591,5.359,3.212,8.057,4.779A1.168,1.168,0,0,1,301.409,394.4Zm-10.126-20.934c.287-.108.431.1.6.2,3.021,1.794,6.029,3.6,9.049,5.383a.821.821,0,0,1,.479.855c-.036.55-.012,1.1-.012,1.794l-5.838-3.469c-1.232-.736-2.452-1.483-3.7-2.189a.931.931,0,0,1-.58-1C291.319,374.513,291.283,373.986,291.283,373.466Zm0,4.582c1.884,1.118,3.625,2.153,5.359,3.188,1.412.843,2.811,1.7,4.235,2.524a.862.862,0,0,1,.532.9c-.042.544-.012,1.089-.012,1.633-.281.066-.437-.114-.61-.215-2.955-1.753-5.9-3.529-8.864-5.251a1.1,1.1,0,0,1-.646-1.184C291.313,379.166,291.283,378.687,291.283,378.047ZM291.4,383c.341-.2.813.347,1.214.58,2.745,1.633,5.479,3.284,8.236,4.9a.9.9,0,0,1,.556.951c-.048.532-.012,1.071-.012,1.735-1.112-.658-2.111-1.244-3.11-1.836-2.093-1.238-4.169-2.5-6.28-3.714-.538-.311-.837-.64-.73-1.28C291.354,383.879,291.067,383.191,291.4,383Zm10.007-7.566a10.592,10.592,0,0,0-.012,1.382c-.317.048-.5-.161-.712-.287-2.937-1.741-5.862-3.5-8.81-5.222a.994.994,0,0,1-.6-1.071c.042-.508.006-1.029.006-1.657.658.377,1.208.694,1.758,1.023,2.542,1.519,5.072,3.056,7.632,4.546A1.165,1.165,0,0,1,301.409,375.434ZM291.283,363.95c.335-.03.52.185.73.311,2.913,1.729,5.808,3.475,8.727,5.186a1.092,1.092,0,0,1,.67,1.178,15.134,15.134,0,0,0-.012,1.585c-1.645-.975-3.176-1.884-4.7-2.787-1.621-.963-3.23-1.944-4.863-2.877a.938.938,0,0,1-.556-1.017C291.313,365.008,291.283,364.482,291.283,363.95Zm2.129-3.607c2.476,1.477,4.94,2.973,7.429,4.426a.966.966,0,0,1,.568,1.017c-.042.52-.012,1.041-.012,1.555a.966.966,0,0,1-.628-.239c-2.973-1.764-5.933-3.541-8.912-5.293a.946.946,0,0,1-.586-1c.054-.514.012-1.041.012-1.723C292.066,359.548,292.742,359.942,293.412,360.343Zm-2.129-20.234c2.369,1.418,4.6,2.751,6.836,4.079a.491.491,0,0,1,.263.467c-.012.64-.006,1.28-.006,2.04-.76-.449-1.435-.837-2.105-1.232-1.5-.891-2.991-1.794-4.5-2.668a.809.809,0,0,1-.5-.837C291.313,341.389,291.283,340.815,291.283,340.109Zm7.094,15.916c-.263.1-.395-.078-.544-.167-2.016-1.19-4.025-2.4-6.047-3.571a.857.857,0,0,1-.508-.9c.036-.544.006-1.095.006-1.788,2.357,1.406,4.588,2.739,6.819,4.061a.534.534,0,0,1,.281.526C298.37,354.8,298.376,355.421,298.376,356.025Zm-.03-4.731c-.221.114-.347-.078-.5-.167-2.04-1.2-4.067-2.416-6.107-3.607a.765.765,0,0,1-.467-.784c.03-.586.006-1.172.006-1.884,1.459.873,2.805,1.675,4.151,2.482.431.257.867.508,1.3.766C298.49,349.158,298.49,349.158,298.346,351.294Zm-.09-9.4c-1.262-.748-2.53-1.5-3.792-2.249-.58-.341-1.148-.688-1.729-1.029-1.633-.963-1.717-1.154-1.364-3.188,1.537.915,3.05,1.812,4.558,2.715a5.473,5.473,0,0,0,.742.437A2.357,2.357,0,0,1,298.257,341.891Zm3.086-4.223a1.339,1.339,0,0,1-1.609.365c-2.626-1.561-5.245-3.134-7.889-4.671a.957.957,0,0,1-.568-1.023c.036-.52.006-1.047.006-1.717,1.573.939,3,1.794,4.432,2.65q2.557,1.525,5.108,3.044A1.076,1.076,0,0,1,301.343,337.669Z"
      transform="translate(-71.844)" fill="#deb317" />
    <path id="Path_3" data-name="Path 3"
      d="M219.972,427.161q0,7.995-.007,15.989c0,.266.161.684-.157.772a1.45,1.45,0,0,1-1.3-.1,4.1,4.1,0,0,1-.408-.4Q201.8,427.1,185.525,410.764c-.534-.536-.766-.452-1.243.027q-16.3,16.359-32.627,32.7a1.671,1.671,0,0,1-1.311.538c-4.5-.02-8.993-.029-13.489.006-.745.006-.8-.352-.821-.911-.019-.594.039-.944.824-.935,4.018.044,8.036.014,12.054.029a1.447,1.447,0,0,0,1.129-.461Q167,424.778,183.96,407.812a1.585,1.585,0,0,1,1.426-.542c5.234.5,10.472.959,15.71,1.425q6.82.606,13.642,1.2c1.571.139,3.14.312,4.714.415.614.04.521.414.521.789Q219.972,419.131,219.972,427.161Z"
      transform="translate(-14.467 -34.141)" fill="#deb317" />
    <path id="Path_4" data-name="Path 4"
      d="M322.873,442.756c0-1.354,0-2.522,0-3.69q0-13.943,0-27.886c0-1.063,0-1.046,1.074-1.139q7.643-.664,15.283-1.345,7.784-.694,15.564-1.416a1.391,1.391,0,0,1,1.248.464q16.854,16.919,33.722,33.825a1.74,1.74,0,0,0,1.368.574c4.065-.025,8.131-.015,12.2-.01.291,0,.647-.12.793.292a2.427,2.427,0,0,1,0,1.477c-.048.175-.294.109-.455.109-4.616,0-9.231,0-13.847.011a1.029,1.029,0,0,1-.772-.431l-23.125-23.124c-3.3-3.3-6.6-6.582-9.879-9.9-.428-.433-.635-.405-1.05.011q-15.712,15.78-31.452,31.531C323.364,442.293,323.175,442.467,322.873,442.756Z"
      transform="translate(-89.556 -34.145)" fill="#deb317" />
    <path id="Path_5" data-name="Path 5"
      d="M265.18,353.842c-.287.114-.407-.072-.556-.173q-2.216-1.507-4.426-3.026c-1.112-.766-1.112-.766-.921-2.255,1.92,1.322,3.774,2.584,5.6,3.87C265.467,352.675,264.959,353.333,265.18,353.842Zm-5.969-8.41c.132-.419.335-.108.467-.018,1.2.813,2.4,1.645,3.595,2.47a5.349,5.349,0,0,0,.885.6c1.041.443,1.13,1.25.9,2.279-1.555-1.071-3.086-2.117-4.611-3.158l-.646-.449A1.547,1.547,0,0,1,259.211,345.432Zm-.012,9.325c.437.3.766.52,1.095.748,1.256.861,2.47,1.794,3.774,2.572a1.772,1.772,0,0,1,.981,2.3c-1.89-1.292-3.768-2.548-5.6-3.864C258.906,356.12,259.295,355.451,259.2,354.757Zm.006,3.218c.592.4,1.083.724,1.567,1.059,1.1.76,2.159,1.585,3.308,2.255a1.76,1.76,0,0,1,.969,2.3c-1.9-1.3-3.774-2.554-5.61-3.882C258.906,359.314,259.295,358.65,259.2,357.975Zm5.856,21.652c-.682-.473-1.346-.927-2-1.376-.945-.652-1.854-1.358-2.847-1.926a1.681,1.681,0,0,1-.933-2.177c.221-.06.359.144.52.257,1.453.993,2.865,2.069,4.372,2.979A1.777,1.777,0,0,1,265.061,379.626Zm-5.868-11.891c.347-.036.52.191.712.329,1.424.963,2.787,2.016,4.259,2.895a1.8,1.8,0,0,1,.9,2.255c-1.884-1.292-3.714-2.548-5.539-3.81C258.888,368.962,259.349,368.31,259.193,367.736Zm.114-3.29c1.633,1.124,3.2,2.291,4.857,3.308a1.8,1.8,0,0,1,.9,2.243c-.64-.437-1.262-.855-1.884-1.28-.987-.676-1.932-1.412-2.961-2A1.719,1.719,0,0,1,259.307,364.446Zm5.826,11.855c-.269.09-.383-.108-.526-.2q-2.225-1.516-4.438-3.038c-1.071-.742-1.071-.742-.9-2.225,1.95,1.34,3.834,2.6,5.658,3.936C265.413,375.123,265.061,375.786,265.132,376.3Zm.036-9.432c-2-1.376-3.852-2.638-5.7-3.912a2.193,2.193,0,0,1-.239-1.537c.12-.2.233-.078.347,0,1.788,1.232,3.595,2.44,5.353,3.72C265.419,365.5,265.049,366.163,265.168,366.869Zm-5.736-13.577c-.49-.353-.2-.981-.191-1.477.006-.209.209-.1.329-.018,1.788,1.232,3.595,2.44,5.353,3.72.5.365.114,1.029.269,1.747C263.153,355.863,261.268,354.607,259.432,353.291Zm5.24,29.4c.024-.012.054-.024.084-.036l-.018-.036c-1.22-.837-2.3-1.579-3.373-2.327a8.7,8.7,0,0,0-1.3-.873c-.993-.449-.927-1.226-.8-2.177,1,.688,1.938,1.334,2.871,1.974.766.526,1.5,1.095,2.3,1.573a1.24,1.24,0,0,1,.724,1.376,2.906,2.906,0,0,0,.03.64,3.056,3.056,0,0,1,.574.024c.544.108.724-.054.724-.646q-.027-16.993,0-33.979a.987.987,0,0,0-.5-.927c-2.117-1.429-4.229-2.877-6.316-4.342a.683.683,0,0,0-.933.018q-3.1,2.18-6.25,4.312a1.165,1.165,0,0,0-.58,1.107c.024,4.994.012,9.989.012,14.983,0,5.826.012,11.657-.018,17.489,0,.634.185.819.8.831.909.024,1.812.15,2.715.227,1.3.114,2.608.227,3.936.341a3.74,3.74,0,0,1-.072-1.764c1.555.921,2.787,2.363,4.743,2.213Z"
      transform="translate(-61.029 -8.218)" fill="#deb317" />
    <path id="Path_6" data-name="Path 6"
      d="M166.353,448.124a7.588,7.588,0,0,0,.67-.537q14.6-14.567,29.178-29.153c.452-.452.682-.48,1.151-.009q14.637,14.68,29.308,29.326c.162.162.313.335.466.5-.115.159-.245.106-.353.106-3.205,0-6.411-.007-9.616.013-.462,0-.611-.113-.6-.591.029-1.6,0-3.2.02-4.8a1.191,1.191,0,0,0-.395-.935q-9.379-9.338-18.735-18.7c-.39-.391-.577-.356-.944.013q-9.334,9.383-18.7,18.731a1.423,1.423,0,0,0-.448,1.132c.023,1.529,0,3.059.012,4.589,0,.319-.011.542-.441.541-3.484-.013-6.968-.007-10.452-.007Z"
      transform="translate(-26.653 -38.491)" fill="#deb317" />
    <path id="Path_7" data-name="Path 7"
      d="M387.843,448.444h-1.258c-2.894,0-5.789-.024-8.683.019-.635.01-.831-.2-.871-.777-.1-1.434-.028-2.867-.019-4.3a1.84,1.84,0,0,0-.611-1.435q-9.2-9.157-18.363-18.359c-.481-.483-.707-.42-1.147.023q-9.25,9.314-18.539,18.587a1.426,1.426,0,0,0-.456,1.131c.023,1.505,0,3.012.016,4.517,0,.414-.091.595-.554.592-3.157-.018-6.314-.01-9.472-.012a1.054,1.054,0,0,1-.2-.039c-.041-.257.171-.339.292-.46q14.662-14.653,29.324-29.307c.371-.371.547-.321.886.019q14.665,14.651,29.347,29.286C387.662,448.051,387.869,448.133,387.843,448.444Z"
      transform="translate(-91.489 -38.605)" fill="#deb317" />
    <path id="Path_8" data-name="Path 8"
      d="M207.4,498.965c0,3.222-.013,6.4.013,9.578,0,.528-.11.721-.66.665a8.264,8.264,0,0,0-1.577,0c-.529.048-.619-.168-.617-.646q.025-7.063,0-14.124c0-.508.159-.577.634-.639a2.841,2.841,0,0,1,2.86,1.339c2.264,2.93,4.652,5.763,6.991,8.634.085.1.174.205.372.438v-1.4c0-2.772.011-5.545-.011-8.316,0-.5.058-.739.641-.683.709.069,1.675-.235,2.076.126.461.414.139,1.392.141,2.123.013,4.158,0,8.317.019,12.475,0,.516-.112.631-.65.693a2.868,2.868,0,0,1-2.853-1.35c-2.245-2.914-4.622-5.726-6.949-8.576C207.732,499.178,207.673,499,207.4,498.965Z"
      transform="translate(-42.008 -68.902)" fill="#fefefe" />
    <path id="Path_9" data-name="Path 9"
      d="M378.822,493.476c-4.9.156-8.236,3.648-8.057,8.422.167,4.318,3.924,7.578,8.559,7.417,4.749-.161,8.176-3.625,8.021-8.1A7.924,7.924,0,0,0,378.822,493.476Zm.2,13.314a5.4,5.4,0,1,1,5.431-5.383A5.224,5.224,0,0,1,379.025,506.791Z"
      transform="translate(-108.801 -68.788)" fill="#fefefe" />
    <path id="Path_10" data-name="Path 10"
      d="M146.865,504.7c-.293-.4-.323-.568.185-.8a4.529,4.529,0,0,0,2.422-2.692,5.289,5.289,0,0,0-4.408-7.2c-2.584-.395-5.2-.09-7.805-.173-.341-.012-.389.15-.389.437q.009,7.231,0,14.474c0,.389.132.49.5.473.622-.024,1.244-.03,1.866.006.4.018.526-.108.514-.514-.024-1.1.018-2.2-.018-3.3-.018-.508.078-.724.652-.688.975.054,1.956.036,2.937,0a.839.839,0,0,1,.813.425c.837,1.226,1.693,2.428,2.542,3.643.144.209.245.437.586.431.879-.024,1.764-.012,2.775-.012C148.922,507.624,147.917,506.152,146.865,504.7Zm-2.721-2.4c-1.328.167-2.668.06-4,.1-.395.006-.407-.209-.407-.5.012-.879.006-1.764.006-2.644V496.75c0-.233-.054-.5.329-.484a27.11,27.11,0,0,1,4.354.132,2.757,2.757,0,0,1,2.458,3.206A2.837,2.837,0,0,1,144.143,502.306Z"
      transform="translate(-14.805 -68.921)" fill="#fefefe" />
    <path id="Path_11" data-name="Path 11"
      d="M336.182,501.432c0-2.341.011-4.682-.01-7.023,0-.444.078-.637.574-.6.736.055,1.7-.242,2.153.125.468.382.128,1.386.142,2.116.023,1.194.02,2.389,0,3.583-.007.377.056.541.493.536q3.478-.033,6.957,0c.416,0,.513-.128.508-.523-.02-1.744.006-3.488-.019-5.232-.006-.452.09-.641.583-.6.734.054,1.706-.239,2.145.13.455.382.133,1.386.135,2.117.012,4.133-.005,8.266.019,12.4,0,.563-.08.82-.717.752-.685-.073-1.616.223-2.009-.126-.452-.4-.127-1.346-.141-2.055q-.034-1.934,0-3.87c.008-.42-.079-.577-.544-.572q-3.442.038-6.885,0c-.486-.006-.532.185-.529.584.017,1.815-.01,3.632.019,5.446.008.478-.131.621-.6.589a11,11,0,0,0-1.72,0c-.508.044-.572-.172-.568-.607C336.192,506.21,336.182,503.821,336.182,501.432Z"
      transform="translate(-94.901 -68.899)" fill="#fefefe" />
    <path id="Path_12" data-name="Path 12"
      d="M475.6,501.5c0-2.366.012-4.732-.011-7.1,0-.438.1-.557.549-.554q5.059.031,10.118,0c.488,0,.61.148.574.6-.045.569.184,1.331-.1,1.666-.34.4-1.124.121-1.713.126q-2.979.027-5.956,0c-.443,0-.631.074-.608.574.043.954.042,1.913,0,2.867-.023.5.162.58.607.575,2.057-.022,4.114.008,6.171-.022.528-.008.694.119.685.67-.024,1.706,0,1.707-1.7,1.707-1.746,0-3.492.012-5.238-.009-.4,0-.529.1-.517.511.029,1.051.035,2.1,0,3.154-.017.478.135.59.6.586,2.464-.023,4.928.007,7.391-.025.567-.007.721.147.71.712-.031,1.7-.005,1.7-1.7,1.7-3.038,0-6.076-.016-9.113.014-.572.006-.764-.1-.752-.72C475.626,506.187,475.6,503.844,475.6,501.5Z"
      transform="translate(-150.927 -68.939)" fill="#fefefe" />
    <path id="Path_13" data-name="Path 13"
      d="M288.137,501.544c0-2.365.011-4.731-.01-7.1,0-.45.09-.6.578-.6q5.057.034,10.115,0c.416,0,.608.063.564.535-.055.591.186,1.368-.111,1.734-.315.39-1.122.114-1.713.12-1.961.017-3.922.032-5.882-.009-.592-.013-.717.184-.691.723a21.2,21.2,0,0,1,0,2.579c-.046.635.2.733.764.724,2.008-.034,4.018,0,6.025-.023.481-.006.657.1.653.621-.01,1.753.012,1.754-1.72,1.754s-3.444.016-5.165-.011c-.444-.007-.568.111-.553.554.034,1.05.035,2.1,0,3.153-.016.465.154.549.574.546,2.487-.018,4.974.01,7.46-.023.552-.007.724.149.655.678-.074.56.245,1.311-.132,1.638-.317.276-1.045.09-1.591.09-3.013,0-6.027-.023-9.039.021-.687.01-.8-.211-.793-.828C288.158,506.132,288.137,503.838,288.137,501.544Z"
      transform="translate(-75.59 -68.939)" fill="#fefefe" />
    <path id="Path_14" data-name="Path 14"
      d="M114.373,504.349c0,.764-.034,1.531.012,2.293a1.1,1.1,0,0,1-.575,1.1,9.741,9.741,0,0,1-10.375.123,7.492,7.492,0,0,1-3.214-8.137,7.3,7.3,0,0,1,5.927-5.992,8.564,8.564,0,0,1,7.773,1.6c.7.571.685.586.06,1.194-.377.367-.7.919-1.148,1.044-.467.132-.814-.508-1.241-.773-2.719-1.689-7.733-.97-8.584,3.5a5.351,5.351,0,0,0,5.166,6.464,7.128,7.128,0,0,0,2.943-.492.764.764,0,0,0,.564-.843c-.038-1.241,0-2.485-.022-3.726-.008-.411.121-.542.527-.519a12.632,12.632,0,0,0,1.648,0c.468-.034.563.159.55.579C114.353,502.628,114.373,503.488,114.373,504.349Z"
      transform="translate(0 -68.774)" fill="#fefefe" />
    <path id="Path_15" data-name="Path 15"
      d="M183.248,508.591q-2.88-6.379-5.766-12.764c-.293-.652-.443-1.513-.945-1.89-.538-.4-1.429-.054-2.159-.132-.5-.054-.706.156-.9.58-2.123,4.767-4.271,9.522-6.406,14.283-.072.156-.227.3-.12.52.79,0,1.579-.024,2.369.012.395.018.538-.161.664-.479.359-.885.76-1.752,1.107-2.638a.626.626,0,0,1,.676-.473c2.249.024,4.492.018,6.741,0a.626.626,0,0,1,.682.467c.371.9.778,1.788,1.148,2.692a.574.574,0,0,0,.628.431c.813-.03,1.627-.012,2.554-.012C183.4,508.932,183.326,508.765,183.248,508.591Zm-10.969-5.216c.945-2.213,1.872-4.384,2.865-6.7.993,2.3,1.932,4.474,2.895,6.7Z"
      transform="translate(-26.881 -68.896)" fill="#fefefe" />
    <path id="Path_16" data-name="Path 16"
      d="M423.413,498.988c0,1.338.032,2.677-.007,4.013-.12,4.151-2.678,6.557-6.841,6.466-3.979-.087-6.33-2.2-6.549-6.16-.166-3-.054-6.017-.083-9.026,0-.371.148-.437.467-.428.621.017,1.245.038,1.864-.006.462-.033.546.136.543.561-.02,2.532-.014,5.064-.007,7.6a11.964,11.964,0,0,0,.074,1.357c.315,2.7,2.05,3.987,4.739,3.529a3.407,3.407,0,0,0,2.912-3.172,30.389,30.389,0,0,0,.108-4.007q.024-2.687,0-5.375c0-.363.076-.508.468-.487a18.1,18.1,0,0,0,1.864,0c.382-.019.482.107.477.48-.02,1.553-.009,3.105-.009,4.658Z"
      transform="translate(-124.54 -68.938)" fill="#fefefe" />
    <path id="Path_17" data-name="Path 17"
      d="M454.488,497.031a8.261,8.261,0,0,0-5.7-1.047,2.733,2.733,0,0,0-1.17.51,1.621,1.621,0,0,0,.155,2.8,11.8,11.8,0,0,0,3.12,1,15.482,15.482,0,0,1,2.723.864,3.648,3.648,0,0,1,2.391,3.2,4.033,4.033,0,0,1-1.834,3.8,7.526,7.526,0,0,1-4.516,1.126,10.509,10.509,0,0,1-5.4-1.444c-.4-.244-.578-.479-.291-.958s.358-1.261.76-1.485c.374-.208.9.448,1.4.67a8.5,8.5,0,0,0,5.238.688,2.637,2.637,0,0,0,1.223-.56,1.55,1.55,0,0,0-.086-2.562,5.761,5.761,0,0,0-1.917-.761c-1.194-.336-2.406-.617-3.578-1.014a3.771,3.771,0,0,1-2.934-3.48,4,4,0,0,1,2.483-4.143,9.664,9.664,0,0,1,8.438.34c.308.147.415.314.246.663C454.97,495.8,454.757,496.381,454.488,497.031Z"
      transform="translate(-138.166 -68.769)" fill="#fefefe" />
    <path id="Path_18" data-name="Path 18"
      d="M262.624,493.812c1.959,0,3.92.014,5.879-.01.455-.006.637.094.592.579-.055.589.179,1.363-.118,1.729-.316.39-1.118.1-1.707.119-.86.024-1.724.047-2.581-.008-.617-.039-.734.18-.73.76.028,3.821,0,7.643.028,11.464,0,.562-.078.824-.717.755-.682-.074-1.615.219-2-.131-.443-.4-.133-1.342-.136-2.047-.014-3.367-.022-6.735.008-10.1.005-.583-.173-.712-.72-.7-1.266.039-2.534,0-3.8.021-.44.009-.657-.068-.611-.573.054-.589-.186-1.36.108-1.731.312-.395,1.115-.114,1.7-.121C259.421,493.8,261.022,493.812,262.624,493.812Z"
      transform="translate(-62.668 -68.892)" fill="#fefefe" />
    <path id="Path_19" data-name="Path 19"
      d="M243.779,501.515c0,2.366-.011,4.732.01,7.1,0,.45-.089.634-.579.6-.735-.055-1.705.237-2.15-.132-.464-.385-.138-1.389-.139-2.12-.013-4.159,0-8.317-.02-12.476,0-.534.12-.714.666-.668.709.061,1.649-.227,2.076.13.446.373.122,1.342.129,2.05C243.792,497.834,243.779,499.674,243.779,501.515Z"
      transform="translate(-56.577 -68.905)" fill="#fefefe" />
    <path id="Path_20" data-name="Path 20"
      d="M209.525,453.421c0-.64-.25-1.49.065-1.864.371-.441,1.25-.111,1.907-.142.547-.027,1.1.013,1.644-.012.365-.016.5.092.5.479q-.034,1.607,0,3.215c.008.386-.13.484-.493.478-1.072-.02-2.145-.017-3.218,0-.331.005-.47-.084-.455-.438.025-.571.007-1.143.007-1.715Z"
      transform="translate(-43.966 -51.85)" fill="#deb317" />
    <path id="Path_21" data-name="Path 21"
      d="M218,453.431c0-.64-.249-1.485.065-1.867.372-.453,1.251-.111,1.908-.148.5-.029,1,.018,1.5-.013.437-.027.642.068.623.574-.039,1.025-.029,2.053,0,3.079.01.407-.115.532-.523.522-1.05-.026-2.1-.023-3.153,0-.383.007-.5-.13-.483-.5.025-.548.007-1.1.007-1.647Z"
      transform="translate(-47.372 -51.851)" fill="#deb317" />
    <path id="Path_22" data-name="Path 22"
      d="M372.416,451.495c.639,0,1.49-.25,1.861.065.44.373.111,1.25.142,1.907.026.547-.014,1.1.012,1.643.017.365-.09.5-.476.5-1.072-.022-2.145-.025-3.217,0-.394.01-.478-.136-.471-.5.02-1.047.032-2.1,0-3.143-.017-.473.169-.56.581-.537.523.031,1.048.008,1.572.008Z"
      transform="translate(-108.601 -51.88)" fill="#deb317" />
    <path id="Path_23" data-name="Path 23"
      d="M378.765,453.43c0-.641-.25-1.487.065-1.868.373-.451,1.252-.111,1.91-.147.5-.028,1,.018,1.5-.013.438-.027.642.068.623.573-.04,1.026-.03,2.054,0,3.08.01.41-.118.531-.525.521-1.051-.026-2.1-.023-3.154,0-.382.007-.5-.129-.483-.5.025-.548.007-1.1.007-1.648Z"
      transform="translate(-111.98 -51.851)" fill="#deb317" />
    <path id="Path_24" data-name="Path 24"
      d="M217.965,443.92c0-.691.016-1.383-.006-2.074-.012-.381.1-.5.494-.43a4.675,4.675,0,0,1,3.665,4.663c-.02.352-.144.443-.471.439-1.049-.014-2.1-.019-3.148,0-.4.008-.556-.115-.54-.527C217.984,445.3,217.965,444.611,217.965,443.92Z"
      transform="translate(-47.392 -47.86)" fill="#ddb317" />
    <path id="Path_25" data-name="Path 25"
      d="M378.73,443.9c0-.692.019-1.384-.007-2.075-.016-.417.151-.471.514-.4a4.664,4.664,0,0,1,3.647,4.608c-.012.371-.118.5-.492.489-1.05-.02-2.1-.023-3.151,0-.422.01-.531-.158-.518-.547C378.747,445.283,378.73,444.591,378.73,443.9Z"
      transform="translate(-112.001 -47.86)" fill="#ddb317" />
    <path id="Path_26" data-name="Path 26"
      d="M213.657,443.93c0,.693-.014,1.386.005,2.078.01.349-.068.522-.468.514q-1.614-.034-3.228,0c-.4.009-.459-.164-.467-.511a4.673,4.673,0,0,1,3.616-4.577c.39-.084.572-.044.55.419C213.633,442.542,213.657,443.236,213.657,443.93Z"
      transform="translate(-43.993 -47.86)" fill="#deb317" />
    <path id="Path_27" data-name="Path 27"
      d="M374.421,443.919c0,.693-.022,1.386.008,2.078.018.416-.137.532-.536.523-1.051-.023-2.1-.016-3.155,0-.316,0-.455-.064-.477-.428a4.7,4.7,0,0,1,3.676-4.674c.39-.071.507.034.492.425C374.4,442.534,374.421,443.227,374.421,443.919Z"
      transform="translate(-108.598 -47.86)" fill="#deb317" />
    <line id="Line_1" data-name="Line 1" x1="0.664" transform="translate(202.979 374.471)" fill="none" />
  </g>
</svg>