<svg xmlns="http://www.w3.org/2000/svg" width="159.012" height="113.604" viewBox="0 0 159.012 113.604">
  <path id="Path_3728" data-name="Path 3728"
    d="M815.283-340.3H776.922c-.113.209-.242.434-.358.666-3.1,6.191-6.162,12.4-9.3,18.57a25.877,25.877,0,0,1-17.1,13.934,26.729,26.729,0,0,1-32.907-19.883,28.979,28.979,0,0,1-.638-8.008c.06-1.186.3-2.362.472-3.541q.536-3.763,1.079-7.525t1.068-7.527c.359-2.509.726-5.016,1.084-7.525s.705-5.019,1.063-7.527.724-5.016,1.089-7.524a49.65,49.65,0,0,1,4.409-14.429,51.589,51.589,0,0,1,34.311-27.8,49.583,49.583,0,0,1,11.749-1.4c15.35,0,30.7-.032,46.049.008a50.176,50.176,0,0,1,33.976,12.9A50.21,50.21,0,0,1,868.7-381.276a55.609,55.609,0,0,1,1.207,6.349c.349,2.51.712,5.018,1.07,7.527q.541,3.791,1.086,7.581.538,3.763,1.073,7.526.541,3.791,1.084,7.582c.358,2.509.728,5.016,1.069,7.527a26.394,26.394,0,0,1-7.4,22.952,25.724,25.724,0,0,1-13.642,7.443A26.61,26.61,0,0,1,826.061-319c-.491-.806-.93-1.647-1.354-2.492q-4.565-9.1-9.114-18.218C815.5-339.9,815.4-340.079,815.283-340.3Zm-36.256-45.441h-6.79c-.757,0-1.514,0-2.271,0s-1.495-.009-2.3-.014v-11.305H756.346v6.778c0,.757,0,1.514,0,2.27s-.008,1.5-.013,2.3H745.026V-374.4H751.8c.757,0,1.514,0,2.271,0s1.5.008,2.3.013v11.307h11.322v-6.777c0-.757,0-1.514,0-2.27s.009-1.5.014-2.3h11.318Zm66.28-1.883a7.549,7.549,0,0,0-7.553,7.534,7.559,7.559,0,0,0,7.557,7.592,7.572,7.572,0,0,0,7.56-7.6A7.564,7.564,0,0,0,845.307-387.626Zm-15.119,15.149a7.549,7.549,0,0,0-7.583,7.561,7.564,7.564,0,0,0,7.539,7.556,7.573,7.573,0,0,0,7.588-7.511A7.559,7.559,0,0,0,830.188-372.477Zm-15.171-15.149a7.579,7.579,0,0,0-7.565,7.538,7.591,7.591,0,0,0,7.576,7.588,7.565,7.565,0,0,0,7.552-7.6A7.554,7.554,0,0,0,815.018-387.626Zm7.588-7.565a7.554,7.554,0,0,0,7.549,7.541,7.564,7.564,0,0,0,7.577-7.575,7.591,7.591,0,0,0-7.611-7.553A7.58,7.58,0,0,0,822.605-395.191Z"
    transform="translate(-716.576 419.835)" fill="#deb317" />
</svg>