<svg xmlns="http://www.w3.org/2000/svg" width="239.627" height="204.938" viewBox="0 0 239.627 204.938">
  <g id="Group_320" data-name="Group 320" transform="translate(-759.826 -286.136)">
    <path id="Path_3763" data-name="Path 3763" d="M858,374.066a1.259,1.259,0,0,0-.453.016c-5.164,2.26-5.138,2.249-2.541,7.327,2.222,4.343,4.351,8.733,6.577,13.075.536,1.044.455,1.62-.67,2.172-5.221,2.567-10.4,5.217-15.61,7.8-.951.472-2.006.782-2.378-.724-1.118-4.524-5.973-5.9-10.91-4.437-4.172,1.237-7.64,5.3-7.741,8.924-.068,2.427.816,4.366,3.045,5.275,5.937,2.422,4.451,8,.9,10.933a11.179,11.179,0,0,1-8.609,2.792,5.576,5.576,0,0,1-4.928-3.7c-1-2.549-1.821-2.879-4.155-1.714-4.929,2.458-9.875,4.883-14.75,7.446-1.462.769-2.206.816-3-.856-2.358-4.975-4.889-9.87-7.362-14.791-.62-1.235-.924-2.227.789-2.969,4.107-1.778,5.444-4.472,4.511-9.184a11.487,11.487,0,0,0-6.862-8.794,5.7,5.7,0,0,0-7.482,2.3c-.342.516-.659,1.051-.978,1.583a4.909,4.909,0,0,1-6.53,2.306c-4.057-1.534-7.307-7.34-6.427-11.592a5.629,5.629,0,0,1,3.795-4.584c2.444-.85,2.78-1.857,1.593-4.239-2.524-5.069-5.034-10.146-7.651-15.166-.616-1.182-.459-1.665.713-2.236,5.161-2.514,10.278-5.116,15.415-7.68,1.013-.505,1.857-.986,2.565.622,2.005,4.55,5.822,6.1,10.67,4.533,4.521-1.457,7.866-5.312,7.958-9.031a5.585,5.585,0,0,0-3.076-5.314c-5.036-2.959-5.381-6.781-1.01-10.773a10.944,10.944,0,0,1,9.71-2.66,4.829,4.829,0,0,1,3.851,3.333c1.041,2.842,1.786,3.109,4.482,1.764,4.932-2.456,9.864-4.91,14.766-7.424,1.272-.653,1.956-.644,2.666.84,2.4,5.03,4.968,9.983,7.508,14.948.664,1.3.894,2.312-.892,2.832-3.358.979-4.585,3.568-4.61,6.736-.025,3.117.53,6.139,3.322,8.18l-.031-.021c1.205,2.639,3.569,3.428,6.152,3.595a5.242,5.242,0,0,0,5.136-2.849c2.975-4.978,4.926-5.339,10.082-2.188.32.2.634.467,1,.084l-.022-.022c-.455.484-.045.846.208,1.181,2.933,3.877,3.632,7.967,1.214,12.365Z" transform="translate(0 -7.652)" fill="#deb317"/>
    <path id="Path_3764" data-name="Path 3764" d="M849.779,354.288c.311-1.647-1.183-2.515-1.7-3.826-1.9-4.878-.976-7.672,3.638-9.948,1.875-.924,2.036-2.358,1.191-4.061-2.479-5-4.913-10.018-7.5-14.958-.735-1.4-.747-2.015.818-2.743,4.979-2.316,9.88-4.8,14.8-7.234,1.111-.549,2.215-.763,2.59.727.825,3.283,3.089,4.64,6.215,4.9,6.237.514,12.731-4.856,12.219-9.983a5.569,5.569,0,0,0-3.027-4.834c-4.8-2.57-5.355-6.894-1.24-10.542,2.97-2.634,6.407-3.99,10.471-2.744a5.058,5.058,0,0,1,3.37,3.261c1,2.592,2.062,2.961,4.593,1.692,4.92-2.467,9.872-4.874,14.736-7.446,1.459-.772,1.975-.456,2.638.924,2.413,5.027,4.922,10.01,7.478,14.965.669,1.3.628,2.08-.775,2.77-4.387,2.159-5.479,4.414-4.646,9.312.811,4.78,5.1,9.058,9.157,9.19a5.546,5.546,0,0,0,5.237-2.752c3.641-5.7,8.693-5.484,12.338.5a10.218,10.218,0,0,1,1.456,7.558,5.355,5.355,0,0,1-3.755,4.324c-2.376.756-2.764,1.656-1.634,3.933,2.514,5.064,5.018,10.134,7.65,15.136.73,1.387.5,1.915-.876,2.576-5.1,2.455-10.129,5.053-15.195,7.578-.886.442-1.769,1.035-2.5-.379-2.5-4.816-5.687-6.295-10.647-4.687-3.673,1.19-6.6,3.414-7.769,7.342a5.566,5.566,0,0,0,2.634,6.761c5.517,3.372,5.557,7.887.223,11.714a10.879,10.879,0,0,1-8.1,2.032,5.171,5.171,0,0,1-4.5-3.489c-.99-2.709-1.918-3.068-4.539-1.767-4.722,2.344-9.457,4.668-14.113,7.136-1.557.825-2.18.561-2.926-1.01-2.393-5.037-4.941-10-7.488-14.965-.682-1.329-.6-2.072.981-2.548,1.076-.325,2.384-.674,2.277-2.288l-.039.02c1.2.548,1.213-.6,1.493-1.147,2.11-4.1.1-10.36-2.916-12.4l.022.022c-2.286-2.9-5.826-3.948-8.817-2.242a8.078,8.078,0,0,0-2.859,3.213c-2.04,3.457-4.682,4.089-8.079,1.976-.865-.538-1.44-1.571-2.618-1.589Z" transform="translate(-15.559)" fill="#deb317"/>
    <path id="Path_3765" data-name="Path 3765" d="M971.2,378.353c1.821.008,3.567,1.18,4.683,3.951.9,2.231,1.927,2.66,4.146,1.569,5.151-2.531,10.294-5.078,15.4-7.7,1.055-.542,1.487-.507,2.037.633q3.587,7.429,7.377,14.761c.824,1.6.994,2.55-1.173,3.182-2.785.812-3.845,3.23-4.206,5.884-.58,4.259,2.264,9.677,6.05,11.782,3.52,1.957,7.243,1.044,9.247-2.269,2.889-4.772,6.68-5.146,10.361-.878,2.369,2.747,3.65,5.933,2.621,9.637a5.116,5.116,0,0,1-3.317,3.629c-2.543.924-3.017,2.1-1.788,4.6,2.391,4.869,4.8,9.731,7.3,14.543.712,1.37.72,2.031-.855,2.771-4.91,2.311-9.725,4.823-14.584,7.241-.9.447-1.767,1.013-2.533-.351-2.722-4.842-4.891-5.84-10.1-4.8-4.833.963-8.908,5.256-8.982,9.388a5.769,5.769,0,0,0,2.985,5.383c5.2,3.2,5.461,7.283.54,11.007-2.505,1.9-5.359,3.087-8.672,2.2a5.386,5.386,0,0,1-3.98-3.528c-.917-2.492-1.983-2.9-4.45-1.7-4.951,2.408-9.9,4.829-14.774,7.386-1.49.782-2.089.48-2.773-.939-2.354-4.89-4.823-9.724-7.249-14.579-.5-1-1.109-1.87.552-2.559,3.851-1.6,5.383-4.047,4.982-8.126a12.071,12.071,0,0,0-6.332-9.969c-3.529-1.934-6.863-.968-8.947,2.453-2.935,4.816-6.292,5.12-10.211.989a11.7,11.7,0,0,1-3.13-7.569c-.184-2.908,1.339-4.883,4.172-5.988,2.082-.811,2.537-1.9,1.527-3.94-2.514-5.071-5.027-10.143-7.627-15.169-.651-1.258-.746-1.88.761-2.59,5.05-2.38,10.014-4.943,15.012-7.435.819-.409,1.541-1.031,2.273.3,2.916,5.291,6.483,6.605,12.043,4.358,3.117-1.26,5.628-3.309,6.712-6.657,1.071-3.306.016-5.929-2.979-7.685-4.5-2.639-4.953-6.516-1.108-10.092C964.377,379.457,966.944,378.284,971.2,378.353Z" transform="translate(-30.938 -16.4)" fill="#deb317"/>
    <path id="Path_3766" data-name="Path 3766" d="M901.67,453.886c-.02,3.1-1,4.6-3.768,5.742-2.506,1.032-2.91,2.043-1.694,4.5,2.476,5.007,4.927,10.026,7.517,14.974.7,1.335.406,1.788-.843,2.389q-7.45,3.585-14.8,7.38c-1.461.753-2.187.613-2.643-1.07-.772-2.846-3.057-3.983-5.7-4.405a12.8,12.8,0,0,0-12.257,6.024c-2,3.62-1.121,7.462,2.577,9.3,4.948,2.462,4.052,6.586,1.367,9.455a11.823,11.823,0,0,1-7.779,3.729,5.856,5.856,0,0,1-6.111-3.682c-1.025-2.657-2.009-3.083-4.611-1.808-5.018,2.459-10.028,4.938-15,7.5-1.1.569-1.578.644-2.192-.639-2.411-5.032-4.975-9.991-7.468-14.984-.443-.888-1.07-1.733.4-2.46,4.4-2.174,5.547-4.095,5-8.749a11.674,11.674,0,0,0-6.511-9.587c-3.542-1.786-6.729-.787-8.74,2.59-2.639,4.434-6.107,4.966-9.761,1.357a10.589,10.589,0,0,1-3.33-9.049,5.052,5.052,0,0,1,3.623-4.646c2.519-.816,2.994-2.056,1.819-4.432-2.371-4.794-4.692-9.618-7.248-14.313-1.008-1.85-.6-2.543,1.161-3.372,4.771-2.251,9.452-4.689,14.173-7.046.909-.454,1.7-1.024,2.381.506,1.837,4.1,4.224,5.5,8.619,4.982a11.877,11.877,0,0,0,10.009-7c1.508-3.271.51-6.281-2.512-8.234-5.208-3.366-5.152-7.939.176-11.3a10.167,10.167,0,0,1,7.5-1.8,5.3,5.3,0,0,1,4.4,3.652c.9,2.572,1.936,2.96,4.421,1.732,5.008-2.474,10.011-4.958,14.972-7.524,1.232-.637,1.806-.579,2.456.77q3.534,7.339,7.329,14.55c.9,1.708.575,2.385-1.258,2.947a5.791,5.791,0,0,0-3.968,4.761,12.519,12.519,0,0,0,5.995,13.1,6.347,6.347,0,0,0,9.043-2.3c2.877-4.785,6.331-5.169,10.2-1.1A10.805,10.805,0,0,1,901.67,453.886Z" transform="translate(-7.89 -23.232)" fill="#deb317"/>
  </g>
</svg>
