<svg xmlns="http://www.w3.org/2000/svg" width="239.924" height="165.481" viewBox="0 0 239.924 165.481">
  <g id="Group_325" data-name="Group 325" transform="translate(-1581.439 -154.615)">
    <path id="Path_3826" data-name="Path 3826" d="M1785.648,331.4H1745.57c-2.541,0-2.55,0-2.55-2.6q0-21.879,0-43.759c0-1.9-.342-3.8-.325-5.691.04-4.264.24-8.525.3-12.789.018-1.214-.313-2.432-.3-3.647q.121-13.477.36-26.953a3.274,3.274,0,0,1,.971-1.969c6.4-6.511,12.851-12.974,19.28-19.459q10.6-10.7,21.191-21.405c1.295-1.308,1.416-1.314,2.7-.011q15.859,16.038,31.714,32.078c2.809,2.841,5.667,5.636,8.4,8.551a4.122,4.122,0,0,1,.987,2.525c.093,4.588-.02,9.179.063,13.767.045,2.472.466,4.938.5,7.409.074,6.313.283,12.641-.028,18.94-.878,17.777-.3,35.56-.488,53.338-.016,1.5-.2,1.671-1.932,1.671Q1806.029,331.4,1785.648,331.4Zm-.051-4.394v0h28.35c2.128,0,2.132,0,2.133-2.076,0-10.631.041-21.263-.017-31.893-.019-3.47-.345-6.937-.434-10.408q-.116-4.546,0-9.1c.066-2.466.42-4.926.435-7.389.01-1.745-.5-3.493-.481-5.237.035-2.742.4-5.479.483-8.222.092-3.086.025-6.178.021-9.267,0-2.964,0-2.936-3-2.94-7.178-.01-14.355-.07-21.533-.069-8.174,0-16.349.052-24.523.073-3.36.009-6.721.029-10.081-.03-1.326-.023-1.727.518-1.679,1.789q.3,7.938.474,15.881c.062,2.674.024,5.352.03,8.027.006,2.393.077,4.787,0,7.178-.115,3.794-.455,7.585-.472,11.378-.058,13.494-.022,26.987-.018,40.48,0,1.811.01,1.824,1.821,1.825Q1771.354,327.013,1785.6,327.008Zm10.205-99.683a10.192,10.192,0,0,0-10.01-10.138,10.2,10.2,0,0,0-.05,20.389A10.241,10.241,0,0,0,1795.8,227.325Z" transform="translate(-84.424 -19.65)" fill="#deb317"/>
    <path id="Path_3827" data-name="Path 3827" d="M1631.454,380.98q-15.333,0-30.664,0c-1.977,0-2.057-.085-2.057-2.085q0-21.6-.008-43.2c0-.63-.156-1.261-.158-1.892-.005-1.521.041-3.042.061-4.563.026-1.95.088-3.9.053-5.848-.021-1.171-.266-2.337-.288-3.508-.046-2.387-.032-4.775,0-7.162.1-8.073.242-16.147.325-24.221.012-1.255.533-1.649,1.732-1.648q31.005.032,62.01.022c1.7,0,1.981.279,2.015,1.824.16,7.383.371,14.764.458,22.147.077,6.541.35,13.1-.057,19.621-.823,13.2-.121,26.4-.388,39.6-.061,3.041-.014,6.085-.006,9.128,0,1.557-.211,1.792-1.818,1.793q-15.6.006-31.209,0Zm1.836-47.071q0,18.264,0,36.528c0,1.776.01,1.78,1.85,1.781q11.381,0,22.762,0c1.765,0,1.814-.052,1.834-1.846,0-.364.007-.727,0-1.091-.3-19.017.589-38.042-.432-57.055-.071-1.33.4-2.682.421-4.026.062-3.542.025-7.087.01-10.631-.008-1.8-.131-1.909-1.973-1.91q-11.177,0-22.354.007c-2.12,0-2.12.011-2.12,2.119Q1633.29,315.851,1633.29,333.91Zm-29.944,18.85h.013c0,5.907.025,11.814-.02,17.72-.01,1.248.316,1.78,1.678,1.77q11.586-.083,23.172-.007c1.387.01,1.69-.543,1.677-1.776-.046-4.271.086-8.545-.038-12.812-.255-8.731.378-17.457-.455-26.208-.591-6.209-.147-12.521-.085-18.786.011-1.1.6-2.194.613-3.294.054-4-.087-8-.014-11.991.025-1.376-.453-1.72-1.723-1.715-7.678.036-15.357.012-23.036.017-1.638,0-1.827.135-1.752,1.8.189,4.2-.441,8.409.418,12.606.256,1.252-.33,2.654-.357,3.992-.038,1.849.108,3.7.135,5.552.022,1.474-.033,2.95-.022,4.425.012,1.7.069,3.4.086,5.1.015,1.479.024,2.959-.014,4.437-.013.485-.263.965-.264,1.447C1603.339,340.946,1603.346,346.853,1603.346,352.76Z" transform="translate(-8.861 -69.23)" fill="#deb317"/>
    <path id="Path_3828" data-name="Path 3828" d="M1961.505,380.982q-15.405,0-30.809,0c-1.992,0-2.054-.07-2.054-2.083q0-22.084-.01-44.169c0-1.707-.456-3.414-.43-5.118.069-4.578.316-9.152.419-13.729.025-1.114-.352-2.236-.339-3.352.09-7.985.257-15.969.338-23.954.014-1.333.543-1.734,1.794-1.732q31.013.033,62.027.025c1.673,0,1.932.283,1.934,2.023.005,5.771-.038,11.543.018,17.313.029,3.031.653,6.12.246,9.077-.6,4.349.386,8.6.121,12.892-.083,1.346-.362,2.687-.365,4.03q-.043,23.311-.025,46.622c0,1.993-.156,2.147-2.191,2.147h-30.673Zm-28.36-38.221h.012q0,13.76,0,27.521c0,1.863.082,1.935,1.9,1.936q11.172,0,22.344,0c2.306,0,2.319,0,2.306-2.349-.084-14.526-.2-29.052-.245-43.578-.013-4.49.235-8.98.273-13.47.044-5.177-.033-10.354-.008-15.531.006-1.265-.531-1.64-1.731-1.635-7.674.03-15.35,0-23.025.009-1.705,0-1.817.127-1.82,1.9q-.012,8.978-.01,17.956Q1933.144,329.14,1933.145,342.762Zm29.953,9.531q0,8.995,0,17.989c0,1.925.006,1.932,1.987,1.933q11.107,0,22.215,0c2.247,0,2.272.005,2.241-2.21-.228-16.065.438-32.134-.324-48.2-.116-2.425.4-4.872.413-7.31.038-5.722-.072-11.445-.068-17.168,0-1.215-.392-1.691-1.655-1.685-7.632.041-15.264.017-22.9.023-1.81,0-1.945.1-1.9,1.946.116,4.659.313,9.316.428,13.974.062,2.493.073,4.99.017,7.484-.125,5.622-.366,11.241-.447,16.863C1963.032,341.389,1963.094,346.841,1963.1,352.293Z" transform="translate(-181.546 -69.228)" fill="#deb317"/>
    <path id="Path_3829" data-name="Path 3829" d="M1822.538,213.447c-1.963,0-3.284-1.114-4.519-2.358-3.038-3.062-6.05-6.151-9.085-9.216q-16.2-16.359-32.4-32.705c-1.419-1.43-1.442-1.406-2.867.032q-20.76,20.951-41.523,41.9c-2.129,2.148-4.536,2.813-6.619,1.841a5.455,5.455,0,0,1-1.59-9.052c2.849-2.927,5.729-5.825,8.6-8.727q19.035-19.218,38.077-38.431c1.93-1.946,4.183-2.762,6.794-1.539a9.05,9.05,0,0,1,2.488,1.845q19,19.147,37.955,38.338c2.811,2.84,5.658,5.645,8.432,8.52a5.419,5.419,0,0,1-1.414,8.91A12.253,12.253,0,0,1,1822.538,213.447Z" transform="translate(-73.682 0)" fill="#deb317"/>
    <path id="Path_3830" data-name="Path 3830" d="M1701.85,490.684q56.909,0,113.816.007c1.5,0,3,.094,4.493.15a1.04,1.04,0,0,1,.532.078c1.455,1.064.517,2.584.686,3.888.109.84-.527,1.178-1.322,1.183-.772.005-1.545.023-2.317.023l-232.677,0c-.273,0-.546,0-.818,0-1.906-.031-2.021-.226-2.052-2.136-.06-3.578-.1-3.237,3.391-3.237q58.135,0,116.27,0Z" transform="translate(-0.386 -175.917)" fill="#deb317"/>
    <path id="Path_3831" data-name="Path 3831" d="M1614.59,269.456l-30.932,0c-2.077,0-2.215-.144-2.216-2.266,0-1.908,0-3.815,0-5.723.009-1.849.177-2.016,2.031-2.016q22.347,0,44.695,0,7.9,0,15.807,0c1.76,0,1.922.2,1.608,1.881a8.75,8.75,0,0,0,1.2,6.132,13.182,13.182,0,0,1,.686,1.667,10.589,10.589,0,0,1-1.815.315Q1630.123,269.472,1614.59,269.456Z" transform="translate(0 -54.885)" fill="#deb317"/>
    <path id="Path_3832" data-name="Path 3832" d="M1945.787,269.268a8.566,8.566,0,0,1,.658-1.359,8.5,8.5,0,0,0,1.544-6.57c-.235-1.719-.087-1.889,1.658-1.889q30.249,0,60.5,0c1.8,0,1.962.166,1.968,1.932q.01,3,0,6c0,1.874-.211,2.082-2.137,2.082q-26.91,0-53.821-.007c-2.862,0-5.723.007-8.584-.009C1947.051,269.443,1946.531,269.346,1945.787,269.268Z" transform="translate(-190.753 -54.885)" fill="#deb317"/>
    <path id="Path_3833" data-name="Path 3833" d="M1802.379,380.249q-12.542,0-25.083,0c-2.039,0-2.12-.075-2.12-2.033,0-12.132.167-24.268-.108-36.394A70.614,70.614,0,0,1,1775.1,333a83.2,83.2,0,0,0,.051-10.079c-.026-1.243-.489-2.484-.467-3.721.109-5.926.342-11.849.47-17.775.032-1.491.919-1.509,2-1.509q23.515.016,47.03.009c1.363,0,2.727.023,4.089-.009,1.1-.025,1.553.469,1.543,1.562-.027,2.954-.041,5.908.007,8.861.036,2.171.258,4.34.252,6.509-.007,2.579-.216,5.156-.254,7.735-.05,3.389-.023,6.779-.023,10.169q0,21.915.028,43.83c0,1.379-.614,1.686-1.826,1.682C1819.464,380.237,1810.921,380.25,1802.379,380.249Zm12.821-4.123v-.007c3,0,5.992-.042,8.986.02,1.266.026,1.79-.375,1.78-1.708q-.068-8.986,0-17.973c.009-1.213-.382-1.715-1.639-1.708q-9.191.054-18.382,0c-1.083,0-1.563.387-1.558,1.514q.04,9.191,0,18.382c-.005,1.127.451,1.509,1.552,1.492C1809.026,376.1,1812.113,376.126,1815.2,376.126Zm-25.514-.01v0c3.135,0,6.271-.022,9.405.013.976.01,1.419-.348,1.417-1.341q-.018-9.338,0-18.676c0-.994-.436-1.367-1.406-1.365q-9.338.028-18.676,0c-1,0-1.35.449-1.347,1.415q.029,9.269,0,18.539c0,1.061.428,1.436,1.471,1.422C1783.6,376.089,1786.641,376.116,1789.686,376.116Zm14.721-61.279h-.028c0,3.04-.007,6.08.006,9.12,0,.613-.121,1.338.867,1.37,2.169.07,4.339.243,6.508.225,4.212-.036,8.423-.215,12.635-.247,1.184-.009,1.7-.381,1.566-1.571-.195-1.783-.486-3.566-.516-5.353-.02-1.24.458-2.483.49-3.731.074-2.947-.025-5.9.03-8.847.022-1.165-.376-1.641-1.556-1.636q-9.257.039-18.513,0c-1.114,0-1.52.444-1.5,1.549C1804.437,308.757,1804.406,311.8,1804.406,314.837Zm-14.512-10.661c-3.042,0-6.085.049-9.126-.023-1.325-.031-1.731.46-1.695,1.746.122,4.353.18,8.708.209,13.062.011,1.675-.069,3.355-.2,5.025-.1,1.3.458,1.722,1.662,1.589a25.376,25.376,0,0,1,3.235-.276c1.717.034,3.433.325,5.146.306,3.257-.036,6.511-.23,9.767-.32.785-.021,1.164-.281,1.182-1.1q.2-9.317.447-18.632c.03-1.111-.5-1.4-1.5-1.388C1795.979,304.191,1792.937,304.173,1789.894,304.176Zm25.3,46.487c3.045,0,6.09-.033,9.134.016,1.227.02,1.74-.418,1.639-1.675-.245-3.056.1-6.106-.409-9.2-.418-2.553.265-5.279.381-7.931.086-1.955-.033-2.2-1.988-2.271-4.4-.154-8.808-.13-13.213-.16-.306,0-.609.2-.92.217a13.265,13.265,0,0,1-4,.148c-1.444-.366-1.437.232-1.435,1.224.016,6.043.043,12.087.014,18.13-.006,1.143.447,1.528,1.53,1.517C1809.01,350.644,1812.1,350.664,1815.19,350.664Zm-25.347,0v.006c3,0,5.994-.054,8.988.025,1.319.035,1.715-.422,1.7-1.721-.053-5.666-.015-11.333-.011-17,0-1.7-.265-1.975-1.971-1.979-4.676-.01-9.353.016-14.029-.031a9.444,9.444,0,0,1-2.628-.461c-2.018-.62-2.8-.1-2.8,1.985,0,5.855.032,11.71-.021,17.564-.011,1.26.412,1.662,1.647,1.635C1783.759,350.62,1786.8,350.665,1789.844,350.665Z" transform="translate(-101.175 -76.071)" fill="#deb317"/>
    <path id="Path_3834" data-name="Path 3834" d="M1698.443,347.187q0,16.561,0,33.123c0,1.651-.168,1.819-1.782,1.821q-8.179.011-16.357,0c-1.646,0-1.766-.118-1.765-1.808.005-12.222.035-24.444.028-36.666,0-5.906-.093-11.812-.1-17.718-.008-4.088.087-8.176.059-12.264-.009-1.312.483-1.745,1.771-1.733,5.406.05,10.814.022,16.22.029,1.757,0,1.94.192,1.94,1.962q0,16.628,0,33.256Zm-15.281,14.567h.008c0,4.768.041,9.536-.026,14.3-.019,1.343.477,1.744,1.745,1.705,2.269-.069,4.54-.021,6.81-.023,2.036,0,2.086,0,2.036-2.034-.254-10.287.4-20.576-.391-30.87-.416-5.415-.045-10.891-.026-16.339.006-1.722-.02-3.445.049-5.165.075-1.845.241-3.686.377-5.528.076-1.024-.315-1.476-1.407-1.452q-3.881.083-7.764,0c-1.076-.021-1.461.4-1.41,1.443.114,2.353.217,4.707.244,7.062.04,3.5-.028,6.993.019,10.489.039,2.939.251,5.877.239,8.815-.007,1.6-.451,3.192-.478,4.791C1683.114,353.216,1683.162,357.485,1683.162,361.753Z" transform="translate(-50.795 -82.367)" fill="#deb317"/>
    <path id="Path_3835" data-name="Path 3835" d="M1615.429,363.979c0-5.086.043-10.173-.014-15.258-.05-4.392-.255-8.782-.306-13.175-.019-1.576.3-3.154.3-4.732,0-1.531-.32-3.065-.3-4.594.058-4.3.223-8.6.337-12.907.026-.983.544-1.339,1.483-1.336q8.446.024,16.894,0c1.185,0,1.632.558,1.627,1.663-.01,2.225-.045,4.452.016,6.675.038,1.391.347,2.779.339,4.167q-.146,27.909-.355,55.817c-.012,1.634-.22,1.847-1.786,1.85q-8.242.014-16.485,0c-1.625,0-1.743-.129-1.746-1.825Q1615.421,372.153,1615.429,363.979Zm4.656-16.9h-.018c0,9.672.017,19.344-.021,29.016,0,1.237.4,1.718,1.642,1.683,2.087-.059,4.177-.012,6.266-.011,2.705,0,2.714,0,2.714-2.635q0-22.409-.015-44.818c0-1.482-.276-2.962-.351-4.446-.052-1.031,0-2.07.044-3.1.08-1.8.244-3.6.241-5.4,0-.324-.58-.8-.982-.932a5.327,5.327,0,0,0-1.62-.028c-1.927.013-3.863.142-5.78.007-1.789-.126-2.117.021-2.118,1.793Q1620.081,332.636,1620.085,347.075Z" transform="translate(-17.627 -82.387)" fill="#deb317"/>
    <path id="Path_3836" data-name="Path 3836" d="M1945.722,358.882q0-10.7,0-21.4,0-11.7-.012-23.4c0-1.964.13-2.086,2.083-2.087q7.905,0,15.811-.009c1.8,0,2.026.244,2.031,2.061.027,8.313.077,16.626.074,24.938q-.007,20.639-.07,41.279c0,1.71-.172,1.888-1.86,1.891q-8.109.013-16.219,0c-1.724,0-1.841-.122-1.843-1.878q-.01-10.7,0-21.4Zm4.5-2.364h.085q0,9.673,0,19.346c0,1.809.1,1.9,1.949,1.9q3.2.009,6.4,0c2.167,0,2.216,0,2.175-2.2-.2-10.466.354-20.935-.3-31.4-.241-3.821.317-7.686.363-11.532.06-4.994-.038-9.989-.041-14.984,0-.938-.387-1.285-1.312-1.271-2.5.038-5,.076-7.492,0-1.274-.039-1.629.378-1.8,1.673-.319,2.489.7,4.806.641,7.206-.1,3.887-.576,7.766-.643,11.653C1950.138,343.443,1950.22,349.982,1950.22,356.519Z" transform="translate(-190.713 -82.391)" fill="#deb317"/>
    <path id="Path_3837" data-name="Path 3837" d="M2008.131,364.353c0-5.27.031-10.539-.02-15.808-.014-1.39-.428-2.78-.406-4.166.081-5.023.308-10.045.392-15.068.023-1.39-.4-2.789-.378-4.179.069-3.937.272-7.872.4-11.809.03-.9.429-1.319,1.342-1.313,5.723.041,11.446.051,17.169.109,1.193.012,1.784.687,1.782,1.924-.017,10.221.39,20.462-.126,30.656-.586,11.568-.084,23.12-.35,34.676-.064,2.789-.012,2.792-2.869,2.794l-14.99.006c-1.9,0-1.957-.057-1.958-2.013q0-7.9,0-15.808Zm15.1-17.266q0-2.248,0-4.5,0-12.2.005-24.393c0-1.8-.01-1.8-1.837-1.794-2.408,0-4.817.055-7.222-.018-1.208-.037-1.625.41-1.556,1.582.137,2.349.277,4.7.277,7.055s-.261,4.709-.247,7.063c.028,4.431.191,8.861.251,13.293.012.9-.269,1.8-.27,2.7-.016,9.449.008,18.9-.012,28.346,0,1.012.388,1.373,1.365,1.36,2.407-.031,4.815,0,7.222-.009,2.013,0,2.021-.011,2.022-2.066Q2023.231,361.4,2023.228,347.087Z" transform="translate(-223.17 -82.403)" fill="#deb317"/>
  </g>
</svg>
