<svg xmlns="http://www.w3.org/2000/svg" width="158.071" height="157.703" viewBox="0 0 158.071 157.703">
  <g id="Group_312" data-name="Group 312" transform="translate(-844.395 -513.085)">
    <path id="Path_3697" data-name="Path 3697" d="M899.961,701.822a2.893,2.893,0,0,0-1.565-2.806c-1.69-.981-3.387-2.005-4.959-3.118-3.17-2.241-6.426-4.345-9.655-6.5-3.246-2.2-6.518-4.362-9.727-6.61a2.923,2.923,0,0,0-3.735.043q-12.08,8.127-24.223,16.156a3.4,3.4,0,0,0-1.661,3.246c.052,7.7.1,15.4-.039,23.1-.039,2.258.686,3.649,2.767,4.381a1.032,1.032,0,0,0,.2.253q11.7,7.827,23.4,15.654a2.464,2.464,0,0,0,3.029-.062c4.542-3.032,9.107-6.032,13.649-9.068,1.4-.932,1.743-2.209.988-3.315s-1.966-1.218-3.443-.253c-3.065,2-6.114,4.02-9.179,6.019-.351.23-.7.742-1.126.538-.525-.253-.282-.88-.286-1.332-.03-5.2.112-10.393-.108-15.579a4.616,4.616,0,0,1,2.563-4.8c5.934-3.672,11.657-7.679,17.472-11.539.338-.223.666-.732,1.129-.476.446.25.22.794.22,1.2.01,4.595-.01,9.186,0,13.777.007,1.808.732,2.724,2.1,2.773,1.421.053,2.182-.9,2.182-2.822C899.964,714.395,899.915,708.11,899.961,701.822Zm-29.933,38.039c-6.58-4.339-12.953-8.543-19.327-12.743-1.8-.811-2.071-2.255-2.035-4.1.112-5.385.033-10.777.03-16.166,0-.423.039-.843.072-1.51l12.333,8.109c2.7,1.838,5.379,3.7,8.1,5.5a1.527,1.527,0,0,1,.843,1.424C870.018,726.761,870.028,733.137,870.028,739.862Zm14.4-49.224c-.062-.062-.121-.128-.181-.194-.049-.043-.1-.089-.148-.135v0s.007,0,.01-.007c.046.049.089.1.138.144.066.062.128.121.194.181.046.052.092.1.138.154C884.527,690.733,884.474,690.687,884.425,690.638Z" transform="translate(0 -122.202)" fill="#deb317"/>
    <path id="Path_3698" data-name="Path 3698" d="M965.518,707.154c-.049-.043-.1-.089-.148-.135v0s.007,0,.01-.007C965.426,707.059,965.469,707.105,965.518,707.154Z" transform="translate(-85.157 -136.567)" fill="#deb317"/>
    <path id="Path_3699" data-name="Path 3699" d="M1082.253,532.6a2.656,2.656,0,0,0-1.3-2.455c-1.093-.712-2.278-1.3-3.311-2.054-3.561-2.606-7.305-4.929-10.987-7.351-.341-.263-.669-.548-1.03-.788-3.019-2.022-6.081-3.981-9.055-6.068a3.074,3.074,0,0,0-4.014-.1c-4.8,3.38-9.763,6.541-14.6,9.885-3.21,2.218-6.527,4.325-9.835,6.422a2.508,2.508,0,0,0-1.382,2.241c.007,6.5-.03,13-.013,19.494,0,1.638.833,2.56,2.113,2.566,1.323.007,2.1-.978,2.107-2.721.007-4.588-.01-9.176,0-13.764,0-.456-.2-.968.282-1.513q6.7,4.4,13.393,8.792c1.969,1.316,3.915,2.665,5.91,3.941a3.087,3.087,0,0,1,1.789,2.914c-.1,5.628-.036,11.257-.052,16.888a2.415,2.415,0,0,1-.249,1.621c-.286-.151-.525-.259-.742-.4-3.223-2.12-6.436-4.256-9.668-6.363-1.345-.88-2.632-.729-3.331.312-.715,1.067-.4,2.314.9,3.216,1.493,1.04,3.026,2.025,4.545,3.032,3.091,2.051,6.2,4.086,9.271,6.16a2.392,2.392,0,0,0,3.019-.023c1.5-1.073,2.973-2.255,4.536-3.17,3.242-1.9,6.272-4.109,9.442-6.107a2.1,2.1,0,0,0,.686-3.118,2.042,2.042,0,0,0-3.029-.515c-1.7,1.08-3.318,2.291-5,3.4-1.88,1.231-3.794,2.409-5.973,3.787v-2.278c0-5.517.039-11.037-.03-16.557a2.5,2.5,0,0,1,1.27-2.4c4.637-3.046,9.242-6.144,13.862-9.215,1.972-1.309,3.958-2.606,6.206-4.083,0,.962,0,1.552,0,2.143-.007,4.483-.03,8.963-.02,13.442,0,1.647.765,2.55,2.084,2.6,1.391.049,2.2-.873,2.2-2.635C1082.266,545.383,1082.23,538.99,1082.253,532.6Zm-39.329,10.154c.5-.161.929-.279,1.3.217C1043.669,543.447,1043.327,543.115,1042.924,542.751Z" transform="translate(-131.058 0)" fill="#deb317"/>
    <path id="Path_3700" data-name="Path 3700" d="M1082.194,874.261c-.046-6.183.748-4.407-4.2-7.761a74.622,74.622,0,0,0-8.657-5.54l-.049.03c-.138-.1-.279-.2-.42-.3-.755-.607-1.473-1.273-2.278-1.815-3.393-2.287-6.859-4.473-10.2-6.833a2.99,2.99,0,0,0-3.994.075c-3.384,2.534-6.951,4.814-10.472,7.128-4.5,2.96-8.94,6.029-13.528,8.854a3.337,3.337,0,0,0-1.723,3.219q.054,11.8-.02,23.606a3.409,3.409,0,0,0,1.125,2.895q12.686,8.536,25.378,17.065a2.517,2.517,0,0,0,3.032-.282q12.253-8.2,24.548-16.337a3.169,3.169,0,0,0,1.5-3.016C1082.211,888.255,1082.25,881.258,1082.194,874.261Zm-36.241,9.169c.03.03.059.062.089.1-.033.026-.069.049-.1.076-.039-.013-.079-.03-.115-.043C1045.865,883.516,1045.911,883.473,1045.953,883.43Zm6.265,24.9a3.009,3.009,0,0,1-.174.607c-3.334-2.215-6.6-4.362-9.845-6.55-3.781-2.557-7.7-4.916-11.335-7.676-.039-6.245.3-12.5-.194-18.742a1.406,1.406,0,0,1,.466-1.109c.4-.266.784.213,1.132.443,3.751,2.507,7.5,5.031,11.247,7.538a11.253,11.253,0,0,0,1.149.6c2.232,1.542,4.457,3.095,6.7,4.621a1.57,1.57,0,0,1,.889,1.414C1052.222,895.763,1052.228,902.048,1052.218,908.329Zm25.713-14.811c0,.706.043,1.346-.709,1.844-6.767,4.47-13.508,8.979-20.593,13.7,0-5.776.026-11.221-.02-16.668-.01-1.05.318-2.146-.289-3.177-.217-.368.177-.6.505-.814q9.875-6.5,19.734-13.016c.358-.233.85-.64,1.122-.538.561.207.256.86.259,1.309C1077.954,881.947,1077.935,887.733,1077.931,893.519Z" transform="translate(-131.007 -244.491)" fill="#deb317"/>
    <path id="Path_3701" data-name="Path 3701" d="M1264.468,702.084a3.4,3.4,0,0,0-1.8-3.361,55.846,55.846,0,0,1-5.943-3.636c-2.852-2.173-5.842-4.089-8.844-6.019l-.036.043c-.131-.118-.263-.24-.394-.358-3.088-2.333-6.366-4.381-9.606-6.491a2.154,2.154,0,0,0-2.589.125c-2.849,1.979-5.687,4-8.595,5.858-5.412,3.459-10.686,7.128-16.107,10.567a3.242,3.242,0,0,0-1.634,3.1c.056,6.222,0,12.448,0,18.67,0,1.818.693,2.7,2.1,2.7,1.431.007,2.156-.873,2.159-2.662,0-4.365-.016-8.733,0-13.1,0-.669-.351-1.6.335-1.93.541-.263,1.109.518,1.654.85,3.482,2.1,6.642,4.7,10.226,6.652,2.688,1.844,5.359,3.708,8.073,5.513a1.993,1.993,0,0,1,1.083,1.828q-.074,8.93-.059,17.86c0,1.323-.417,1.185-1.29.6-3.115-2.091-6.259-4.138-9.4-6.19-1.368-.9-2.53-.774-3.308.308a2.209,2.209,0,0,0,.84,3.216c4.621,3.091,9.264,6.147,13.892,9.232a2.273,2.273,0,0,0,3.006-.125,29.6,29.6,0,0,1,3.449-2.268c7.026-4.663,14.03-9.363,21.076-14a3.443,3.443,0,0,0,1.729-3.232Q1264.394,713.966,1264.468,702.084Zm-5.09,24q-10.023,6.641-20.052,13.281c-.075.053-.2.026-.459.053q0-4.9,0-9.773c0-3.059-.013-6.117-.007-9.173,0-.581-.062-1.122.594-1.556,6.82-4.513,13.613-9.064,20.708-13.8,0,6.784-.006,13.216.01,19.645A1.484,1.484,0,0,1,1259.378,726.084Z" transform="translate(-262.022 -122.029)" fill="#deb317"/>
    <path id="Path_3702" data-name="Path 3702" d="M965.38,707.01l-.01.01v0S965.377,707.013,965.38,707.01Z" transform="translate(-85.154 -136.562)" fill="#deb317"/>
    <path id="Path_3703" data-name="Path 3703" d="M992.814,822.334a2.14,2.14,0,0,1-3.2.269q-6.286-4.563-12.55-9.153c-1.8-1.319-3.561-2.681-5.343-4.023-3.013-2.156-6.052-4.28-9.032-6.482a2.144,2.144,0,1,1,2.517-3.452c2.75,1.992,5.458,4.046,8.182,6.075l.338.269.007.007v-.016q8.162,5.858,16.32,11.719c.709.509,1.437.991,2.12,1.536C993.4,820.057,993.677,821.323,992.814,822.334Z" transform="translate(-83.359 -202.802)" fill="#deb317"/>
    <path id="Path_3704" data-name="Path 3704" d="M998.487,819.88v.016l-.007-.007S998.483,819.883,998.487,819.88Z" transform="translate(-108.461 -216.046)" fill="#deb317"/>
    <path id="Path_3705" data-name="Path 3705" d="M1224.15,819.876l0-.026v.023Z" transform="translate(-267.31 -216.025)" fill="#deb317"/>
    <path id="Path_3706" data-name="Path 3706" d="M1226.3,822.977h-.007v-.007S1226.3,822.973,1226.3,822.977Z" transform="translate(-268.817 -218.221)" fill="#deb317"/>
    <path id="Path_3707" data-name="Path 3707" d="M1174.33,649.893q-8.2-5.956-16.432-11.86c-3.577-2.632-7.131-5.29-10.738-7.883a1.987,1.987,0,0,0-2.921.341,1.948,1.948,0,0,0,.358,3.013c3.19,2.452,6.406,4.867,9.763,7.089,5.8,4.273,11.585,8.562,17.4,12.806a2.219,2.219,0,0,0,3.213-.361A2.17,2.17,0,0,0,1174.33,649.893Zm-19.225-9.491a.32.32,0,0,1-.046-.1s-.007,0-.01-.007,0,0,0-.007h.006s0,.01.007.013c.043.043.089.085.131.125C1155.161,640.418,1155.122,640.422,1155.105,640.4Z" transform="translate(-212.794 -82.704)" fill="#deb317"/>
    <path id="Path_3708" data-name="Path 3708" d="M1178.313,662.043s-.006,0-.01-.007,0,0,0-.007h.007S1178.31,662.04,1178.313,662.043Z" transform="translate(-235.037 -104.887)" fill="#deb317"/>
    <path id="Path_3709" data-name="Path 3709" d="M1178.307,662.03l0,.007s0,0,0-.007Z" transform="translate(-235.036 -104.887)" fill="#deb317"/>
    <path id="Path_3710" data-name="Path 3710" d="M998.487,819.88v.016l-.007-.007S998.483,819.883,998.487,819.88Z" transform="translate(-108.461 -216.046)" fill="#deb317"/>
    <path id="Path_3711" data-name="Path 3711" d="M1195.62,799.745a2.184,2.184,0,0,0-3.1-.223c-2.5,1.825-4.975,3.7-7.456,5.546-.046.354-.305.436-.6.479a.484.484,0,0,0-.043.023l-.371.282,0,0,0-.026c-6.193,4.45-12.392,8.884-18.565,13.36a2.166,2.166,0,1,0,2.527,3.512c1.615-1.113,3.2-2.278,4.765-3.456,4.437-3.331,9.071-6.4,13.363-9.927l-.013-.036c.2-.886.833-1.122,1.641-1.109,1.29-.384,1.976-1.6,3.151-2.219a27.914,27.914,0,0,0,4.23-3.042A2.116,2.116,0,0,0,1195.62,799.745Zm-10.876,7.115c-.056.7-.476.732-1.04.568.213-.479.624-.528,1.04-.568v-.007s.007,0,.007.007Z" transform="translate(-227.554 -202.815)" fill="#deb317"/>
    <path id="Path_3712" data-name="Path 3712" d="M1224.153,819.85v.023l0,0Z" transform="translate(-267.31 -216.025)" fill="#deb317"/>
    <path id="Path_3713" data-name="Path 3713" d="M1013.467,630.567a1.959,1.959,0,0,0-2.881-.515c-1.972,1.332-3.827,2.832-5.733,4.263q-10.8,7.793-21.607,15.585a2.015,2.015,0,0,0-.65,2.967,2.068,2.068,0,0,0,3.128.561c5.907-4.3,11.782-8.648,17.666-12.979a.293.293,0,0,1-.016-.03c0-.085.007-.174.01-.259l.2.144c3.292-2.1,6.39-4.473,9.484-6.849A1.941,1.941,0,0,0,1013.467,630.567Zm-11.014,9.849c.043-.052.089-.105.131-.158l.03.026Z" transform="translate(-97.98 -82.684)" fill="#deb317"/>
    <path id="Path_3714" data-name="Path 3714" d="M1232.131,826.989a3.355,3.355,0,0,1-1.641,1.109C1230.687,827.212,1231.324,826.976,1232.131,826.989Z" transform="translate(-271.89 -221.116)" fill="#deb317"/>
    <path id="Path_3715" data-name="Path 3715" d="M1226.021,817.53c-.046.354-.305.437-.6.479C1225.62,817.848,1225.821,817.691,1226.021,817.53Z" transform="translate(-268.246 -214.417)" fill="#deb317"/>
    <path id="Path_3716" data-name="Path 3716" d="M1046.923,661.844a.162.162,0,0,1-.213.115c0-.085.007-.174.01-.259Z" transform="translate(-142.417 -104.662)" fill="#deb317"/>
    <path id="Path_3717" data-name="Path 3717" d="M1155.71,880.157c-.138-.1-.279-.2-.42-.3C1155.533,879.815,1155.713,879.858,1155.71,880.157Z" transform="translate(-218.863 -258.292)" fill="#deb317"/>
    <path id="Path_3718" data-name="Path 3718" d="M966.521,708.154c-.049-.046-.1-.092-.151-.141l.013-.013C966.429,708.052,966.475,708.1,966.521,708.154Z" transform="translate(-85.861 -137.265)" fill="#deb317"/>
    <path id="Path_3719" data-name="Path 3719" d="M965.38,707.01c.046.049.089.1.138.144-.049-.043-.1-.089-.148-.135Z" transform="translate(-85.157 -136.567)" fill="#deb317"/>
    <path id="Path_3720" data-name="Path 3720" d="M966.014,707.631l-.013.013c-.062-.062-.121-.128-.181-.194C965.886,707.512,965.948,707.571,966.014,707.631Z" transform="translate(-85.475 -136.879)" fill="#deb317"/>
    <path id="Path_3721" data-name="Path 3721" d="M1085.29,949.275c-.033.026-.069.049-.1.076-.039-.013-.079-.03-.115-.043.043-.043.089-.085.131-.128C1085.231,949.21,1085.26,949.242,1085.29,949.275Z" transform="translate(-169.421 -310.241)" fill="#deb317"/>
    <path id="Path_3722" data-name="Path 3722" d="M1077.38,603.411c-.555.479-.9.148-1.3-.217C1076.582,603.034,1077.009,602.916,1077.38,603.411Z" transform="translate(-163.139 -60.444)" fill="#deb317"/>
    <path id="Path_3723" data-name="Path 3723" d="M1044.071,662.026l-.161.131c.043-.052.089-.105.131-.158Z" transform="translate(-140.445 -104.87)" fill="#deb317"/>
    <path id="Path_3724" data-name="Path 3724" d="M1224.16,822.99c-.056.7-.476.732-1.04.568C1223.333,823.079,1223.744,823.029,1224.16,822.99Z" transform="translate(-266.658 -218.272)" fill="#deb317"/>
    <path id="Path_3725" data-name="Path 3725" d="M1226.293,822.977h0v-.007Z" transform="translate(-268.817 -218.221)" fill="#deb317"/>
    <path id="Path_3726" data-name="Path 3726" d="M1178.32,662.043s-.006,0-.01-.007l0-.007S1178.317,662.04,1178.32,662.043Z" transform="translate(-235.044 -104.887)" fill="#deb317"/>
    <path id="Path_3727" data-name="Path 3727" d="M1178.471,662.195c-.029-.007-.069,0-.085-.023a.32.32,0,0,1-.046-.1C1178.383,662.113,1178.429,662.155,1178.471,662.195Z" transform="translate(-235.072 -104.919)" fill="#deb317"/>
  </g>
</svg>
