<svg xmlns="http://www.w3.org/2000/svg" width="236.368" height="235.824" viewBox="0 0 236.368 235.824">
  <g id="Group_308" data-name="Group 308" transform="translate(-39.453 -240.354)">
    <path id="Path_3647" data-name="Path 3647"
      d="M367.709,454.638c-4.422,20.43-17.345,33.493-37.744,38.849-1.468.384-2.932.778-4.4,1.167a.552.552,0,0,0-.415.668v6.54c-.354,1.783-1.175.428-1.608.153-5.068-3.237-10.106-6.519-15.143-9.8-5.4-3.521-10.8-7.047-16.362-10.682,2.521-1.717,4.941-3.36,7.366-5.007,5.492-3.294,10.783-6.9,16.091-10.481,3.063-2.067,5.994-4.382,9.546-5.636q.02,4.122.035,8.24c.131.8.424.411.7.1.227-.057.45-.114.673-.166,9.529-3.657,15.711-10.154,17.415-20.464.022-.424.044-.848.07-1.271.013-.293.026-.59.039-.883a9.047,9.047,0,0,0,0-3.5c-.013-.3-.026-.59-.039-.883-.026-.424-.048-.848-.07-1.267-.179-1-.3-2.01-.551-2.988A25.717,25.717,0,0,0,303.93,422.6c-4.9,3.251-9.787,6.532-14.693,9.782q-10.892,7.215-21.8,14.4c-2.919,1.433-5.335,3.766-8.825,5.142,1.682-3.438,3.133-6.414,4.587-9.393,4.526-8.428,9.315-16.729,13.513-25.314,5.037-10.293,13.142-16.711,23.632-20.652a49.8,49.8,0,0,1,18.9-3.377c11.311.28,21.579,3.587,30.456,10.791C366,417.214,372.086,434.406,367.709,454.638Z"
      transform="translate(-123.407 -86.056)" fill="none" />
    <path id="Path_3648" data-name="Path 3648"
      d="M219.325,426.867c-5.409,10.232-10.512,19.883-15.615,29.535-1.162,2.088-2.425,4.129-3.473,6.278-4.168,8.528-10.971,14.134-19.6,17.66a73.246,73.246,0,0,1-13.653,4.146,31.8,31.8,0,0,1-7.379.734,59.417,59.417,0,0,1-18.577-3.7c-17.179-6.768-27.215-19.8-31.147-37.316-4.133-18.4,2.8-33.751,15.213-47.05a30.226,30.226,0,0,1,9.088-6.855,55.788,55.788,0,0,1,17.472-5.9c.345-.057.734-.031.9-.446.236-.087.437-.2.38-.507q.033-3.677.066-7.349a2.1,2.1,0,0,1,.4-.109c.267.162.533.328.8.489.17.127.336.253.5.376q13,8.447,25.987,16.9c1.7,1.1,3.39,2.215,5.234,3.421-8.786,5.75-17.406,11.39-26.022,17.03-2.193,1.367-4.382,2.735-6.859,4.282V409.8a1.57,1.57,0,0,0-.393-.074,3.235,3.235,0,0,0-.625.131c-10.289,3.539-16.594,10.691-18,21.421-1.271,9.677,1.931,18.013,10.162,23.754C153,461.181,162.4,462.409,172,456.865c6.658-3.849,13.015-8.2,19.35-12.565,6.575-4.26,13.138-8.541,19.735-12.766A61.125,61.125,0,0,1,219.325,426.867Z"
      transform="translate(-38.981 -76.376)" fill="none" />
    <path id="Path_3649" data-name="Path 3649"
      d="M210.512,375.365a2.1,2.1,0,0,0-.4.109c.07-.2.14-.4.21-.594C210.381,375.042,210.446,375.2,210.512,375.365Z"
      transform="translate(-96.097 -75.751)" fill="#1053bf" />
    <path id="Path_3650" data-name="Path 3650"
      d="M209.47,393.06c.057.306-.144.419-.38.507C209.217,393.4,209.343,393.23,209.47,393.06Z"
      transform="translate(-95.523 -85.989)" fill="#1053bf" />
    <path id="Path_3651" data-name="Path 3651"
      d="M411.31,625.44c-.14.223-.275.446-.415.668A.552.552,0,0,1,411.31,625.44Z"
      transform="translate(-209.152 -216.841)" fill="#1053bf" />
    <path id="Path_3652" data-name="Path 3652"
      d="M273.867,338.043c-9.315-46.4-36.595-77.244-81.3-92.536a104.359,104.359,0,0,0-30.95-5.129c-5.169-.149-10.254.428-15.379.437-3.674,0-7.371,1.127-11.036,1.761a107.383,107.383,0,0,0-12.072,2.809,112.75,112.75,0,0,0-35.612,17.922,110.833,110.833,0,0,0-23.086,22.7,12.888,12.888,0,0,0-.861.97c-23.654,32.584-30.22,68.375-18.311,106.787,17.118,55.2,72.233,90.124,131.014,80.953a114.555,114.555,0,0,0,50.593-21.028A47.2,47.2,0,0,0,235,446.9c.651-.013,1.031-.489,1.455-.874A117.163,117.163,0,0,0,273.373,381.4,108.523,108.523,0,0,0,273.867,338.043ZM161.255,386.3c-4.168,8.528-10.971,14.134-19.6,17.659A73.242,73.242,0,0,1,128,408.109a31.8,31.8,0,0,1-7.379.734,59.42,59.42,0,0,1-18.577-3.7c-17.179-6.768-27.215-19.8-31.147-37.316-4.133-18.4,2.8-33.751,15.213-47.05a30.226,30.226,0,0,1,9.088-6.855,55.789,55.789,0,0,1,17.472-5.9c.345-.057.734-.031.9-.446.127-.17.253-.336.38-.507q.033-3.676.066-7.349c.07-.2.14-.4.21-.594.061.162.127.323.192.485.267.162.533.328.8.489.17.127.336.253.5.376q13,8.447,25.987,16.9c1.7,1.1,3.39,2.215,5.234,3.421-8.786,5.75-17.406,11.39-26.022,17.03-2.193,1.368-4.382,2.735-6.859,4.282v-8.69a1.567,1.567,0,0,0-.393-.074,3.237,3.237,0,0,0-.625.131c-10.289,3.539-16.594,10.691-18,21.421-1.271,9.677,1.931,18.013,10.162,23.754,8.821,6.152,18.223,7.379,27.818,1.835,6.658-3.849,13.015-8.2,19.35-12.565,6.575-4.26,13.138-8.541,19.735-12.766a61.131,61.131,0,0,1,8.244-4.666c-5.409,10.232-10.512,19.883-15.615,29.534C163.566,382.114,162.3,384.154,161.255,386.3ZM244.3,368.583c-4.421,20.43-17.345,33.493-37.744,38.849-1.468.384-2.932.778-4.4,1.167-.14.223-.275.446-.415.668v6.54c-.354,1.783-1.175.428-1.608.153-5.068-3.237-10.106-6.519-15.143-9.8-5.4-3.521-10.8-7.047-16.362-10.682,2.521-1.717,4.941-3.36,7.366-5.007,5.492-3.294,10.783-6.9,16.091-10.481,3.063-2.067,5.994-4.382,9.546-5.636,1.21,1.783.332,3.775.546,5.662.1.926-.118,1.909.865,2.512,9.529-3.657,15.711-10.154,17.415-20.464-.468-.45-.468-.874.07-1.271.013-.293.026-.59.039-.883a3.142,3.142,0,0,1,0-3.5c-.013-.3-.026-.59-.039-.883a.724.724,0,0,1-.07-1.267c-.179-1-.3-2.01-.551-2.988a25.717,25.717,0,0,0-39.387-14.728c-4.9,3.251-9.787,6.532-14.693,9.782q-10.892,7.215-21.8,14.4c-2.918,1.433-5.335,3.766-8.825,5.142,1.682-3.438,3.133-6.414,4.587-9.393,4.526-8.428,9.315-16.729,13.513-25.314,5.037-10.293,13.142-16.711,23.632-20.652a49.8,49.8,0,0,1,18.9-3.377c11.311.28,21.579,3.587,30.456,10.792C242.6,331.158,248.679,348.35,244.3,368.583Z"
      transform="translate(0 0)" fill="#deb317" />
    <path id="Path_3653" data-name="Path 3653"
      d="M412.071,555.234c-.223.052-.446.109-.673.166-.232-.035-.467-.066-.7-.1q-.02-4.116-.035-8.24c1.21,1.783.332,3.775.546,5.662C411.311,553.648,411.088,554.632,412.071,555.234Z"
      transform="translate(-209.026 -172.706)" fill="#deb317" />
    <path id="Path_3654" data-name="Path 3654" d="M453.316,509.5a3.142,3.142,0,0,1,0-3.5A9.05,9.05,0,0,1,453.316,509.5Z"
      transform="translate(-232.747 -149.585)" fill="#deb317" />
    <path id="Path_3655" data-name="Path 3655"
      d="M453.381,502.347a.724.724,0,0,1-.07-1.267C453.333,501.5,453.355,501.923,453.381,502.347Z"
      transform="translate(-232.851 -146.814)" fill="#deb317" />
    <path id="Path_3656" data-name="Path 3656"
      d="M453.379,516.02c-.026.424-.048.848-.07,1.271C452.841,516.841,452.841,516.418,453.379,516.02Z"
      transform="translate(-232.849 -155.227)" fill="#deb317" />
    <path id="Path_3657" data-name="Path 3657"
      d="M410.739,565.925l.705.1C411.162,566.333,410.87,566.719,410.739,565.925Z"
      transform="translate(-209.071 -183.329)" fill="#deb317" />
  </g>
</svg>