<svg xmlns="http://www.w3.org/2000/svg" width="239.089" height="223" viewBox="0 0 239.089 223">
  <g id="Group_321" data-name="Group 321" transform="translate(-994.001 -632.728)">
    <rect id="Rectangle_12" data-name="Rectangle 12" width="91.963" height="28.136"
      transform="translate(1070.038 639.534)" fill="#020100" />
    <path id="Path_3776" data-name="Path 3776"
      d="M1113.657,855.723q-33.016,0-66.031-.006c-11.286-.01-22.574-.078-33.86-.124-2.393-.01-2.883-.5-2.883-2.935q-.005-51.319,0-102.636c0-2.106-.008-2.083-2.02-2.614a19.174,19.174,0,0,1-13.63-11.747c-1.343-3.294-1.252-6.791-1.208-10.266.043-3.386.031-6.772.155-10.155a7.351,7.351,0,0,1,.721-2.958c4.053-8.04,8.168-16.049,12.276-24.061,2.468-4.814,4.985-9.6,7.407-14.439a6.665,6.665,0,0,0,.706-2.849c.044-11.679.028-23.358.019-35.037,0-2.6.52-3.166,3.1-3.166q95.147,0,190.293,0c2.648,0,3.125.516,3.122,3.123-.012,11.636.011,23.271-.03,34.906-.008,2.286,1.291,4.011,2.233,5.882,2.647,5.259,5.383,10.473,8.076,15.708s5.374,10.471,8.063,15.706c.83,1.617,1.7,3.213,2.483,4.855a4.475,4.475,0,0,1,.441,1.877c-.03,5.338.06,10.684-.221,16.01-.3,5.778-3.218,10.242-7.856,13.59a18.336,18.336,0,0,1-7.62,3.159c-.787.139-1.15.5-1.125,1.292.019.608,0,1.216,0,1.823q0,50.667,0,101.334c0,.521.014,1.043-.019,1.562a1.867,1.867,0,0,1-2.036,2.026c-.651.028-1.3.012-1.953.012h-98.6Zm-83.929-117.981c-.416.535-.756.915-1.032,1.337a18.832,18.832,0,0,1-12.224,8.352c-1.217.264-1.512.712-1.511,1.866q.038,50.341.022,100.682c0,1.635.043,1.67,1.689,1.67q12.5,0,25.008,0c1.941,0,1.966-.022,1.966-1.961q0-21.491,0-42.982,0-26.245-.005-52.49c0-2.443-.024-2.443,2.365-2.443h50.536c.391,0,.782.011,1.172.006.823-.011,1.18.42,1.174,1.212,0,.434.005.868.005,1.3q0,47.736,0,95.471c0,1.873.006,1.873,1.883,1.882.173,0,.347,0,.521,0l109.018,0c.3,0,.671.1.9-.031a2.337,2.337,0,0,0,.949-.926,3.351,3.351,0,0,0,.051-1.287q0-49.755,0-99.51a3.66,3.66,0,0,0-.043-1.289c-.159-.4-.52-.925-.875-1a18.989,18.989,0,0,1-13.023-8.878,6.765,6.765,0,0,0-.865-.941c-3.947,6.331-9.307,9.883-16.771,9.9-7.527.018-12.778-3.813-16.723-9.977-4,6.346-9.326,9.972-16.8,9.979-7.512.008-12.8-3.766-16.749-9.988-4.033,6.316-9.334,9.988-16.82,9.99-7.524,0-12.8-3.78-16.748-10-3.976,6.3-9.275,9.981-16.757,10-7.528.02-12.83-3.714-16.8-10.01-3.957,6.233-9.21,9.981-16.7,10.013S1033.738,744.089,1029.728,737.742Zm83.686-66.88h.912q45.721,0,91.441,0c2.065,0,2.156-.089,2.155-2.109q0-15.044-.02-30.089c0-1.961-.07-1.995-1.951-1.995q-92.353,0-184.706,0c-1.959,0-2.014.018-2.017,1.919q-.023,15.3-.021,30.61c0,.13,0,.261.005.391.008.969.435,1.426,1.461,1.335.905-.08,1.821-.06,2.733-.06Q1068.41,670.861,1113.414,670.862Zm-33.124,41.493v.04c4.3,0,8.595-.033,12.892.021,1.182.015,1.685-.313,1.77-1.569.33-4.845.792-9.681,1.146-14.524.407-5.58.75-11.164,1.125-16.746.064-.952.115-1.907.232-2.853.218-1.759.07-1.939-1.756-1.939l-8.725,0c-3.733,0-7.466.017-11.2-.006-1.259-.008-2.024.362-2.205,1.781-.192,1.5-.65,2.959-.973,4.44-.932,4.272-1.846,8.548-2.783,12.819-.622,2.832-1.28,5.656-1.9,8.486-.644,2.918-1.259,5.843-1.9,8.762-.213.969.113,1.314,1.131,1.3C1071.524,712.331,1075.907,712.355,1080.291,712.355Zm66.467.033v-.005c4.385,0,8.77-.021,13.154.015,1.064.009,1.431-.391,1.2-1.406-.264-1.184-.519-2.371-.775-3.557-.829-3.856-1.641-7.715-2.492-11.566-.653-2.958-1.376-5.9-2.033-8.859-.817-3.679-1.57-7.372-2.435-11.04a1.834,1.834,0,0,0-1.137-1.018,7.085,7.085,0,0,0-2.065-.16q-8.01-.016-16.02,0c-1.128,0-2.258,0-3.384.056-.951.044-1.317.486-1.22,1.532.438,4.75.8,9.508,1.163,14.265.52,6.789,1.039,13.578,1.505,20.37.074,1.067.472,1.4,1.511,1.393C1138.075,712.365,1142.416,712.388,1146.758,712.388Zm-147.2-.257a5.511,5.511,0,0,0,.9.207c8.894.009,17.789.026,26.683-.032a2.024,2.024,0,0,0,1.381-1.016,23.18,23.18,0,0,0,1.085-2.917q3.274-8.888,6.555-17.773c1.718-4.666,3.419-9.337,5.144-14,.463-1.251.24-1.69-1.11-1.7-6.769-.055-13.538-.109-20.306-.052A2.635,2.635,0,0,0,1018,676.06c-2.1,3.881-4.067,7.833-6.078,11.762q-5.112,9.993-10.221,19.987C1000.99,709.206,1000.306,710.62,999.557,712.131Zm213.6.1v.053c4.294,0,8.589.008,12.884,0,1.386,0,1.544-.29.908-1.534-1.87-3.655-3.75-7.3-5.612-10.963-3.631-7.131-7.366-14.212-10.819-21.428-1.289-2.694-2.832-3.8-5.917-3.649-5.887.281-11.8.075-17.7.082-1.277,0-1.544.382-1.129,1.6q.777,2.271,1.609,4.524c1.664,4.506,3.35,9,5.009,13.51,2,5.439,4.03,10.868,5.946,16.338a1.938,1.938,0,0,0,2.194,1.49C1204.741,712.209,1208.949,712.232,1213.157,712.232Zm-200.225,4.108q-6.507,0-13.013,0c-1.722,0-1.776.054-1.779,1.735-.006,3.644.02,7.288-.006,10.931a13.957,13.957,0,0,0,3.205,9.125,14.38,14.38,0,0,0,17.3,4.392c6.207-2.772,9.089-7.854,9.094-14.608,0-3.34-.049-6.681.026-10.019.027-1.212-.381-1.588-1.559-1.575C1021.781,716.37,1017.357,716.342,1012.932,716.34Zm134.212,0c-4.426,0-8.851.033-13.275-.021-1.2-.015-1.58.4-1.562,1.58.057,3.817-.07,7.638.067,11.451a15.227,15.227,0,0,0,.948,4.809,14.8,14.8,0,0,0,18.2,8.874,14.962,14.962,0,0,0,10.386-13.64c.037-3.861-.021-7.723.032-11.584.016-1.151-.408-1.5-1.524-1.488C1155.995,716.368,1151.569,716.341,1147.144,716.341Zm-67.092,0c-4.428,0-8.857.027-13.286-.019-1.123-.011-1.533.361-1.517,1.5.056,4.124-.16,8.263.126,12.368a15.047,15.047,0,0,0,1.828,6.009,14.587,14.587,0,0,0,17.4,6.77,14.883,14.883,0,0,0,10.168-13.163c.175-3.987.006-7.989.063-11.982.016-1.136-.36-1.517-1.5-1.5C1088.911,716.37,1084.481,716.341,1080.053,716.341Zm134.207.006c-4.471,0-8.943.021-13.413-.016-1.07-.009-1.428.363-1.412,1.443.055,3.819-.053,7.642.062,11.458a14.775,14.775,0,0,0,19.2,13.81c5.534-1.682,10.332-7.6,10.3-13.449-.021-3.907-.036-7.815.027-11.72.02-1.232-.456-1.559-1.61-1.547C1223.028,716.373,1218.644,716.345,1214.26,716.347Zm-156.5,87.358a2.053,2.053,0,0,0-1.925-2.048,1.988,1.988,0,0,0-2,2.073,2.08,2.08,0,0,0,1.97,2A2.041,2.041,0,0,0,1057.765,803.7Z"
      fill="#010100" />
    <path id="Path_3777" data-name="Path 3777"
      d="M1044.886,813.647c4.01,6.347,9.315,9.987,16.814,9.955s12.738-3.78,16.7-10.013c3.974,6.3,9.276,10.031,16.8,10.01,7.482-.02,12.781-3.7,16.757-10,3.948,6.222,9.225,10,16.748,10,7.486,0,12.788-3.674,16.82-9.99,3.948,6.222,9.237,10,16.749,9.988,7.475-.008,12.8-3.633,16.8-9.979,3.945,6.164,9.2,10,16.723,9.977,7.464-.018,12.823-3.57,16.77-9.9a6.773,6.773,0,0,1,.865.941,18.989,18.989,0,0,0,13.023,8.878c.355.074.716.6.875,1a3.657,3.657,0,0,1,.043,1.289q0,49.755,0,99.51a3.348,3.348,0,0,1-.051,1.287,2.337,2.337,0,0,1-.949.926c-.226.134-.593.031-.9.031l-109.017,0c-.174,0-.348,0-.521,0-1.876-.009-1.883-.009-1.883-1.882q0-47.736,0-95.471c0-.434-.008-.868-.005-1.3.006-.792-.351-1.223-1.174-1.212-.391,0-.782-.006-1.172-.006h-50.536c-2.39,0-2.366,0-2.365,2.443q.011,26.245.005,52.49,0,21.491,0,42.982c0,1.939-.025,1.961-1.966,1.961q-12.5,0-25.008,0c-1.646,0-1.689-.035-1.689-1.67q0-50.341-.022-100.682c0-1.154.294-1.6,1.511-1.866a18.832,18.832,0,0,0,12.224-8.352C1044.13,814.561,1044.471,814.182,1044.886,813.647Zm129.119,14.032q-19.471,0-38.943,0c-1.774,0-1.959.173-1.959,1.767q0,38.748,0,77.495c0,2.219.132,2.339,2.379,2.339q38.551,0,77.1,0c2.028,0,2.1-.064,2.1-2.141q0-38.747,0-77.495c0-1.888-.075-1.965-2-1.966Q1193.346,827.677,1174.005,827.679Z"
      transform="translate(-15.158 -75.904)" fill="#deb317" />
    <path id="Path_3778" data-name="Path 3778"
      d="M1131.644,673.711q-45,0-90.008,0c-.912,0-1.827-.02-2.733.06-1.025.091-1.453-.366-1.461-1.335,0-.13-.006-.26-.005-.391q.008-15.306.021-30.61c0-1.9.058-1.919,2.016-1.919q92.353,0,184.706,0c1.881,0,1.948.033,1.951,1.995q.023,15.044.02,30.089c0,2.019-.091,2.108-2.155,2.109q-45.72,0-91.441,0Zm-7.2-17.261.3.027c0,1.692-.12,3.394.028,5.072.223,2.546.659,5.188,3.445,6.192a11.581,11.581,0,0,0,4.692.456,5.2,5.2,0,0,0,4.591-4.321,41.914,41.914,0,0,0,.152-13.589,6.393,6.393,0,0,0-9.97-4.362,5.7,5.7,0,0,0-2.3,3.1A62.916,62.916,0,0,0,1124.443,656.451Zm20.822,1.52.358-.05a7.459,7.459,0,0,1,.474,1.09c.5,1.925,1,3.85,1.444,5.789.746,3.274.85,3.345,4.161,3.18,1.109-.056,1.2-.559.9-1.444q-1.381-4.046-2.72-8.106a1.686,1.686,0,0,1,.555-1.962,6.615,6.615,0,0,0,1.658-7.8,3.842,3.842,0,0,0-2.977-2.628c-2.383-.329-4.8-.408-7.2-.615-1.2-.1-1.465.526-1.455,1.578.056,6.023.08,12.047.105,18.07.012,2.984,0,2.939,2.993,2.924,1.164-.006,1.5-.478,1.483-1.561-.035-2.384.005-4.769.037-7.153A10.289,10.289,0,0,1,1145.264,657.97Zm-39.435-13.219a17.544,17.544,0,0,0-3.523,1.139c-3.675,2.1-3.333,7.02-.944,9.607,1.437,1.556,3.071,2.927,4.593,4.405a4.162,4.162,0,0,1,1.2,3.694c-.067.5-.574,1.284-.923,1.307a1.988,1.988,0,0,1-1.54-.822,16.339,16.339,0,0,1-.641-2.217c-.152-.367-.626-.841-.959-.845a13.865,13.865,0,0,0-2.3.38,1.1,1.1,0,0,0-1.058,1.447c.432,2.337,1.417,4.375,3.787,5.189a6.077,6.077,0,0,0,6.746-1.373,5.991,5.991,0,0,0,.3-7.688,40.714,40.714,0,0,0-4.74-5.1c-1.064-1.083-2.092-2.219-1.773-3.83a2.329,2.329,0,0,1,1.384-1.54c.933-.224,1.439.579,1.577,1.494.266,1.772.261,1.771,2.062,1.54.258-.033.518-.046.778-.063,1.78-.114,2.2-.728,1.655-2.418A6.448,6.448,0,0,0,1105.829,644.751Zm48.846,11.873c0,3.3.015,6.592-.009,9.887-.008,1.027.36,1.5,1.452,1.469,2.167-.054,4.338-.057,6.5.006,1.164.033,1.494-.487,1.52-1.556.027-1.155-.566-1.414-1.539-1.37-.606.027-1.215-.023-1.821,0-1.109.05-1.592-.522-1.6-1.569q-.021-1.821-.009-3.643c.014-1.813.194-2.037,2-2.052,1.119-.009,1.534-.472,1.526-1.576-.009-1.162-.454-1.661-1.64-1.594-.856.049-1.854.121-1.876-1.188a30.5,30.5,0,0,1,.053-3.9,1.677,1.677,0,0,1,1.083-1.1,9.7,9.7,0,0,1,2.459-.064c.994.028,1.4-.41,1.379-1.411-.019-.962-.223-1.578-1.373-1.556-2.167.042-4.337.049-6.5-.013-1.177-.034-1.63.409-1.613,1.59C1154.7,650.206,1154.674,653.415,1154.675,656.624Zm-38.756,1.65h.007c0,2.691-.022,5.383.02,8.074.008.481.221,1.339.438,1.372a9.552,9.552,0,0,0,3.311.049c.321-.067.578-1.235.584-1.9.047-5.078.02-10.158.028-15.237,0-1.728.172-1.944,1.926-2.009,1.262-.047,1.454-.734,1.469-1.794.016-1.123-.509-1.421-1.51-1.411-2.691.028-5.383.036-8.074,0-1.088-.015-1.7.237-1.686,1.515.009,1.211.371,1.734,1.646,1.7,1.545-.036,1.827.3,1.836,1.826C1115.931,653.066,1115.92,655.67,1115.92,658.274Z"
      transform="translate(-18.23 -2.849)" fill="#deb317" />
    <path id="Path_3779" data-name="Path 3779"
      d="M1132.323,742.768c-4.384,0-8.767-.024-13.15.019-1.018.01-1.345-.335-1.132-1.3.641-2.919,1.257-5.844,1.9-8.762.624-2.831,1.283-5.655,1.9-8.487.937-4.271,1.851-8.547,2.783-12.819.323-1.481.781-2.943.973-4.44.182-1.419.946-1.789,2.205-1.781,3.733.023,7.466.007,11.2.006l8.725,0c1.826,0,1.974.18,1.756,1.939-.117.946-.168,1.9-.232,2.853-.375,5.582-.718,11.166-1.125,16.746-.354,4.843-.817,9.679-1.146,14.524-.085,1.256-.589,1.584-1.77,1.569-4.3-.055-8.594-.021-12.892-.021Z"
      transform="translate(-52.032 -30.413)" fill="#deb317" />
    <path id="Path_3780" data-name="Path 3780"
      d="M1244.781,742.8c-4.341,0-8.683-.024-13.023.017-1.039.01-1.437-.326-1.51-1.393-.467-6.793-.985-13.582-1.505-20.37-.365-4.757-.725-9.515-1.164-14.265-.1-1.046.269-1.488,1.22-1.532,1.126-.052,2.256-.055,3.384-.056q8.01-.008,16.02,0a7.088,7.088,0,0,1,2.065.16,1.835,1.835,0,0,1,1.137,1.018c.865,3.668,1.617,7.361,2.435,11.04.657,2.957,1.38,5.9,2.033,8.859.851,3.851,1.663,7.71,2.492,11.566.255,1.186.511,2.373.775,3.557.226,1.015-.14,1.415-1.2,1.406-4.384-.036-8.769-.015-13.154-.015Z"
      transform="translate(-98.023 -30.416)" fill="#deb317" />
    <path id="Path_3781" data-name="Path 3781"
      d="M1003.576,742.574c.749-1.511,1.432-2.925,2.145-4.322q5.1-10,10.221-19.987c2.01-3.929,3.979-7.881,6.078-11.762a2.635,2.635,0,0,1,1.891-1.214c6.768-.057,13.537,0,20.306.052,1.35.011,1.573.45,1.11,1.7-1.725,4.663-3.427,9.335-5.144,14q-3.273,8.888-6.555,17.773a23.179,23.179,0,0,1-1.085,2.917,2.024,2.024,0,0,1-1.381,1.016c-8.894.058-17.788.041-26.683.033A5.518,5.518,0,0,1,1003.576,742.574Z"
      transform="translate(-4.019 -30.442)" fill="#deb317" />
    <path id="Path_3782" data-name="Path 3782"
      d="M1351.719,742.581c-4.208,0-8.416-.023-12.624.015a1.937,1.937,0,0,1-2.194-1.49c-1.916-5.469-3.943-10.9-5.946-16.338-1.66-4.507-3.346-9-5.009-13.51q-.831-2.253-1.609-4.524c-.416-1.213-.148-1.594,1.129-1.6,5.9-.007,11.809.2,17.7-.082,3.085-.147,4.628.955,5.917,3.649,3.453,7.216,7.188,14.3,10.819,21.428,1.862,3.659,3.743,7.308,5.612,10.963.636,1.244.478,1.53-.908,1.534-4.294.012-8.589,0-12.884,0Z"
      transform="translate(-138.562 -30.35)" fill="#deb317" />
    <path id="Path_3783" data-name="Path 3783"
      d="M1015.921,776.8c4.424,0,8.848.03,13.272-.017,1.177-.013,1.586.363,1.559,1.575-.075,3.338-.023,6.679-.026,10.019-.005,6.753-2.888,11.836-9.094,14.608a14.38,14.38,0,0,1-17.3-4.392,13.957,13.957,0,0,1-3.205-9.125c.026-3.643,0-7.287.006-10.931,0-1.681.057-1.733,1.779-1.735Q1009.415,776.79,1015.921,776.8Z"
      transform="translate(-2.989 -60.456)" fill="#deb317" />
    <path id="Path_3784" data-name="Path 3784"
      d="M1247.168,776.794c4.425,0,8.85.027,13.275-.019,1.116-.012,1.54.337,1.524,1.488-.053,3.861.005,7.723-.032,11.584a14.962,14.962,0,0,1-10.387,13.64,14.8,14.8,0,0,1-18.2-8.874,15.228,15.228,0,0,1-.948-4.808c-.136-3.813-.009-7.635-.067-11.451-.018-1.183.362-1.6,1.562-1.58C1238.317,776.827,1242.743,776.794,1247.168,776.794Z"
      transform="translate(-100.024 -60.453)" fill="#deb317" />
    <path id="Path_3785" data-name="Path 3785"
      d="M1131.562,776.8c4.429,0,8.858.03,13.286-.02,1.139-.013,1.514.369,1.5,1.5-.056,3.994.112,7.995-.062,11.982a14.883,14.883,0,0,1-10.168,13.163,14.587,14.587,0,0,1-17.4-6.77,15.048,15.048,0,0,1-1.828-6.009c-.286-4.105-.07-8.244-.127-12.368-.016-1.141.394-1.513,1.517-1.5C1122.7,776.822,1127.134,776.8,1131.562,776.8Z"
      transform="translate(-51.51 -60.455)" fill="#deb317" />
    <path id="Path_3786" data-name="Path 3786"
      d="M1362.83,776.8c4.384,0,8.769.027,13.153-.02,1.154-.012,1.63.315,1.61,1.547-.064,3.906-.049,7.813-.027,11.72.032,5.85-4.766,11.767-10.3,13.449a14.775,14.775,0,0,1-19.2-13.81c-.116-3.817-.007-7.639-.062-11.458-.016-1.079.343-1.451,1.412-1.443C1353.888,776.826,1358.359,776.8,1362.83,776.8Z"
      transform="translate(-148.571 -60.458)" fill="#deb317" />
    <path id="Path_3787" data-name="Path 3787"
      d="M1101.041,925.875a2.041,2.041,0,0,1-1.953,2.02,2.079,2.079,0,0,1-1.97-2,1.988,1.988,0,0,1,2-2.073A2.053,2.053,0,0,1,1101.041,925.875Z"
      transform="translate(-43.277 -122.17)" fill="#deb317" />
    <path id="Path_3788" data-name="Path 3788"
      d="M1248.484,837.869q19.341,0,38.682,0c1.923,0,2,.078,2,1.966q0,38.748,0,77.495c0,2.078-.07,2.141-2.1,2.141q-38.552,0-77.1,0c-2.246,0-2.378-.12-2.379-2.339q0-38.747,0-77.495c0-1.594.186-1.766,1.959-1.767Q1229.013,837.866,1248.484,837.869Z"
      transform="translate(-89.637 -86.095)" />
    <path id="Path_3789" data-name="Path 3789"
      d="M1199.906,663.2c0,1.516.04,3.035-.018,4.549a9.623,9.623,0,0,1-.389,2.015c-.26,1-.79,1.811-1.945,1.732-1.245-.085-1.7-1.07-1.979-2.112a4.528,4.528,0,0,1-.08-1.163c-.006-3.163-.055-6.327.023-9.487a6.89,6.89,0,0,1,.674-2.846,2.046,2.046,0,0,1,1.65-.887,2.228,2.228,0,0,1,1.507,1.151,7.265,7.265,0,0,1,.558,2.631c.085,1.468.023,2.944.023,4.418Z"
      transform="translate(-84.556 -9.347)" fill="#deb317" />
    <path id="Path_3790" data-name="Path 3790"
      d="M1222.891,658.386a9.821,9.821,0,0,1,.027-1.813c.086-.453.323-1.082.666-1.229a1.721,1.721,0,0,1,1.419.268c1.37,1.006,1.379,4.369.008,5.381a2.035,2.035,0,0,1-1.544.342c-.293-.082-.491-.8-.573-1.263a9.753,9.753,0,0,1-.023-1.685Z"
      transform="translate(-96.043 -9.464)" fill="#deb317" />
  </g>
</svg>