<svg xmlns="http://www.w3.org/2000/svg" width="155.93" height="138.496" viewBox="0 0 155.93 138.496">
  <g id="Group_324" data-name="Group 324" transform="translate(-335.982 -558.289)">
    <path id="Path_3824" data-name="Path 3824"
      d="M408.516,696.759q-28.962,0-57.925.025a14.305,14.305,0,0,1-6.282-1.3,14.524,14.524,0,0,1-4.872-3.79,15.069,15.069,0,0,1-3.446-10.227q.053-41.537-.008-83.073a14.2,14.2,0,0,1,1.4-6.7,15.224,15.224,0,0,1,5.459-6.066,15.44,15.44,0,0,1,8.744-2.15c2.4.026,4.8-.064,7.2.032a8.766,8.766,0,0,0,3.9-1.212c1.075-.466,2.088-1.074,3.144-1.589,1.362-.665,2.736-1.3,4.11-1.945.962-.448,1.941-.863,2.9-1.321,1.24-.593,2.467-1.216,3.7-1.825.8-.394,1.585-.81,2.4-1.176,1.905-.859,3.839-1.657,5.729-2.548,1.736-.818,3.426-1.733,5.145-2.589.976-.486,1.971-.934,2.953-1.407,1.242-.6,2.48-1.205,3.72-1.806.849-.411,1.7-.831,2.554-1.223,1.854-.845,3.729-1.642,5.568-2.517,1.759-.837,3.478-1.756,5.223-2.622a18.917,18.917,0,0,1,2.656-1.223c2.058-.647,3.634.184,4.686,2.216,1,1.937,1.93,3.912,2.872,5.88a32.107,32.107,0,0,1,1.334,2.987c.577,1.608,1.506,1.935,3,1.082,1.166-.665,2.411-1.19,3.619-1.782,1.134-.556,2.263-1.124,3.4-1.673,1.009-.487,2.029-.951,3.04-1.435,1.24-.594,2.474-1.2,3.711-1.8.8-.387,1.591-.794,2.4-1.156,2.071-.921,4.125-1.886,6.235-2.707a3.562,3.562,0,0,1,4.375,1.967c.953,2.026,1.988,4.013,2.956,6.033.521,1.088.966,2.212,1.464,3.312.4.889.82,1.772,1.257,2.644.515,1.026,1.088,2.023,1.584,3.057.821,1.71,1.6,3.44,2.4,5.161a1.993,1.993,0,0,0,1.927,1.2,74.274,74.274,0,0,1,7.6.361,10.361,10.361,0,0,1,4.013,1.65,20.013,20.013,0,0,1,3.938,3.306,12.3,12.3,0,0,1,2.725,5.226,25.557,25.557,0,0,1,.656,6.791c-.031,4.451-.011,8.9-.007,13.354,0,1.389.3,1.67,1.686,1.67s2.777.047,4.162-.006a3.99,3.99,0,0,1,4.388,4.38c-.066,8.96-.026,17.921-.029,26.881,0,4.336,0,8.671-.008,13.007-.008,2.651-1.132,3.95-3.8,4.195a40.832,40.832,0,0,1-4.762.071c-1.183-.031-1.645.312-1.648,1.506-.007,3.237,0,6.475,0,9.712,0,1.5-.07,3.011.024,4.508a20.949,20.949,0,0,1-.836,6.766,10.817,10.817,0,0,1-2.418,4.43,31.924,31.924,0,0,1-2.962,2.87,7.264,7.264,0,0,1-2.06,1.245,13.994,13.994,0,0,1-5.239,1.336c-4.942-.055-9.885,0-14.828,0q-22.416,0-44.832,0Zm.2-106.063h-35.2q-10.8,0-21.592-.006a9.883,9.883,0,0,0-3.821.565c-2.451.988-4.131,2.578-4.508,5.28a21.975,21.975,0,0,0-.185,3.02q-.02,39.628-.019,79.256c0,1.1.009,2.2-.007,3.295a6.861,6.861,0,0,0,5.982,7.174c.917.085,1.841.151,2.761.151q57.144.015,114.288,0a7.415,7.415,0,0,0,4.894-1.359,6.736,6.736,0,0,0,2.859-4.8c.209-3.02.133-6.061.142-9.093.008-2.657-.062-5.315-.045-7.972.011-1.664-.067-1.791-1.715-1.792q-7.718,0-15.435,0a33.24,33.24,0,0,1-8.178-.672,14.633,14.633,0,0,1-3.7-1.38,14.992,14.992,0,0,1-5.618-5.014,22.715,22.715,0,0,1-2.369-4.761,21.554,21.554,0,0,1-.878-7.534c.108-2.568.02-5.144.025-7.716.006-3.029-.151-6.059.659-9.043a16.438,16.438,0,0,1,9.256-10.84,16.761,16.761,0,0,1,6.741-1.6q8.5.01,17,0c.953,0,1.909.011,2.859-.05,1.278-.082,1.4-.244,1.4-1.539,0-4.421.044-8.843-.013-13.264-.028-2.163.236-4.351-.926-6.415a6.948,6.948,0,0,0-3.063-3.008,10.17,10.17,0,0,0-4.449-.909Q437.287,590.727,408.715,590.7Zm59.064,66.316v.026q7.411,0,14.822,0c2.047,0,2.14-.09,2.14-2.144q0-14.952,0-29.9c0-1.475-.182-1.683-1.7-1.683-10.112-.005-20.224.018-30.337-.016a7.7,7.7,0,0,0-4.473,1.377,9.423,9.423,0,0,0-4.428,8.138q.051,7.367-.007,14.735a9.191,9.191,0,0,0,1.84,5.537A9.015,9.015,0,0,0,453.3,657C458.129,657.046,462.954,657.013,467.779,657.013Zm-52.162-73.554h4.595q15.772,0,31.543,0c.337,0,.922-.126.961-.293a2.026,2.026,0,0,0-.2-1.195c-.436-.966-.963-1.89-1.412-2.85-.523-1.118-.989-2.264-1.505-3.386-.4-.86-.83-1.7-1.253-2.551-.536-1.077-1.135-2.127-1.6-3.234-.443-1.053-.839-1.336-1.9-.92-.8.313-1.544.753-2.324,1.113-1.092.5-2.2.969-3.29,1.483-1.167.551-2.313,1.145-3.473,1.711-1.262.615-2.529,1.219-3.793,1.828-.9.436-1.8.885-2.714,1.3-1.093.5-2.2.969-3.3,1.468q-1.209.55-2.4,1.141c-1.128.558-2.258,1.11-3.367,1.7C418.673,581.592,416.844,581.856,415.616,583.459ZM378.33,583.1l.109.334c.2.017.394.049.591.049q8.93,0,17.86-.02a1.447,1.447,0,0,0,.594-.091c1.715-.8,3.423-1.625,5.134-2.438.932-.443,1.864-.889,2.8-1.319,1.121-.513,2.261-.987,3.372-1.52,1.89-.906,3.754-1.869,5.651-2.761.97-.456,1.146-.688.728-1.636-.871-1.973-1.774-3.933-2.68-5.89a1.069,1.069,0,0,0-1.456-.576c-.846.333-1.646.788-2.461,1.2-1.767.89-3.516,1.813-5.3,2.668-1.838.882-3.707,1.7-5.56,2.548-.836.384-1.672.768-2.495,1.179-1.767.883-3.509,1.819-5.293,2.667-1.835.873-3.728,1.624-5.557,2.509C382.334,580.984,380.342,582.06,378.33,583.1Z"
      transform="translate(0 0)" fill="#deb317" />
    <path id="Path_3825" data-name="Path 3825"
      d="M696.829,802.833c-3.791.14-6.678-3.362-6.662-6.649a6.576,6.576,0,0,1,13.152.009C703.354,799.964,700.035,802.995,696.829,802.833Z"
      transform="translate(-238.958 -156.112)" fill="#deb317" />
  </g>
</svg>