<svg xmlns="http://www.w3.org/2000/svg" width="216.801" height="159.088" viewBox="0 0 216.801 159.088">
  <g id="Group_327" data-name="Group 327" transform="translate(-579.35 -428.783)">
    <path id="Path_3839" data-name="Path 3839"
      d="M833.227,1353.3l-6.448,18.614-7.593,21.919h-.478a13.96,13.96,0,0,0-16.577,0H757.2v9.537H738.387V1394.1H695.578A17.867,17.867,0,0,0,660,1392.489l-22.271-22.913-3.716-3.824v-5.828l20.134-18.544h55.367l19.6,29.936h11.119l-4.762-17.22,16.425-8.212,3.179,3.179h74.441S833.227,1349.063,833.227,1353.3Z"
      transform="translate(-51.155 -854.08)" fill="#deb317" />
    <rect id="Rectangle_14" data-name="Rectangle 14" width="56.234" height="4.173"
      transform="translate(603.598 492.08) rotate(-76.373)" fill="#deb317" />
    <rect id="Rectangle_15" data-name="Rectangle 15" width="4.173" height="56.234"
      transform="matrix(0.972, -0.236, 0.236, 0.972, 639.961, 438.412)" fill="#deb317" />
    <path id="Path_3840" data-name="Path 3840" d="M957.507,428.783v7.352l8.652,4.372,85.543-5.862v-5.862Z"
      transform="translate(-353.909)" fill="#deb317" />
    <g id="Group_326" data-name="Group 326" transform="translate(677.25 480.823)">
      <rect id="Rectangle_16" data-name="Rectangle 16" width="3.079" height="17.491"
        transform="translate(6.266 5.51) rotate(-22.741)" fill="#deb317" />
      <path id="Path_3841" data-name="Path 3841"
        d="M2120.453,1241.14a1.262,1.262,0,0,1-.676,1.652l-11.873,4.977a1.262,1.262,0,0,1-1.651-.676h0a1.262,1.262,0,0,1,.676-1.652l11.873-4.977a1.262,1.262,0,0,1,1.652.676Z"
        transform="translate(-2106.154 -1240.365)" fill="#deb317" />
    </g>
    <path id="Path_3842" data-name="Path 3842"
      d="M670.906,1476.918a44.591,44.591,0,0,0-2.242-8.383,3.09,3.09,0,0,0,.948-4.107l-4.306-7.459a3.091,3.091,0,0,0-4.04-1.229,45.209,45.209,0,0,0-6.132-6.132,3.091,3.091,0,0,0-1.228-4.04l-7.459-4.306a3.091,3.091,0,0,0-4.107.948,44.642,44.642,0,0,0-8.383-2.242,3.091,3.091,0,0,0-3.083-2.878h-8.613a3.091,3.091,0,0,0-3.083,2.878,44.646,44.646,0,0,0-8.383,2.242,3.09,3.09,0,0,0-4.106-.948l-7.459,4.306a3.091,3.091,0,0,0-1.228,4.04,45.244,45.244,0,0,0-6.133,6.132,3.091,3.091,0,0,0-4.04,1.229l-1.258,2.179-3.048,5.279a3.091,3.091,0,0,0,.948,4.107,44.6,44.6,0,0,0-2.242,8.383A3.091,3.091,0,0,0,579.35,1480v8.613a3.091,3.091,0,0,0,2.879,3.083,44.608,44.608,0,0,0,2.242,8.383,3.09,3.09,0,0,0-.948,4.106l4.306,7.459a3.091,3.091,0,0,0,4.04,1.228,45.224,45.224,0,0,0,6.133,6.132,3.091,3.091,0,0,0,1.228,4.04l7.459,4.306a3.091,3.091,0,0,0,4.107-.948,44.6,44.6,0,0,0,8.383,2.242,3.09,3.09,0,0,0,3.083,2.878h8.613a3.09,3.09,0,0,0,3.083-2.878,44.594,44.594,0,0,0,8.383-2.242,3.091,3.091,0,0,0,4.107.948l7.459-4.306a3.091,3.091,0,0,0,1.228-4.04,45.189,45.189,0,0,0,6.132-6.132,3.091,3.091,0,0,0,4.04-1.228l4.306-7.459a3.09,3.09,0,0,0-.948-4.106,44.6,44.6,0,0,0,2.242-8.383,3.091,3.091,0,0,0,2.879-3.083V1480A3.091,3.091,0,0,0,670.906,1476.918Zm-26.472,7.389a17.853,17.853,0,1,1-.011-.636Q644.433,1483.988,644.434,1484.308Z"
      transform="translate(0 -943.653)" fill="#deb317" />
    <path id="Path_3843" data-name="Path 3843"
      d="M2881.436,1790.395a34.841,34.841,0,0,0-1.751-6.549,2.414,2.414,0,0,0,.74-3.208l-3.364-5.827a2.415,2.415,0,0,0-3.157-.959,35.306,35.306,0,0,0-4.791-4.791,2.414,2.414,0,0,0-.959-3.156l-5-2.885-.83-.479a2.414,2.414,0,0,0-3.208.741,34.854,34.854,0,0,0-6.549-1.752,2.414,2.414,0,0,0-2.409-2.249h-6.729a2.414,2.414,0,0,0-2.408,2.249,34.854,34.854,0,0,0-6.55,1.752,2.413,2.413,0,0,0-3.208-.741l-5.827,3.364a2.414,2.414,0,0,0-.959,3.156,35.388,35.388,0,0,0-4.79,4.791,2.414,2.414,0,0,0-3.156.959l-3.364,5.827a2.414,2.414,0,0,0,.74,3.208q-.2.542-.389,1.092a34.911,34.911,0,0,0-1.362,5.457,2.414,2.414,0,0,0-2.249,2.408v6.729a2.414,2.414,0,0,0,2.249,2.408,34.911,34.911,0,0,0,1.751,6.549,2.414,2.414,0,0,0-.74,3.208l3.364,5.827a2.415,2.415,0,0,0,3.156.959,35.343,35.343,0,0,0,4.79,4.791,2.415,2.415,0,0,0,.959,3.156l5.827,3.364a2.415,2.415,0,0,0,3.208-.741,34.871,34.871,0,0,0,6.55,1.751,2.414,2.414,0,0,0,2.408,2.249h6.729a2.414,2.414,0,0,0,2.409-2.249,34.871,34.871,0,0,0,6.549-1.751,2.415,2.415,0,0,0,3.208.741l5.827-3.364a2.415,2.415,0,0,0,.959-3.156,35.261,35.261,0,0,0,4.791-4.791,2.415,2.415,0,0,0,3.157-.959l3.364-5.827a2.415,2.415,0,0,0-.74-3.208,34.836,34.836,0,0,0,1.751-6.549,2.414,2.414,0,0,0,2.249-2.408V1792.8A2.415,2.415,0,0,0,2881.436,1790.395Zm-34.639,19.73a13.958,13.958,0,1,1,13.958-13.957A13.957,13.957,0,0,1,2846.8,1810.125Z"
      transform="translate(-2087.534 -1245.184)" fill="#deb317" />
  </g>
</svg>