<svg xmlns="http://www.w3.org/2000/svg" width="230.848" height="236.959" viewBox="0 0 230.848 236.959">
  <g id="Group_322" data-name="Group 322" transform="translate(-1155.015 -111.916)">
    <path id="Path_3791" data-name="Path 3791"
      d="M1203.773,295.039c.587-1.327.987-2.425,1.54-3.44a5.9,5.9,0,0,1,5.4-3.4,5.372,5.372,0,0,1,5.016,3.419,47.114,47.114,0,0,1,2.083,6.2c.232.772.431,1.174,1.4,1.031,3.649-.54,6.143.9,7.259,4.441a36.592,36.592,0,0,1,1.2,6.426c.143,1.138.357,1.715,1.692,1.668a4.49,4.49,0,0,1,4.741,3.548,16.889,16.889,0,0,1,.739,5.823c-.454,5.146-1.16,10.274-1.936,15.384a4.385,4.385,0,0,0,.867,3.654c3.9,5.255,9.141,8.755,14.861,11.654,3.429,1.738,6.883,3.424,10.335,5.115,8.888,4.353,17.66,8.876,24.393,16.6.932-.992,1.786-2,2.737-2.9,6.136-5.8,13.5-9.687,20.978-13.391,4.831-2.391,9.649-4.813,14.422-7.318A35.027,35.027,0,0,0,1332.79,340a4.73,4.73,0,0,0,1-4.079c-.78-5.108-1.423-10.243-1.9-15.387a15.569,15.569,0,0,1,.6-5.208c.7-2.71,2.328-3.9,5.1-3.96,1.052-.021,1.329-.4,1.455-1.385a48.809,48.809,0,0,1,1.127-6.443c.929-3.469,4.132-5.65,7.4-4.713.992.284,1.123-.35,1.363-1.068.756-2.265,1.274-4.688,2.456-6.716,2.237-3.837,6.96-3.838,9.531-.2a19.056,19.056,0,0,1,1.389,2.69c.2.41.346.846.6,1.471a37.6,37.6,0,0,1,2.983-3.744,26.692,26.692,0,0,1,5.1-4.3c3.7-2.114,7.525-.529,8.19,3.667a31.549,31.549,0,0,1-.058,10.63c-2.819,14.837-5.194,29.781-9.421,44.317-2.167,7.454-4.72,14.789-9.438,21.088-4.1,5.472-9.315,9.849-14.741,13.923-3.836,2.88-8.021,5.292-11.9,8.112-3.661,2.659-7.2,5.494-10.662,8.413a9.572,9.572,0,0,0-3.3,7.7q.023,5.447-.006,10.894c-.009,2.16-1.01,3.378-2.75,3.41-1.825.033-2.859-1.179-2.871-3.447-.018-3.631-.032-7.262,0-10.893.045-4.473,1.447-8.524,4.814-11.486a105.8,105.8,0,0,1,12.06-9.467,134.272,134.272,0,0,0,21.38-16.506c4.715-4.631,7.531-10.312,9.748-16.363,4.169-11.381,6.351-23.261,8.626-35.112,1.177-6.132,2.331-12.271,3.347-18.432a32.993,32.993,0,0,0,.044-5.306l-.611-.261a28.834,28.834,0,0,0-2.558,2.218,28.306,28.306,0,0,0-6.9,13.008c-1.529,6.66-2.673,13.436-4.653,19.957-2.461,8.106-5.338,16.113-8.539,23.958-2.871,7.037-8.49,11.925-14.6,16.21-1.048.736-2.128,1.433-3.241,2.065a2.944,2.944,0,0,1-4.113-.764c-.877-1.409-.337-2.946,1.277-4.087,2.653-1.877,5.367-3.694,7.847-5.785a29.355,29.355,0,0,0,8.959-12.668c1.871-5.226,3.872-10.405,5.729-15.636a3.329,3.329,0,0,0,.05-2.575c-.747-1.012-3.206-1.075-4.146-.217a19.143,19.143,0,0,0-2.923,3.361c-2.126,3.137-4.132,6.355-6.189,9.539-5.3,8.2-13.024,13.337-21.63,17.482-6.345,3.055-12.652,6.225-18.76,9.722a62.527,62.527,0,0,0-9.308,7.006,10.811,10.811,0,0,0-3.606,8.594q.008,12.575,0,25.151a14.248,14.248,0,0,1-.047,1.76,2.738,2.738,0,0,1-5.442-.055,14.714,14.714,0,0,1-.036-1.6q0-12.575,0-25.151a11.828,11.828,0,0,0-3.622-8.776,51.935,51.935,0,0,0-12.646-8.934q-9.079-4.753-18.317-9.2a48.7,48.7,0,0,1-20.9-19.24c-1.742-2.871-3.606-5.68-5.581-8.4-1.375-1.892-2.661-2.143-4.612-1.55-1.212.369-1.629.959-1.16,2.227,1.794,4.856,3.634,9.7,5.264,14.611,2.993,9.014,9.235,15.193,17.074,20.043.181.112.373.208.553.323,1.6,1.024,2.085,2.521,1.287,3.943a2.812,2.812,0,0,1-4.183.827,105.935,105.935,0,0,1-8.643-6.325,38.708,38.708,0,0,1-10.632-14.994c-5.371-12.668-8.667-25.9-11.374-39.315a29.252,29.252,0,0,0-7.851-15.127,27.649,27.649,0,0,0-2.3-1.841,13.276,13.276,0,0,0-.387,2.645,70.344,70.344,0,0,0,.883,8.1c2.509,12.454,5.007,24.913,7.786,37.307a76.59,76.59,0,0,0,6.885,19.088,35.593,35.593,0,0,0,6.588,8.8,122.534,122.534,0,0,0,19.8,15.414,136.551,136.551,0,0,1,12.157,9.1,16.352,16.352,0,0,1,6.052,13.708c-.073,3.31,0,6.621-.024,9.932-.016,2.188-1,3.371-2.751,3.4-1.815.033-2.848-1.191-2.859-3.447-.017-3.578-.027-7.156-.007-10.733a10.854,10.854,0,0,0-3.41-8.007c-4.675-4.717-10.3-8.122-15.837-11.64a101.3,101.3,0,0,1-18.75-15.442c-5.186-5.4-8.045-12.149-10.421-19.116-3.718-10.9-5.863-22.181-8.021-33.456-1.144-5.977-2.42-11.935-3.3-17.951a26.6,26.6,0,0,1,.11-8.422c.816-4.55,4.872-6.258,8.733-3.682,2.215,1.478,3.979,3.644,5.9,5.552A20.172,20.172,0,0,1,1203.773,295.039Zm152.837-.7-.79-.149a44.939,44.939,0,0,0-1.361,4.438c-1.447,7.2-1.515,14.5-1.627,21.8-.021,1.356.709,1.725,2.006,1.692C1356.976,312.9,1359.951,303.8,1356.61,294.335Zm-145.8-.389c-3.38,3.836-2.24,22.533,1.391,28.2,1.268-.029,1.763-.688,1.718-1.939-.114-3.195-.02-6.405-.295-9.584-.37-4.291-.955-8.567-1.566-12.833A24.409,24.409,0,0,0,1210.815,293.946Zm9.962,10.6a4.952,4.952,0,0,0-1.645,4.028c.134,3.935.266,7.871.326,11.808.02,1.288.51,1.964,2.05,2.108C1221.989,316.436,1222.975,310.467,1220.777,304.544Zm125.805-.091c-2.262,2.38-2.559,14.581-1,18.025a1.752,1.752,0,0,0,1.7-1.893c.068-4.1.3-8.189.276-12.283A16.226,16.226,0,0,0,1346.583,304.453Zm-118.336,26.663c.671-4.85,1.633-9.209.441-13.761a3.713,3.713,0,0,0-1.21,2.006c-.383,2.468-.528,4.977-.982,7.43C1226.182,328.488,1226.848,329.624,1228.246,331.116Zm110.081-13.855-.722.269c-.6,4.458.126,8.816.931,13.533,1.4-1.454,2-2.64,1.705-4.308-.431-2.457-.6-4.96-.987-7.424A8.563,8.563,0,0,0,1338.327,317.261Z"
      transform="translate(-12.933 -70.247)" fill="#deb317" />
    <path id="Path_3792" data-name="Path 3792"
      d="M1320.111,266.491c.413-.521.659-.795.863-1.1,5.1-7.568,12.284-10.766,21.225-9.56,9.144,1.234,15.33,6.482,18.3,15.18,3.114,9.118,1.612,17.774-3.321,25.948a75.352,75.352,0,0,1-16.436,18.88c-5.765,4.815-11.928,9.153-17.9,13.72a3.862,3.862,0,0,1-4.986.061c-10.806-7.087-20.912-15-29.24-24.965-4.519-5.411-8.517-11.238-9.752-18.32-1.782-10.214.2-19.478,8.8-26.179,8.7-6.775,23.6-6.626,31.394,4.893C1319.346,265.48,1319.668,265.888,1320.111,266.491Zm-19.2-5.22a16.216,16.216,0,0,0-8.7,2.542c-6.9,4.55-8.795,11.377-8.258,19.1.383,5.5,3.047,10.187,6.212,14.545,7.866,10.833,18.19,18.976,29.148,26.416a1.661,1.661,0,0,0,2.158-.107,135.8,135.8,0,0,0,22.009-18.269c4.73-4.979,8.964-10.325,11.49-16.811a22.234,22.234,0,0,0-.273-17.171c-4.615-11.024-19.045-13.955-27.042-5.558a19.5,19.5,0,0,0-4.584,7.982c-.448,1.5-1.118,2.707-2.873,2.724-1.733.016-2.442-1.111-2.959-2.625a25.127,25.127,0,0,0-2.105-4.652C1312.052,264.161,1307.5,261.327,1300.91,261.27Z"
      transform="translate(-49.728 -57.967)" fill="#deb317" />
    <path id="Path_3793" data-name="Path 3793"
      d="M1186.272,233.783c.5.159,1.024.28,1.51.481q16.344,6.746,32.68,13.512c2.052.851,2.8,2.348,2.078,3.99-.684,1.547-2.245,2-4.245,1.176q-16.195-6.689-32.379-13.4a5.509,5.509,0,0,1-1.4-.748,2.377,2.377,0,0,1-.817-3.128,10.99,10.99,0,0,1,2.244-2.145Z"
      transform="translate(-11.448 -49.063)" fill="#deb317" />
    <path id="Path_3794" data-name="Path 3794"
      d="M1403.412,155.45c-.07.217-.187.682-.368,1.12q-5.324,12.863-10.667,25.716c-.756,1.817-2.235,2.541-3.8,1.932s-2.143-2.155-1.377-4.018q5.293-12.874,10.66-25.719c.709-1.7,1.912-2.372,3.35-2.075A2.941,2.941,0,0,1,1403.412,155.45Z"
      transform="translate(-93.545 -16.31)" fill="#deb317" />
    <path id="Path_3795" data-name="Path 3795"
      d="M1269.065,111.916c.4.347,1.53.879,1.9,1.741,2.995,6.948,5.868,13.948,8.723,20.954a2.776,2.776,0,1,1-5.122,2.1q-4.365-10.389-8.633-20.818C1265.088,113.818,1266.305,111.952,1269.065,111.916Z"
      transform="translate(-44.646)" fill="#deb317" />
    <path id="Path_3796" data-name="Path 3796"
      d="M1423.536,218.91c-.879-.639-1.934-1.025-2.259-1.742a5.027,5.027,0,0,1,.008-2.856c.1-.5.7-.91,1.116-1.323q7.13-7.14,14.276-14.262a8,8,0,0,1,1.329-1.145,2.515,2.515,0,0,1,3.361.381,2.592,2.592,0,0,1,.376,3.5,7.466,7.466,0,0,1-1.061,1.193c-4.865,4.874-9.721,9.757-14.624,14.593A16.24,16.24,0,0,1,1423.536,218.91Z"
      transform="translate(-107.345 -34.372)" fill="#deb317" />
    <path id="Path_3797" data-name="Path 3797"
      d="M1300.7,185.463a2.714,2.714,0,0,1-2.1,2.915,2.75,2.75,0,0,1-3.328-1.8c-1.757-4.177-3.478-8.37-5.217-12.555-1-2.413-2.028-4.816-3.007-7.238-.8-1.975-.288-3.557,1.293-4.175,1.626-.635,3.071.1,3.885,2.048q4.006,9.594,7.97,19.206A16.224,16.224,0,0,1,1300.7,185.463Z"
      transform="translate(-53.121 -20.364)" fill="#deb317" />
    <path id="Path_3798" data-name="Path 3798"
      d="M1282.936,236.6c-.65.849-1.093,2-1.848,2.265a4.343,4.343,0,0,1-3.08-.3,11.02,11.02,0,0,1-2.412-2.3c-4.071-4.066-8.177-8.1-12.179-12.231a4.015,4.015,0,0,1-1.219-2.731,3.155,3.155,0,0,1,1.8-2.266,3.648,3.648,0,0,1,2.969.782c3.685,3.466,7.217,7.1,10.8,10.669,1.244,1.241,2.53,2.446,3.709,3.747A16.25,16.25,0,0,1,1282.936,236.6Z"
      transform="translate(-43.242 -43.194)" fill="#deb317" />
    <path id="Path_3799" data-name="Path 3799"
      d="M1349.4,199.255c0,3.145.011,6.29,0,9.434-.011,2.141-1.031,3.4-2.721,3.429-1.723.026-2.792-1.215-2.8-3.335q-.019-9.595,0-19.189c0-2.036,1.029-3.236,2.7-3.268,1.705-.032,2.795,1.235,2.807,3.335.018,3.2,0,6.4,0,9.594Z"
      transform="translate(-76.198 -30.022)" fill="#deb317" />
    <path id="Path_3800" data-name="Path 3800"
      d="M1507.257,234.912c-1.643-.068-2.662-.784-2.977-2.19a2.658,2.658,0,0,1,1.759-3.208c3.577-1.524,7.176-2.995,10.769-4.481,1.92-.794,3.832-1.606,5.769-2.355,1.769-.684,3.295-.14,3.923,1.318.663,1.537-.026,3.09-1.809,3.837q-8.177,3.431-16.384,6.792A7.358,7.358,0,0,1,1507.257,234.912Z"
      transform="translate(-140.885 -44.571)" fill="#deb317" />
    <path id="Path_3801" data-name="Path 3801"
      d="M1420.534,111.924a2.69,2.69,0,0,1,2.638,3.255,6.248,6.248,0,0,1-.4,1.213c-2,4.829-4,9.661-6.03,14.478-.838,1.988-2.268,2.737-3.85,2.114-1.659-.654-2.152-2.224-1.294-4.308,1.991-4.834,4.015-9.655,6-14.49C1418.151,112.848,1418.938,111.88,1420.534,111.924Z"
      transform="translate(-103.356 -0.003)" fill="#deb317" />
    <path id="Path_3802" data-name="Path 3802"
      d="M1471.363,251.323c-.775-.763-1.814-1.4-2.257-2.32a2.366,2.366,0,0,1,1.153-3.149,26.612,26.612,0,0,1,3.055-1.38q4.2-1.757,8.421-3.483c1.994-.811,3.526-.353,4.22,1.213.717,1.621-.038,3.108-2.091,3.971-3.586,1.509-7.185,2.986-10.784,4.463-.437.179-.906.282-1.361.419Z"
      transform="translate(-126.632 -51.919)" fill="#deb317" />
    <path id="Path_3803" data-name="Path 3803"
      d="M1253.576,207.239c-.642.852-1.07,1.973-1.825,2.273a3.411,3.411,0,0,1-2.942-.22c-2.732-2.449-5.3-5.088-7.818-7.765a2.744,2.744,0,0,1,3.968-3.732c1.253,1.069,2.381,2.286,3.555,3.447,1.213,1.2,2.46,2.366,3.6,3.63A16.334,16.334,0,0,1,1253.576,207.239Z"
      transform="translate(-34.45 -34.374)" fill="#deb317" />
    <path id="Path_3804" data-name="Path 3804"
      d="M1349.389,161.938c0,1.489.027,2.978,0,4.467-.041,1.893-1.1,3.06-2.726,3.078a2.731,2.731,0,0,1-2.776-3.012c-.03-3.031-.036-6.063,0-9.093a2.748,2.748,0,1,1,5.491-.065C1349.427,158.852,1349.387,160.4,1349.389,161.938Z"
      transform="translate(-76.193 -17.171)" fill="#deb317" />
    <path id="Path_3805" data-name="Path 3805"
      d="M1412.348,236.644a15.021,15.021,0,0,1-1.472,2.411c-1.711,1.823-3.491,3.583-5.285,5.326a2.832,2.832,0,0,1-4.131.149,2.9,2.9,0,0,1,.1-4.04c1.844-1.917,3.747-3.779,5.654-5.634a2.418,2.418,0,0,1,3.072-.53A11.438,11.438,0,0,1,1412.348,236.644Z"
      transform="translate(-99.123 -49.249)" fill="#deb317" />
    <path id="Path_3806" data-name="Path 3806"
      d="M1167.3,227.331c-.039,2.438-1.747,3.774-3.58,3.141-2.463-.85-4.87-1.884-7.241-2.97a2.649,2.649,0,0,1-1.265-3.418,2.566,2.566,0,0,1,3.228-1.645,70.04,70.04,0,0,1,7.378,3.042C1166.587,225.858,1167.006,226.945,1167.3,227.331Z"
      transform="translate(0 -44.536)" fill="#deb317" />
    <path id="Path_3807" data-name="Path 3807"
      d="M1458.114,257.453a7.233,7.233,0,0,1-1.756,1.921,31.865,31.865,0,0,1-4.825,2.069,2.78,2.78,0,1,1-2.167-5.118c1.639-.754,3.305-1.466,5.006-2.065C1456.219,253.609,1458.045,254.9,1458.114,257.453Z"
      transform="translate(-118.036 -57.365)" fill="#deb317" />
  </g>
</svg>