<svg xmlns="http://www.w3.org/2000/svg" width="178.841" height="180.774" viewBox="0 0 178.841 180.774">
  <g id="Group_323" data-name="Group 323" transform="translate(-34.244 -965.018)">
    <path id="Path_3808" data-name="Path 3808" d="M134.745,1217.24c-15.939,0-31.882-.234-47.815.067-15.683.3-31.355,1.137-47.031,1.737-1.236.048-2.473.1-3.71.123a1.707,1.707,0,0,1-1.932-1.635c-.12-1.136.583-1.731,1.628-1.937a6.347,6.347,0,0,1,1.62-.173c1.616.108,1.971-.7,1.968-2.173q-.054-24.205-.011-48.412c0-2.042,1.209-2.857,3.187-2.256a1.666,1.666,0,0,1,1.277,1.888c-.069,3.691.062,3.031,3.146,3.088.049,0,.1,0,.148,0,3.228.005,3.228.005,3.4-3.243.066-1.265.872-1.952,2.284-1.95q2.148.005,2.234,1.969c.146,3.226.146,3.226,3.444,3.222.148,0,.3,0,.445,0,3.059.016,2.886.241,2.9-2.894.008-1.607.675-2.266,2.228-2.271s2.143.617,2.143,2.328q.012,23.464.01,46.928a3.487,3.487,0,0,0,.061,1.463,1.805,1.805,0,0,0,1.173.91c.317.033.845-.5,1.014-.891a3.95,3.95,0,0,0,.054-1.467q0-36.9.02-73.809c0-.841.035-2.17.509-2.427a10.7,10.7,0,0,1,4.043-1.119,4.459,4.459,0,0,1,2.493.842,2.246,2.246,0,0,1,.808,1.548,36.617,36.617,0,0,1,.038,4.006c-.021.946.4,1.349,1.332,1.341q3.267-.028,6.534,0c.97.01,1.311-.46,1.288-1.376-.031-1.236.033-2.476-.014-3.712a1.935,1.935,0,0,1,1.432-2.092,6.03,6.03,0,0,1,5.14.029c.942.417,1.454.886,1.4,1.961-.059,1.284.022,2.574-.015,3.86-.027.933.315,1.355,1.291,1.337q3.192-.059,6.385,0c.952.015,1.343-.362,1.315-1.316-.04-1.335.027-2.674-.015-4.009-.029-.945.433-1.368,1.251-1.76a5.537,5.537,0,0,1,5.519.05,2.573,2.573,0,0,1,1.148,1.609,25.084,25.084,0,0,1,.052,4c-.029,1,.351,1.445,1.386,1.426,2.128-.04,4.258-.035,6.385-.005,1.034.015,1.409-.461,1.38-1.449-.037-1.286.018-2.575-.015-3.861a1.736,1.736,0,0,1,1.2-1.788,5.775,5.775,0,0,1,5.665.138,2.312,2.312,0,0,1,1.049,1.515,27.043,27.043,0,0,1,.041,4c-.033.97.257,1.473,1.332,1.449q3.192-.072,6.385,0c1,.021,1.3-.431,1.272-1.347-.036-1.336.025-2.673-.014-4.009-.027-.941.427-1.361,1.253-1.752a5.523,5.523,0,0,1,5.513.077,2.8,2.8,0,0,1,1.23,1.712,22.223,22.223,0,0,1,.06,3.852c-.021.962.3,1.483,1.362,1.464,2.128-.038,4.257-.022,6.385-.008.876.006,1.253-.4,1.24-1.267-.018-1.336.028-2.673.006-4.01-.016-.979.443-1.431,1.337-1.854a6.109,6.109,0,0,1,5.42.048,1.713,1.713,0,0,1,1.235,1.78c-.037,1.335.023,2.674-.015,4.009-.027.96.38,1.323,1.327,1.307,2.128-.036,4.258-.047,6.385,0,1.056.026,1.4-.43,1.365-1.42a24.961,24.961,0,0,1,.033-4,2.575,2.575,0,0,1,1.146-1.614,5.382,5.382,0,0,1,5.637.029,2.975,2.975,0,0,1,1.063,1.387,3.5,3.5,0,0,1,.038,1.323q0,36.9,0,73.808c0,.494-.153,1.087.065,1.459a2.379,2.379,0,0,0,1.311.992c.2.057.71-.585.9-.992a2.987,2.987,0,0,0,.042-1.174q0-23.464,0-46.928c0-2.178,1.2-3.027,3.227-2.328a1.737,1.737,0,0,1,1.245,1.919c.012,3.339-.441,3.026,3.154,3.043h.148c3.29-.007,3.339-.006,3.413-3.246.035-1.519,1-1.808,2.141-1.9,1.445-.111,2.251.573,2.337,1.841.223,3.292.223,3.3,3.695,3.3,3.512-.006,3.038.333,3.106-2.936.033-1.58.7-2.244,2.253-2.232s2.247.7,2.247,2.262q0,24.132,0,48.265c0,2.326,0,2.326,2.272,2.535l.148.014c1.946.186,2.8.821,2.728,2.031s-.985,1.755-2.947,1.65c-23.134-1.23-46.28-2.037-69.45-2.059q-2.969,0-5.937,0Zm-9.929-26.261h.01c0-6.977.013-13.954-.012-20.931,0-1.277.305-1.681,1.652-1.179,4.029,1.5,8.075,2.968,12.171,4.271,1.583.5,2,1.308,1.993,2.879-.058,11.875-.03,23.751-.035,35.627,0,.879-.063,1.717,1.238,1.686,1.228-.029,1.121-.851,1.121-1.651q0-18.853.02-37.706a2.2,2.2,0,0,0-1.727-2.376c-5.23-1.815-10.439-3.691-15.649-5.56a4.915,4.915,0,0,0-3.58-.122c-5.144,1.906-10.3,3.8-15.508,5.51-1.721.566-2.137,1.487-2.13,3.144.053,12.124.031,24.246.033,36.37a3.133,3.133,0,0,0,.052,1.317c.22.424.722.986,1.083.973.377-.014.866-.581,1.059-1.016a3.874,3.874,0,0,0,.054-1.467c0-11.629.011-23.257-.029-34.885,0-1.367.281-2.3,1.769-2.6a17.389,17.389,0,0,0,2.235-.781c3.5-1.233,7-2.439,10.482-3.712,1.013-.37,1.4-.085,1.394.931,0,.643.008,1.286.008,1.93q0,19.595,0,39.19a5.077,5.077,0,0,0,.067,1.618,1.314,1.314,0,0,0,.953.774,1.672,1.672,0,0,0,1.188-.735,3.277,3.277,0,0,0,.089-1.458Q124.819,1201,124.816,1190.979Z" transform="translate(0 -73.375)" fill="#deb317"/>
    <path id="Path_3809" data-name="Path 3809" d="M171.035,1065q12.77,0,25.541,0c1.915,0,1.8.09,2.03,2.018a7.594,7.594,0,0,1-3.55,7.883c-3.512,2.463-6.663,5.441-9.971,8.2-1.835,1.528-1.747,1.993.322,2.981a2.03,2.03,0,0,1,.741,1.529c.058,1.3-.1,2.587,1.342,3.347.239.126.336.7.341,1.063.03,2.771.083,5.546-.027,8.313a2.379,2.379,0,0,1-1.106,1.624,13.212,13.212,0,0,1-3.047,1.134,2.3,2.3,0,0,0-1.93,2.711c.029.295.008.594.009.891.008,3.124-.046,3.15-3.148,2.949-.889-.058-1.245-.438-1.236-1.283.01-.99-.039-1.981.007-2.969a2.032,2.032,0,0,0-1.588-2.2,20.02,20.02,0,0,0-3.361-1.132,7.422,7.422,0,0,0-3.287.238c-4.192,1.379-4.209,1.431-4.3,5.812-.024,1.178-.473,1.533-1.6,1.541-2.885.018-2.882.058-2.881-2.783,0-3.148.218-3.022-2.839-4.1-3.639-1.279-3.009-.6-3.059-4.441-.021-1.633-.012-3.267,0-4.9.009-1.194-.245-2.375,1.174-3.215.5-.3.5-1.61.534-2.467.042-1,.2-1.634,1.373-1.883,1.338-.284,1.4-1.336.15-2.392-2.9-2.464-5.845-4.887-8.771-7.327-1.482-1.236-3.015-2.417-4.416-3.74a3.22,3.22,0,0,1-.856-1.9c-.131-1.323,0-2.67-.052-4-.045-1.081.382-1.525,1.469-1.506,2.177.039,4.356.008,6.534.007Zm-14.482,9.64h-.006c0,.938.028,1.877-.008,2.813-.035.9.385,1.242,1.243,1.232q2.516-.028,5.035,0c.876.011,1.241-.366,1.223-1.248-.034-1.678,0-3.356-.012-5.035a3.438,3.438,0,0,0-3.657-3.556c-2.084-.034-4.169,1.632-3.838,3.572A13.408,13.408,0,0,1,156.553,1074.635Zm28.953.078c0-.888.025-1.776-.006-2.661a3.4,3.4,0,0,0-3.683-3.2,3.342,3.342,0,0,0-3.663,3.2c-.028,1.083-.014,2.169,0,3.253.043,3.846-.471,3.36,3.383,3.378C185.518,1078.7,185.518,1078.687,185.506,1074.713Z" transform="translate(-47.406 -43.348)" fill="#deb317"/>
    <path id="Path_3810" data-name="Path 3810" d="M189.316,1014.047H127.548c.8-.712,1.227-1.149,1.709-1.513q13.442-10.138,26.911-20.242a3.108,3.108,0,0,0,1.4-2.859c-.079-3.165-.1-6.335.006-9.5.048-1.512-.613-1.991-1.967-2.387-7.11-2.078-14.242-1.174-21.358-.251a35.029,35.029,0,0,1-18.732-2.447c-.075-.032-.113-.151-.434-.605.915,0,1.584.026,2.251,0a96.457,96.457,0,0,0,10.759-.607c2.432-.386,4.743-1.645,7.057-2.633a53.776,53.776,0,0,1,20.336-4.275c.972-.018,2.045.214,2.3-1.227a.948.948,0,0,1,.806-.475,1.278,1.278,0,0,1,.824.709,5.491,5.491,0,0,1,.122,1.615c.005,7.373.025,14.745-.02,22.118a3.012,3.012,0,0,0,1.337,2.736q13.77,10.2,27.477,20.481c.416.311.78.69,1.168,1.038Z" transform="translate(-35.055)" fill="#deb317"/>
    <path id="Path_3811" data-name="Path 3811" d="M66.316,1115.495c0-7.816.031-15.632-.027-23.448-.011-1.449.36-2,1.907-1.98,6.232.078,12.466.068,18.7.006,1.472-.015,2,.433,1.983,1.944-.064,6.43-.049,12.862-.008,19.292.008,1.318-.384,1.372-1.7,1.5a24.305,24.305,0,0,0-6.411,1.92c-.39.154-.534,1.314-.537,2.011-.039,7.469-.024,14.94-.028,22.409,0,1.841-.027,1.614-1.811,1.759a11.676,11.676,0,0,0-4.284,1.4c-.442.229-.467,1.385-.557,2.134-.095.8.049,1.658-1.171,1.622-1.148-.035-1.077-.891-1-1.6.2-1.783-.628-2.68-2.306-3-.477-.092-.914-.43-1.39-.493-1.158-.155-1.377-.85-1.373-1.877.025-6.332.01-12.664.008-19Q66.316,1117.795,66.316,1115.495Zm8.571-17.251c0,1.163.012,2,0,2.845-.015.809.37,1.176,1.169,1.169,4.927-.04,4.043.6,4.136-3.7a5.89,5.89,0,0,1,.008-.889c.312-1.747-.569-2.9-1.832-3.925a1.177,1.177,0,0,0-1.682,0A4.219,4.219,0,0,0,74.887,1098.244Z" transform="translate(-13.895 -54.222)" fill="#deb317"/>
    <path id="Path_3812" data-name="Path 3812" d="M300.7,1115.543c0,7.671-.027,15.342.025,23.013.009,1.373-.227,2.319-1.781,2.511a14.692,14.692,0,0,0-1.4.488,2.209,2.209,0,0,0-1.973,2.641,1.691,1.691,0,0,1-.074,1.017c-.237.352-.672.791-1.018.788-.33,0-.8-.468-.945-.835-.172-.431.087-1.045-.107-1.453-.33-.694-.745-1.649-1.343-1.854a17.878,17.878,0,0,0-4.4-.793c-1-.077-.959-.644-.96-1.3q-.007-4.826,0-9.651c0-4.553-.044-9.107.02-13.659a2.141,2.141,0,0,0-1.8-2.459c-1.976-.462-3.757-1.914-5.993-1.166-.153.051-.656-.473-.74-.8a6.588,6.588,0,0,1-.056-1.624c0-6.137.042-12.274-.025-18.41-.016-1.513.488-1.946,1.973-1.929,6.186.071,12.372.025,18.558.027,1.95,0,2.029.067,2.031,1.986q.011,11.729,0,23.458Zm-13.941-17.274c0,1.2-.021,2.045,0,2.885.048,1.581,1.322,1.193,2.089,1.052,1.069-.2,2.789,1.07,3.116-1.05.179-1.161-.063-2.382.07-3.555a4,4,0,0,0-1.739-3.82c-.686-.551-1.115-.461-1.8.015A4.168,4.168,0,0,0,286.757,1098.269Z" transform="translate(-105.751 -54.224)" fill="#deb317"/>
    <path id="Path_3813" data-name="Path 3813" d="M256.784,1015.6c.45,0,.9-.038,1.349.006a13.055,13.055,0,0,0,7.86-1.606,25.411,25.411,0,0,1,11.843-3.456c.47-.012.932-.625,1.383-.977.321-.251.716-.808.907-.741a1.789,1.789,0,0,1,.947.947,4.158,4.158,0,0,1,.091,1.467c.007,7.272.028,14.545-.008,21.818a3.231,3.231,0,0,0,1.209,2.687c3.943,3.455,7.836,6.967,11.738,10.469.389.348.716.765,1.35,1.451H264.944a12.289,12.289,0,0,1,1.123-1.388c3.933-3.541,7.867-7.082,11.843-10.574a3.229,3.229,0,0,0,1.261-2.67c-.049-4.452-.039-8.905,0-13.358.01-1.135-.261-1.763-1.507-2.1-3.252-.871-6.475-.557-9.714-.1-3.464.488-6.9.722-10.183-.858-.369-.178-.719-.4-1.077-.6Z" transform="translate(-96.456 -18.995)" fill="#deb317"/>
    <path id="Path_3814" data-name="Path 3814" d="M82.983,1047.763H52.878a11.682,11.682,0,0,1,1.093-1.389c3.973-3.573,7.946-7.145,11.96-10.671a3.221,3.221,0,0,0,1.252-2.673q-.083-6.679-.006-13.361a1.8,1.8,0,0,0-1.559-2.079c-3.351-.92-6.674-.533-10.011-.059-3.372.479-6.705.612-9.889-.906-.4-.193-.784-.434-1.176-.654l.116-.415c.557.025,1.116.029,1.67.078a13.02,13.02,0,0,0,7.706-1.649,24.094,24.094,0,0,1,11.707-3.373c.753-.005,1.33-.122,1.52-1.036a1.175,1.175,0,0,1,.9-.725c.313.034.7.5.827.857a4.585,4.585,0,0,1,.1,1.469c0,7.175.024,14.351-.024,21.526a3.809,3.809,0,0,0,1.426,3.2c3.96,3.436,7.84,6.965,11.742,10.467.348.312.638.689.955,1.035Z" transform="translate(-4.465 -19.006)" fill="#deb317"/>
    <path id="Path_3815" data-name="Path 3815" d="M235.322,1110.442c2.621,0,5.243.044,7.863-.02,1.242-.031,1.641.453,1.618,1.657q-.088,4.449,0,8.9c.024,1.321-.575,1.661-1.619,1.12-2.932-1.521-5.347.253-7.872,1.189-.393.146-.728.9-.783,1.411a28.358,28.358,0,0,0-.048,3.408c.011.791-.325,1.212-1.134,1.21-.1,0-.2,0-.3.006-3.025.134-3.025.134-3.013-2.907.012-2.832.029-2.88-2.709-3.876a1.981,1.981,0,0,1-1.527-2.174c.058-2.768.049-5.539.008-8.307-.018-1.195.413-1.675,1.656-1.641C230.079,1110.493,232.7,1110.443,235.322,1110.442Zm-.167,8.62c2.536.01,2.536.01,2.548-1.864.009-1.495-1.39-3.631-2.385-3.641-.948-.011-2.441,2.11-2.449,3.476C232.859,1118.96,232.964,1119.054,235.155,1119.063Z" transform="translate(-83.059 -63.047)" fill="#deb317"/>
    <path id="Path_3816" data-name="Path 3816" d="M134.676,1110.443c2.623,0,5.247.042,7.869-.019,1.176-.027,1.561.421,1.538,1.565-.056,2.721-.105,5.448.016,8.165a2.176,2.176,0,0,1-1.742,2.463c-2.638.937-2.622.983-2.623,3.8v.148c0,2.755-.75,3.379-3.443,2.694a1.564,1.564,0,0,1-.827-1.13,16.589,16.589,0,0,1-.039-2.964,2.046,2.046,0,0,0-1.541-2.238,20.2,20.2,0,0,0-3.5-1.186,8.413,8.413,0,0,0-3.286.264c-1.632.425-1.846.367-1.851-1.28-.008-2.92.036-5.841-.017-8.76-.022-1.174.438-1.564,1.578-1.541C129.428,1110.479,132.052,1110.443,134.676,1110.443Zm-.053,8.622c2.406-.005,2.416-.012,2.422-1.874.005-1.458-1.446-3.684-2.4-3.681-.979,0-2.461,2.218-2.452,3.666C132.2,1119.016,132.274,1119.07,134.623,1119.065Z" transform="translate(-39.452 -63.049)" fill="#deb317"/>
    <path id="Path_3817" data-name="Path 3817" d="M169.406,1058.737q-13.884,0-27.767.013c-1.04,0-1.726-.157-1.668-1.436.042-.921.351-1.388,1.312-1.358.89.027,1.782.008,2.673.008q26.579,0,53.158,0c.8,0,1.767-.265,1.97.992.216,1.335-.189,1.779-1.763,1.78q-13.958.01-27.916,0Z" transform="translate(-45.843 -39.426)" fill="#deb317"/>
    <path id="Path_3818" data-name="Path 3818" d="M223.146,1090.608a9.566,9.566,0,0,1,.926-1.134c3.033-2.539,6.1-5.038,9.11-7.6a1.43,1.43,0,0,1,2.181.08c2.941,2.494,5.918,4.948,8.87,7.429a13.539,13.539,0,0,1,1.086,1.227Z" transform="translate(-81.91 -50.466)" fill="#deb317"/>
    <path id="Path_3819" data-name="Path 3819" d="M122.323,1090.628a15.625,15.625,0,0,1,1.193-1.318c2.877-2.417,5.784-4.8,8.646-7.234.835-.71,1.5-.891,2.425-.094,3,2.575,6.073,5.071,9.1,7.613a6.392,6.392,0,0,1,.747,1.034Z" transform="translate(-38.192 -50.49)" fill="#deb317"/>
    <path id="Path_3820" data-name="Path 3820" d="M76.167,1081.776c3.8,0,7.6.006,11.407,0,.852,0,1.621.043,1.631,1.188s-.74,1.207-1.6,1.206q-11.407-.013-22.815,0c-.829,0-1.623,0-1.628-1.176,0-1.154.753-1.222,1.6-1.221q5.7,0,11.408,0Z" transform="translate(-12.538 -50.624)" fill="#deb317"/>
    <path id="Path_3821" data-name="Path 3821" d="M288.049,1081.757q5.639,0,11.278,0c.874,0,1.752-.045,1.731,1.23-.022,1.29-.939,1.168-1.786,1.168q-11.2.005-22.407,0c-.682,0-1.584.27-1.763-.84-.193-1.193.4-1.577,1.522-1.569,3.808.028,7.617.011,11.426.011Z" transform="translate(-104.423 -50.612)" fill="#deb317"/>
    <path id="Path_3822" data-name="Path 3822" d="M133.284,1104.482h-9.489c-.835,0-1.617-.03-1.612-1.2,0-1.13.7-1.233,1.585-1.231q9.414.025,18.83.015c.148,0,.3,0,.445,0,.822,0,1.469.168,1.483,1.2s-.623,1.2-1.455,1.2c-3.262-.007-6.524,0-9.785,0Z" transform="translate(-38.131 -59.419)" fill="#deb317"/>
    <path id="Path_3823" data-name="Path 3823" d="M234.106,1102.071q4.745,0,9.489,0c.908,0,1.737.085,1.7,1.3-.037,1.178-.91,1.11-1.707,1.111q-9.489.008-18.979,0c-.8,0-1.637.078-1.673-1.125-.038-1.257.785-1.289,1.681-1.287Q229.361,1102.076,234.106,1102.071Z" transform="translate(-81.819 -59.427)" fill="#deb317"/>
  </g>
</svg>
