<svg xmlns="http://www.w3.org/2000/svg" width="279.91" height="113.137" viewBox="0 0 279.91 113.137">
  <path id="Path_3771" data-name="Path 3771"
    d="M235.731,114.909a17.958,17.958,0,0,0-5.26-5.271c-.79-.928-1.526-1.931-2.4-2.785-18.8-18.587-37.719-37.057-56.349-55.816-3.18-3.19-4.62-2.988-7.661.1-26.409,26.793-53.052,53.351-79.493,80.111-2.24,2.273-3.457,2.369-5.836.4-7.1-5.89-14.49-11.417-21.6-17.3-2.048-1.686-3.318-1.878-5.3.021-4.332,4.151-8.9,8.067-13.37,12.068Q19.191,143.175-.09,159.916l1.537,1.953c13.209-9.486,25.854-19.761,38.487-30.037a.473.473,0,0,0,.587-.523c.587-.459,1.174-.918,1.749-1.366q5.858-4.305,11.727-8.6c2.177,8.515,3.884,16.549-5.911,21.81,7.394,2.134,7.33,2.113,5.409,8.515-.853,2.86-2.315,5.57-2.294,8.664,12.292,1.526,12.3,1.526,20.7-6.509q12.132-11.588,24.274-23.186,33.563-31.9,67.147-63.775c.107-.427.214-.981.8-.587.117.075-.182.779-.288,1.184-3.681,8.238-7.266,16.528-11.118,24.68-1.611,3.436-1.707,5.026,2.892,4.663,4.631-.363,9.315-.075,14.917-.075-11.695,14.618-22.61,28.276-33.7,42.147l15.451,6.37c-6.253,5.24-11.951,10.02-18.172,15.248,22.792,1.643,22.792,1.643,37.1-14.255.234-.256.458-.534.693-.8,11.716-12.8,23.432-25.608,35.564-38.871,2.529,5.752,4.439,10.894,3.009,16.688-.47,3.265-.939,6.541-1.43,9.976,2.923-.032,4.663-1.8,6.828-2.379,2.295-.619,4.066-3.094,6.85-1.964,6.477,5.944,12.271,13,20.38,16.571,11.758,5.186,23.976,9.337,35.991,13.936.245-.342.48-.694.725-1.035C265.394,143.6,250.808,129,235.731,114.909Zm-8.974,5.549c-.085-.2.2-.566.331-.864.288.128.757.192.832.405s-.2.566-.331.865C227.3,120.736,226.843,120.671,226.757,120.458Z"
    transform="translate(0.09 -48.732)" fill="#deb317" />
</svg>