<svg xmlns="http://www.w3.org/2000/svg" width="167.322" height="193.139" viewBox="0 0 167.322 193.139">
  <g id="Group_319" data-name="Group 319" transform="translate(-1534.7 -771.02)">
    <path id="Path_3759" data-name="Path 3759"
      d="M1701.99,865.579q.006-22.321.012-44.634c0-1.087.028-2.009-1.2-2.7-7.6-4.252-15.131-8.629-22.713-12.913-11.041-6.244-21.969-12.678-32.979-18.975-8.415-4.818-16.675-9.922-25.078-14.78a2.785,2.785,0,0,0-3.261-.065q-25.195,14.725-50.458,29.337-15.052,8.717-30.162,17.314a2.52,2.52,0,0,0-1.439,2.55q.042,46.649-.012,93.3a2.649,2.649,0,0,0,1.609,2.655c5.674,3.2,11.292,6.5,16.93,9.76q26.65,15.4,53.291,30.812c3.876,2.251,7.917,4.244,11.546,6.911h.4c.344-.639,1.026-.837,1.588-1.164,8.584-4.983,17.184-9.93,25.765-14.913q18.478-10.718,36.935-21.464c5.816-3.371,11.635-6.729,17.512-9.987a2.931,2.931,0,0,0,1.742-2.987C1701.969,897.62,1701.99,881.6,1701.99,865.579Zm-9.979,42.929c0,1.261-.622,1.734-1.552,2.267q-35.4,20.448-70.762,40.952a2.348,2.348,0,0,1-2.732.061q-35.446-20.563-70.957-41.017a2.518,2.518,0,0,1-1.394-2.57q.055-20.5.024-41c0-13.466.028-26.932-.028-40.4a2.961,2.961,0,0,1,1.705-3.007q35.331-20.363,70.589-40.847a2.406,2.406,0,0,1,2.764-.081q32.142,18.708,64.328,37.343c2.255,1.309,4.518,2.6,6.822,3.823a2.021,2.021,0,0,1,1.208,2.061Q1691.979,867.3,1692.011,908.508Z"
      fill="#deb317" />
    <path id="Path_3760" data-name="Path 3760"
      d="M1612.042,876.66V986.108c-2.514-1.463-4.818-2.789-7.1-4.151-.646-.388-.6-1.164-.772-1.8q-7.19-27.177-14.384-54.358a1.184,1.184,0,0,0-.748-.877v32.692c.028,4.571.04,9.142.1,13.717.016,1.289-.457,1.386-1.4.732-.053-.04-.109-.077-.166-.113-2.312-1.366-5.355-2.231-6.733-4.236-1.4-2.029-.4-5.214-.4-7.889-.024-20.244.012-40.492-.032-60.736a2.9,2.9,0,0,1,1.709-3.019c2.089-1.075,4.114-2.283,6.119-3.508.929-.57,1.41-.525,1.689.622.408,1.693.913,3.363,1.378,5.04q4.341,14.707,8.677,29.406a15.207,15.207,0,0,0,1.439,3.573v-2.251c0-14.671.02-29.341-.052-44.012a3.18,3.18,0,0,1,1.932-3.286C1606.189,880.128,1608.982,878.422,1612.042,876.66Z"
      transform="translate(-27.049 -62.945)" fill="#deb317" />
    <path id="Path_3761" data-name="Path 3761"
      d="M1855.061,909.717c-.99.174-1.463-.513-2.033-.893-3.4-2.283-6.766-4.62-10.164-6.911-.586-.4-1.087-1.043-1.932-.93q-.018,31.13-.04,62.255c.024,4.155.032,8.309.089,12.46a1.748,1.748,0,0,1-.974,1.778q-4.3,2.407-8.536,4.914c-1.035.61-1.431.392-1.406-.812.057-2.748.065-5.492.1-8.237-.036-.8-.105-1.609-.105-2.413q-.018-37.168.02-74.335a3.4,3.4,0,0,0-1.847-3.387c-3.346-2-6.563-4.227-9.885-6.268-1.156-.707-1.532-1.305-.622-2.5.974-1.277,1.786-2.68,2.672-4.029.218-.416.453-.82.647-1.245.594-1.309,1.249-1.6,2.6-.671a117.162,117.162,0,0,0,10.415,6.636c6.741,3.645,12.961,8.111,19.541,12a2.679,2.679,0,0,1,1.5,2.736C1855,903.142,1855.061,906.423,1855.061,909.717Z"
      transform="translate(-168.336 -63.715)" fill="#deb317" />
    <path id="Path_3762" data-name="Path 3762"
      d="M1734.662,844.937c-1.18,1.867-2.384,3.718-3.528,5.61-.437.727-.849.889-1.6.424q-9.506-5.838-19.044-11.635c-3.282-2.934-6.511-2.441-9.724.129a2.5,2.5,0,0,1-.744.271c-2.5,1.435-4.975,2.922-7.521,4.276a2.283,2.283,0,0,0-1.419,2.328q.049,22.321-.032,44.638c-.008,1.7.606,1.988,2.1,1.98,10.973-.048,21.945.008,32.918-.069,1.718-.012,2.385.335,2.267,2.195a73.646,73.646,0,0,0-.012,8.071c.073,1.572-.372,2.045-1.992,2.033-10.908-.073-21.812.008-32.716-.085-1.968-.02-2.595.368-2.583,2.494.1,18.716.073,37.432.081,56.148v2.591c-3.419-2.215-6.515-4.191-9.566-6.224-.812-.542-.444-1.5-.444-2.263q-.018-47.267,0-94.526c0-6.527.093-13.054.141-19.581-.032-.129-.073-.259-.1-.392-.55-3.1.424-5.092,3.431-6.7,6.741-3.613,13.244-7.679,19.807-11.627a2.425,2.425,0,0,1,2.9-.02c5.929,3.569,11.979,6.935,17.835,10.617,2.793,1.754,5.622,3.451,8.414,5.209C1736.012,842.391,1736.057,842.326,1734.662,844.937Z"
      transform="translate(-87.172 -31.881)" fill="#deb317" />
  </g>
</svg>