<svg xmlns="http://www.w3.org/2000/svg" width="153.235" height="204.989" viewBox="0 0 153.235 204.989">
  <g id="OBJECT" transform="translate(-291.985 -215.142)">
    <g id="Group_875" data-name="Group 875" transform="translate(291.985 215.142)">
      <g id="Group_868" data-name="Group 868" transform="translate(57.438 150.434)">
        <g id="Group_867" data-name="Group 867" transform="translate(0 9.953)">
          <path id="Path_4972" data-name="Path 4972" d="M407.374,445.571H381.836s-8.373,8.774-7.221,21.684a35.576,35.576,0,0,1,4.249-4.069.473.473,0,0,1,.748.457c-.452,2.916-.064,11.665,14.993,26.529,15.057-14.864,15.445-23.613,14.993-26.529a.473.473,0,0,1,.748-.457,35.576,35.576,0,0,1,4.249,4.069C415.747,454.345,407.374,445.571,407.374,445.571Z" transform="translate(-374.506 -445.571)" fill="#deb317"/>
        </g>
        <path id="Path_4973" data-name="Path 4973" d="M400.1,431.271v.008s-16.352,12.978,0,35.333V466.6C416.456,444.249,400.1,431.271,400.1,431.271Z" transform="translate(-380.078 -431.271)" fill="#deb317"/>
        <path id="Path_4974" data-name="Path 4974" d="M401.38,443.191v0s-9.772,7.756,0,21.116v0C411.153,450.947,401.38,443.191,401.38,443.191Z" transform="translate(-381.355 -434.894)" fill="#deb317"/>
      </g>
      <g id="Group_869" data-name="Group 869" transform="translate(53.853 147.735)">
        <path id="Path_4975" data-name="Path 4975" d="M376.915,437.153l1.857,3.582a4.6,4.6,0,0,0,4.083,2.482h24.636a4.6,4.6,0,0,0,4.083-2.482l1.856-3.582Z" transform="translate(-371.654 -430.36)" fill="#deb317"/>
        <path id="Path_4976" data-name="Path 4976" d="M369.356,427.393l2.392,4.614a5.924,5.924,0,0,0,5.26,3.2h31.735a5.924,5.924,0,0,0,5.26-3.2l2.392-4.614Z" transform="translate(-369.356 -427.393)" fill="#deb317"/>
      </g>
      <g id="Group_872" data-name="Group 872" transform="translate(0 113.24)">
        <g id="Group_870" data-name="Group 870" transform="translate(99.473)">
          <path id="Path_4977" data-name="Path 4977" d="M447.587,377.834s40.871,10.989,41.072,51.3c0,0-35.962-31.959-53.761-23.379Z" transform="translate(-434.898 -377.834)" fill="#deb317"/>
        </g>
        <g id="Group_871" data-name="Group 871" transform="translate(0 0.243)">
          <path id="Path_4978" data-name="Path 4978" d="M333.97,378.183s-41.061,10.255-41.985,50.552c0,0,36.529-31.309,54.172-22.412Z" transform="translate(-291.985 -378.183)" fill="#deb317"/>
        </g>
      </g>
      <path id="Path_4979" data-name="Path 4979" d="M414.148,248.542a126.545,126.545,0,0,0-19.446-33.4l-.006.046-.006-.046a126.4,126.4,0,0,0-19.3,33.04A82.326,82.326,0,0,1,414.148,248.542Z" transform="translate(-317.337 -215.142)" fill="#deb317"/>
      <path id="Path_4980" data-name="Path 4980" d="M409.522,266.385h.007l-.536-1.364a79.8,79.8,0,0,0-38.735-.369.054.054,0,0,1-.021.007l-.675,1.726c-8.6,22.259-11.123,45.444-11.123,65.01,0,5.081.174,9.919.452,14.436a232.916,232.916,0,0,0,3.035,25.914c.3,1.65.571,3.07.807,4.239a4.844,4.844,0,0,0,4.65,3.877.6.6,0,0,0,.111.007H411.59a.933.933,0,0,0,.139-.007,4.848,4.848,0,0,0,4.622-3.877c.244-1.211.529-2.68.828-4.392a232.086,232.086,0,0,0,3.028-25.955C421.543,323.759,420.325,294.345,409.522,266.385Zm-32.415,38.2v-.014c-.007-.139-.007-.278-.007-.418a12.435,12.435,0,0,1,23.631-5.415,12.44,12.44,0,0,0-3.988-6.216,12.562,12.562,0,1,1-19.635,12.062Z" transform="translate(-312.185 -229.531)" fill="#deb317"/>
      <g id="Group_874" data-name="Group 874" transform="translate(60.148 56.099)">
        <path id="Path_4981" data-name="Path 4981" d="M394.82,295.74a16.42,16.42,0,1,0,16.413,16.42A16.418,16.418,0,0,0,394.82,295.74Zm.793,29.749a12.558,12.558,0,0,1-12.438-10.8v-.014c-.007-.139-.007-.278-.007-.418a12.435,12.435,0,0,1,23.631-5.415,12.44,12.44,0,0,0-3.988-6.216,12.561,12.561,0,0,1-7.2,22.858Z" transform="translate(-378.4 -295.74)" fill="#deb317"/>
        <path id="Path_4982" data-name="Path 4982" d="M408.829,310.865A12.435,12.435,0,0,0,385.2,316.28c0,.139,0,.278.007.418a12.1,12.1,0,0,1-.125-1.754,12.562,12.562,0,0,1,19.754-10.3l.007.007A12.44,12.44,0,0,1,408.829,310.865Z" transform="translate(-380.43 -297.758)" fill="#deb317"/>
        <g id="Group_873" data-name="Group 873" transform="translate(3.974 3.974)" opacity="0.08">
          <path id="Path_4983" data-name="Path 4983" d="M408.534,310.582A12.435,12.435,0,0,0,384.9,316c0,.139,0,.278.007.418v.014a12.27,12.27,0,0,0,.452,2.882,12.432,12.432,0,0,1,19.176-14.951l.007.007A12.44,12.44,0,0,1,408.534,310.582Z" transform="translate(-384.11 -301.45)" fill="#deb317"/>
        </g>
      </g>
      <path id="Path_4984" data-name="Path 4984" d="M400.779,383.816c-13.413,30.53,0,56.925,0,56.925S414.192,414.346,400.779,383.816Z" transform="translate(-323.242 -266.412)" fill="#deb317"/>
    </g>
  </g>
</svg>
