<svg xmlns="http://www.w3.org/2000/svg" width="64.083" height="56.317" viewBox="0 0 64.083 56.317">
    <path id="Path_41" data-name="Path 41"
        d="M748.185,724.086v1.753a15.654,15.654,0,0,1-.689,2.19,7.329,7.329,0,0,1-7.084,4.442q-24.279.013-48.559,0c-.271,0-.543,0-.812-.027a7.285,7.285,0,0,1-4.217-1.708,7.468,7.468,0,0,1-1.561-9.781q7.652-12.907,15.318-25.806c3.1-5.214,6.171-10.442,9.317-15.626a6.849,6.849,0,0,1,5.7-3.351,7.457,7.457,0,0,1,7.259,4.07q11.325,19.124,22.685,38.228C746.6,720.258,747.826,721.97,748.185,724.086ZM719.843,711.8V693.079h-7.412V711.8Zm.008,11.255v-7.435h-7.433v7.435Z"
        transform="translate(-684.103 -676.159)" />
</svg>