<svg xmlns="http://www.w3.org/2000/svg" width="64.082" height="64.111" viewBox="0 0 64.082 64.111">
    <g id="Group_5" data-name="Group 5" transform="translate(-210.51 -297.26)">
        <path id="Path_52" data-name="Path 52"
            d="M210.51,323.435v-3.38c.122-.822.23-1.646.367-2.466a24.473,24.473,0,1,1,12.463,25.663,2.036,2.036,0,0,0-1.69-.184c-3.527,1-7.064,1.96-10.6,2.931a3.922,3.922,0,0,1-.434.065c1.049-3.782,2.071-7.5,3.116-11.2a1.528,1.528,0,0,0-.16-1.284,21.991,21.991,0,0,1-2.45-6.459C210.873,325.9,210.711,324.663,210.51,323.435Zm26.359,3.97c0-.8-.038-1.573.018-2.337a1.5,1.5,0,0,1,.392-.9c.984-.963,2.045-1.846,3.02-2.816a7.5,7.5,0,1,0-11.026-10.159,7.223,7.223,0,0,0-1.776,4.827c.247.011.431.026.615.027,1.018,0,2.037,0,3.083,0,.036-.226.068-.407.095-.59a3.749,3.749,0,0,1,7.133-.933,3.686,3.686,0,0,1-.779,4.159c-1.152,1.118-2.315,2.233-3.556,3.249a2.456,2.456,0,0,0-.992,2.3c.081,1.047.018,2.107.018,3.17Zm-.029,7.511v-3.68h-3.7v3.68Z" />
        <path id="Path_53" data-name="Path 53"
            d="M283.141,392.175c-1.306-.249-2.64-.4-3.915-.763a20.544,20.544,0,0,1-12.739-10.085c-.081-.143-.147-.294-.262-.528A28.391,28.391,0,0,0,294.05,352.97c.254.131.473.23.679.352,7.261,4.338,10.856,10.739,10.663,19.192a19.053,19.053,0,0,1-2.574,8.989,1.263,1.263,0,0,0-.127,1.053c.883,3.126,1.745,6.258,2.645,9.5-.3-.071-.524-.118-.747-.18q-4.335-1.2-8.669-2.416a1.482,1.482,0,0,0-1.229.132,19.993,19.993,0,0,1-7.939,2.471,3.8,3.8,0,0,0-.481.108Z"
            transform="translate(-30.806 -30.804)" />
    </g>
</svg>