<svg xmlns="http://www.w3.org/2000/svg" width="64.082" height="64.142" viewBox="0 0 64.082 64.142">
    <g id="Group_3" data-name="Group 3" transform="translate(-222.199 -673.06)">
        <path id="Path_30" data-name="Path 30"
            d="M321.3,680.581c-1.255,2.237-2.744,4.114-5.646,4.157a5.645,5.645,0,0,1-5.872-4.372,5.793,5.793,0,0,1,3.358-6.768,5.724,5.724,0,0,1,7.2,2.249c.357.553.645,1.15.965,1.727Z"
            transform="translate(-35.016 -0.019)" fill="#deb317" />
        <path id="Path_31" data-name="Path 31"
            d="M269.166,773.569c-.466-.326-.948-.632-1.395-.981a4.79,4.79,0,0,1-.7-7.209,4.861,4.861,0,1,1,6.463,7.2c-.441.347-.909.661-1.364.99Z"
            transform="translate(-17.443 -36.367)" fill="#deb317" />
        <path id="Path_32" data-name="Path 32"
            d="M323.678,739.591a14.794,14.794,0,0,1-1.871,1.913,4.033,4.033,0,0,1-5.39-.807,4.192,4.192,0,0,1,.531-5.643,4.006,4.006,0,0,1,5.446.21,13.124,13.124,0,0,1,1.284,1.821Z"
            transform="translate(-37.397 -24.444)" fill="#deb317" />
        <path id="Path_33" data-name="Path 33"
            d="M270.724,724.185a10.773,10.773,0,0,1-10.961-10.938,10.9,10.9,0,0,1,21.8-.127A10.78,10.78,0,0,1,270.724,724.185Z"
            transform="translate(-15.046 -11.741)" fill="#deb317" />
        <path id="Path_34" data-name="Path 34"
            d="M228.123,733.959a5.924,5.924,0,0,1,6.006,5.74,5.965,5.965,0,1,1-11.93.073A5.911,5.911,0,0,1,228.123,733.959Z"
            transform="translate(0 -24.392)" fill="#deb317" />
        <path id="Path_35" data-name="Path 35"
            d="M226.962,673.061a4.71,4.71,0,0,1,4.643,4.868,4.7,4.7,0,1,1-4.643-4.868Z" transform="translate(-0.005 0)"
            fill="#deb317" />
        <path id="Path_36" data-name="Path 36" d="M249.826,699.265l-10.436-8.85,2.388-3.171,10.543,8.9Z"
            transform="translate(-6.886 -5.681)" fill="#deb317" />
        <path id="Path_37" data-name="Path 37" d="M303.188,694.288l-6.6,5.7-2.55-3.036,6.441-5.576Z"
            transform="translate(-28.776 -7.335)" fill="#deb317" />
        <path id="Path_38" data-name="Path 38" d="M271.768,752.175v-7.338l3.741.5v6.834Z"
            transform="translate(-19.854 -28.749)" fill="#deb317" />
        <path id="Path_39" data-name="Path 39" d="M306.948,729.907l-1.768,3.5-5.588-2.585c.52-1.279.947-2.328,1.5-3.68Z"
            transform="translate(-30.999 -21.663)" fill="#deb317" />
        <path id="Path_40" data-name="Path 40" d="M247.147,734.652l-1.872-3.418,5.215-3.123,1.732,3.578Z"
            transform="translate(-9.243 -22.05)" fill="#deb317" />
    </g>
</svg>