<svg xmlns="http://www.w3.org/2000/svg" width="112.553" height="56.339" viewBox="0 0 112.553 56.339">
    <g id="Group_13" data-name="Group 13" transform="translate(-100.032 -322.307)">
        <path id="Path_2" data-name="Path 2"
            d="M294.32,330.343c-.855-.5-1.713-.995-2.545-1.528a.608.608,0,0,0-.841,0c-.208.18-.274.091-.271-.16.011-.878,0-1.753.009-2.631a.384.384,0,0,0-.214-.382q-2.749-1.625-5.487-3.266a.38.38,0,0,0-.459.017q-2.723,1.633-5.453,3.255a.457.457,0,0,0-.259.456q.009,18.88,0,37.757a.371.371,0,0,0,.308.43q2.685.846,5.358,1.724a.739.739,0,0,0,.524-.011c1.784-.684,3.569-1.365,5.358-2.029a.411.411,0,0,0,.319-.465q-.009-10.475,0-20.947a.529.529,0,0,0-.311-.53q-2.676-1.578-5.344-3.172c-.1-.06-.257-.08-.262-.239-.006-.333,0-.667,0-1.049,1.123.667,2.186,1.3,3.249,1.935.04.023.094.054.1.088.057.348.371.371.63.539v-8.79c0-.125-.043-.259.12-.353.815-.476,1.622-.963,2.491-1.485v3.586q0,6.866-.009,13.735c0,.274.071.351.342.322.872-.094,1.744-.18,2.619-.245.234-.017.271-.108.271-.311q-.009-7.914,0-15.822A.434.434,0,0,0,294.32,330.343Zm-9.571-6.359c.422.248.8.47,1.18.7,1.126.67,2.243,1.348,3.375,2.007a.46.46,0,0,1,.268.487c-.017.259,0,.519,0,.835-.61-.359-1.177-.693-1.739-1.026-.921-.547-1.836-1.1-2.762-1.636a.519.519,0,0,1-.325-.561A7.374,7.374,0,0,0,284.748,323.984Zm0,31.661,1.787,1.069c.929.556,1.853,1.112,2.785,1.653a.431.431,0,0,1,.254.462c-.02.248,0,.5,0,.735-.128.051-.2-.031-.268-.074-1.4-.829-2.79-1.667-4.2-2.485a.585.585,0,0,1-.365-.638A5.907,5.907,0,0,0,284.748,355.645Zm1.314,8.6a.22.22,0,0,1-.16,0c-.365-.211-.724-.428-1.083-.644-.08-.048-.068-.137-.068-.217,0-.294,0-.59,0-.952.79.47,1.536.915,2.363,1.405C286.712,363.99,286.39,364.119,286.062,364.241Zm2.3-.895a.318.318,0,0,1-.288-.066q-1.569-.932-3.138-1.861a.325.325,0,0,1-.194-.322c.014-.285,0-.57,0-.886.316.131,4.312,2.511,4.6,2.742C289.01,363.087,288.688,363.215,288.365,363.346Zm1.152-1.539c-.162.094-.385-.168-.576-.279-1.294-.761-2.579-1.533-3.876-2.289a.52.52,0,0,1-.319-.561,6.437,6.437,0,0,0,0-.7.5.5,0,0,1,.336.134c1.388.824,2.768,1.659,4.161,2.474a.525.525,0,0,1,.328.587C289.537,361.388,289.674,361.716,289.517,361.807Zm.057-5.145a6.6,6.6,0,0,0-.006.724c-.613-.365-1.169-.693-1.722-1.02-.918-.544-1.83-1.1-2.759-1.63a.537.537,0,0,1-.339-.616c.034-.217-.105-.544.06-.636s.388.171.579.285c1.28.758,2.554,1.531,3.839,2.277A.557.557,0,0,1,289.574,356.662Zm-4.825-9.976c.137-.051.205.048.285.094,1.439.855,2.873,1.716,4.312,2.565a.391.391,0,0,1,.228.408c-.017.262-.006.524-.006.855l-2.782-1.653c-.587-.351-1.169-.707-1.764-1.043a.444.444,0,0,1-.276-.479C284.766,347.185,284.748,346.934,284.748,346.686Zm0,2.183c.9.533,1.727,1.026,2.554,1.519.673.4,1.34.809,2.018,1.2a.411.411,0,0,1,.254.428c-.02.259-.006.519-.006.778-.134.031-.208-.054-.291-.1-1.408-.835-2.81-1.682-4.224-2.5a.524.524,0,0,1-.308-.564C284.763,349.4,284.748,349.175,284.748,348.87Zm.057,2.36c.162-.094.388.165.579.276,1.308.778,2.611,1.565,3.925,2.337a.429.429,0,0,1,.265.453c-.023.254-.006.51-.006.827-.53-.313-1.006-.593-1.482-.875-1-.59-1.987-1.191-2.993-1.77-.257-.148-.4-.3-.348-.61C284.783,351.649,284.646,351.321,284.805,351.23Zm4.768-3.606a5.048,5.048,0,0,0-.006.658c-.151.023-.239-.077-.339-.137-1.4-.829-2.793-1.667-4.2-2.488a.474.474,0,0,1-.285-.51c.02-.242,0-.49,0-.79.314.18.576.331.838.487,1.211.724,2.417,1.456,3.637,2.166A.555.555,0,0,1,289.574,347.624Zm-4.825-5.473c.16-.014.248.088.348.148,1.388.824,2.768,1.656,4.158,2.471a.52.52,0,0,1,.319.561,7.209,7.209,0,0,0-.006.755l-2.24-1.328c-.772-.459-1.539-.926-2.317-1.371a.447.447,0,0,1-.265-.485C284.763,342.656,284.748,342.405,284.748,342.152Zm1.015-1.719c1.18.7,2.354,1.417,3.54,2.109a.46.46,0,0,1,.271.485c-.02.248-.006.5-.006.741a.461.461,0,0,1-.3-.114c-1.417-.841-2.827-1.687-4.247-2.522a.451.451,0,0,1-.279-.479c.026-.245.006-.5.006-.821C285.122,340.054,285.444,340.242,285.763,340.433Zm-1.015-9.642c1.129.676,2.192,1.311,3.258,1.944a.234.234,0,0,1,.125.222c-.006.3,0,.61,0,.972-.362-.214-.684-.4-1-.587-.713-.425-1.425-.855-2.143-1.271a.386.386,0,0,1-.239-.4C284.763,331.4,284.748,331.127,284.748,330.79Zm3.38,7.585c-.125.048-.188-.037-.259-.08-.961-.567-1.918-1.143-2.882-1.7a.408.408,0,0,1-.242-.43c.017-.259,0-.522,0-.852,1.123.67,2.186,1.305,3.249,1.935a.254.254,0,0,1,.134.251C288.126,337.794,288.129,338.087,288.129,338.375Zm-.014-2.255c-.105.054-.165-.037-.237-.08-.972-.573-1.938-1.151-2.91-1.719a.364.364,0,0,1-.222-.373c.014-.279,0-.559,0-.9.7.416,1.337.8,1.978,1.183.205.123.413.242.618.365C288.183,335.1,288.183,335.1,288.115,336.121Zm-.043-4.481c-.6-.356-1.206-.713-1.807-1.072-.276-.163-.547-.328-.824-.49-.778-.459-.818-.55-.65-1.519.733.436,1.454.864,2.172,1.294a2.609,2.609,0,0,0,.353.208A1.123,1.123,0,0,1,288.072,331.64Zm1.471-2.012a.638.638,0,0,1-.767.174c-1.251-.744-2.5-1.493-3.759-2.226a.456.456,0,0,1-.271-.487c.017-.248,0-.5,0-.818l2.112,1.263q1.219.727,2.434,1.451A.513.513,0,0,1,289.543,329.628Z"
            transform="translate(-127.814 0)" fill="#deb317" />
        <path id="Path_3" data-name="Path 3"
            d="M176.032,416.743q0,3.81,0,7.619c0,.127.077.326-.075.368a.691.691,0,0,1-.621-.05,1.957,1.957,0,0,1-.194-.192q-7.764-7.776-15.521-15.56c-.254-.256-.365-.215-.592.013q-7.769,7.8-15.548,15.581a.8.8,0,0,1-.625.257c-2.143-.01-4.286-.014-6.428,0-.355,0-.383-.168-.391-.434-.009-.283.019-.45.393-.445,1.915.021,3.83.007,5.744.014a.689.689,0,0,0,.538-.22q8.08-8.089,16.164-16.174a.756.756,0,0,1,.679-.258c2.494.239,4.99.457,7.486.679q3.25.289,6.5.573c.749.066,1.5.148,2.246.2.292.019.248.2.248.376Q176.032,412.916,176.032,416.743Z"
            transform="translate(-25.738 -60.738)" fill="#deb317" />
        <path id="Path_4" data-name="Path 4"
            d="M322.873,424.18c0-.645,0-1.2,0-1.759q0-6.644,0-13.289c0-.506,0-.5.512-.543q3.642-.316,7.283-.641,3.709-.33,7.417-.675a.663.663,0,0,1,.595.221q8.032,8.062,16.07,16.119a.829.829,0,0,0,.652.273c1.937-.012,3.875-.007,5.812,0,.139,0,.308-.057.378.139a1.157,1.157,0,0,1,0,.7c-.023.083-.14.052-.217.052-2.2,0-4.4,0-6.6.005a.49.49,0,0,1-.368-.205l-11.02-11.019c-1.571-1.57-3.146-3.137-4.708-4.717-.2-.206-.3-.193-.5.005q-7.487,7.52-14.988,15.026C323.107,423.96,323.017,424.042,322.873,424.18Z"
            transform="translate(-159.325 -60.746)" fill="#deb317" />
        <path id="Path_5" data-name="Path 5"
            d="M258.223,348.039c-.137.054-.194-.034-.265-.083q-1.056-.718-2.109-1.442c-.53-.365-.53-.365-.439-1.075.915.63,1.8,1.231,2.668,1.844C258.36,347.483,258.118,347.8,258.223,348.039Zm-2.845-4.007c.063-.2.16-.051.222-.009.573.388,1.143.784,1.713,1.177a2.553,2.553,0,0,0,.422.285c.5.211.539.6.43,1.086-.741-.51-1.471-1.009-2.2-1.5l-.308-.214A.737.737,0,0,1,255.379,344.031Zm-.006,4.444c.208.142.365.248.522.356.6.41,1.177.855,1.8,1.226a.845.845,0,0,1,.467,1.095c-.9-.616-1.8-1.214-2.671-1.841C255.233,349.125,255.419,348.806,255.373,348.475Zm0,1.533c.282.191.516.345.747.5.524.362,1.029.755,1.576,1.075a.839.839,0,0,1,.462,1.094c-.9-.621-1.8-1.217-2.673-1.85C255.233,350.647,255.419,350.33,255.376,350.008Zm2.79,10.318c-.325-.225-.641-.442-.955-.656-.45-.311-.884-.647-1.357-.918a.8.8,0,0,1-.445-1.037c.105-.029.171.068.248.123.693.473,1.365.986,2.084,1.419A.847.847,0,0,1,258.166,360.326Zm-2.8-5.666c.165-.017.248.091.339.157.678.459,1.328.961,2.029,1.38a.857.857,0,0,1,.43,1.075c-.9-.616-1.77-1.214-2.639-1.816C255.225,355.244,255.444,354.934,255.37,354.66Zm.054-1.568c.778.536,1.525,1.092,2.314,1.576a.856.856,0,0,1,.43,1.069l-.9-.61c-.47-.322-.921-.673-1.411-.955A.819.819,0,0,1,255.424,353.092Zm2.776,5.649c-.128.043-.182-.051-.251-.1q-1.06-.723-2.115-1.448c-.51-.353-.51-.353-.428-1.06.929.638,1.827,1.24,2.7,1.875C258.334,358.18,258.166,358.5,258.2,358.742Zm.017-4.495c-.955-.656-1.836-1.257-2.716-1.864a1.045,1.045,0,0,1-.114-.733c.057-.1.111-.037.165,0,.852.587,1.713,1.163,2.551,1.773C258.337,353.6,258.161,353.91,258.218,354.247Zm-2.733-6.47c-.234-.168-.094-.467-.091-.7,0-.1.1-.046.157-.009.852.587,1.713,1.163,2.551,1.773.239.174.054.49.128.832C257.257,349,256.359,348.4,255.484,347.777Zm2.5,14.009.04-.017-.009-.017c-.581-.4-1.094-.752-1.607-1.109a4.152,4.152,0,0,0-.621-.416c-.473-.214-.442-.584-.382-1.037l1.368.941c.365.251.715.522,1.094.75a.591.591,0,0,1,.345.656,1.385,1.385,0,0,0,.014.3,1.452,1.452,0,0,1,.274.011c.259.051.345-.026.345-.308q-.013-8.1,0-16.192a.47.47,0,0,0-.239-.442q-1.514-1.022-3.01-2.069a.326.326,0,0,0-.445.009q-1.479,1.039-2.979,2.055a.555.555,0,0,0-.276.527c.011,2.38.006,4.76.006,7.14,0,2.776.006,5.555-.009,8.334,0,.3.088.39.379.4.433.011.864.071,1.294.108l1.875.162a1.782,1.782,0,0,1-.034-.841c.741.439,1.328,1.126,2.26,1.055Z"
            transform="translate(-108.574 -14.62)" fill="#deb317" />
        <path id="Path_6" data-name="Path 6"
            d="M166.353,432.4a3.616,3.616,0,0,0,.319-.256q6.956-6.942,13.9-13.892c.215-.215.325-.229.549,0q6.975,7,13.967,13.975c.077.077.149.16.222.238-.055.076-.117.05-.168.05-1.527,0-3.055,0-4.582.006-.22,0-.291-.054-.287-.282.014-.763,0-1.526.009-2.289a.568.568,0,0,0-.188-.445q-4.47-4.45-8.928-8.911c-.186-.186-.275-.17-.45.006q-4.448,4.471-8.912,8.926a.678.678,0,0,0-.213.539c.011.729,0,1.458.006,2.187,0,.152-.005.259-.21.258-1.66-.006-3.321,0-4.981,0Z"
            transform="translate(-47.418 -68.477)" fill="#deb317" />
        <path id="Path_7" data-name="Path 7"
            d="M356.352,432.7h-.6c-1.379,0-2.759-.011-4.138.009-.3,0-.4-.095-.415-.37-.048-.683-.013-1.366-.009-2.049a.877.877,0,0,0-.291-.684q-4.386-4.364-8.751-8.749c-.229-.23-.337-.2-.546.011q-4.408,4.438-8.835,8.857a.68.68,0,0,0-.217.539c.011.717,0,1.435.008,2.153,0,.2-.043.283-.264.282-1.5-.009-3.009,0-4.514-.006a.5.5,0,0,1-.094-.019c-.019-.122.082-.161.139-.219q6.987-6.983,13.974-13.966c.177-.177.261-.153.422.009q6.989,6.982,13.985,13.956C356.266,432.512,356.364,432.551,356.352,432.7Z"
            transform="translate(-162.765 -68.68)" fill="#deb317" />
        <path id="Path_8" data-name="Path 8"
            d="M205.915,496.238c0,1.535-.006,3.05.006,4.564,0,.251-.052.344-.314.317a3.936,3.936,0,0,0-.751,0c-.252.023-.295-.08-.294-.308q.012-3.366,0-6.731c0-.242.076-.275.3-.3a1.354,1.354,0,0,1,1.363.638c1.079,1.4,2.217,2.746,3.332,4.114.04.05.083.1.177.209v-.668c0-1.321.005-2.642-.005-3.963,0-.236.028-.352.305-.326.338.033.8-.112.989.06.219.2.066.663.067,1.012.006,1.982,0,3.963.009,5.945,0,.246-.053.3-.31.33a1.367,1.367,0,0,1-1.36-.643c-1.07-1.389-2.2-2.729-3.311-4.087C206.072,496.339,206.044,496.255,205.915,496.238Z"
            transform="translate(-74.735 -122.58)" fill="#deb317" />
        <path id="Path_9" data-name="Path 9"
            d="M374.6,493.474a3.779,3.779,0,1,0,4.062,3.688A3.757,3.757,0,0,0,374.6,493.474Zm.1,6.345a2.571,2.571,0,1,1,2.588-2.565A2.489,2.489,0,0,1,374.7,499.818Z"
            transform="translate(-193.562 -122.378)" fill="#deb317" />
        <path id="Path_10" data-name="Path 10"
            d="M141.633,499c-.14-.191-.154-.271.088-.382a2.158,2.158,0,0,0,1.154-1.283,2.52,2.52,0,0,0-2.1-3.432,31.111,31.111,0,0,0-3.72-.083c-.162-.006-.185.071-.185.208q0,3.446,0,6.9c0,.185.063.234.237.225.3-.011.593-.014.889,0,.191.008.251-.051.245-.245-.011-.525.009-1.049-.009-1.57-.009-.242.037-.345.311-.328.465.026.932.017,1.4,0a.4.4,0,0,1,.388.2c.4.584.807,1.157,1.211,1.736.068.1.117.208.279.205.419-.011.841-.006,1.323-.006C142.613,500.389,142.134,499.688,141.633,499Zm-1.3-1.143c-.633.08-1.271.029-1.907.046-.188,0-.194-.1-.194-.239.006-.419,0-.841,0-1.26v-1.194c0-.111-.026-.237.157-.231a12.925,12.925,0,0,1,2.075.063,1.314,1.314,0,0,1,1.171,1.528A1.352,1.352,0,0,1,140.336,497.855Z"
            transform="translate(-26.338 -122.615)" fill="#deb317" />
        <path id="Path_11" data-name="Path 11"
            d="M336.176,497.409c0-1.116.005-2.231,0-3.347,0-.212.037-.3.274-.286.351.026.811-.115,1.026.06s.061.66.068,1.008c.011.569.009,1.139,0,1.708,0,.18.027.258.235.255q1.658-.016,3.315,0c.2,0,.244-.061.242-.249-.01-.831,0-1.662-.009-2.493,0-.215.043-.305.278-.288.35.026.813-.114,1.022.062s.063.661.064,1.009c.006,1.97,0,3.939.009,5.908,0,.268-.038.391-.341.359-.326-.035-.77.106-.957-.06-.215-.192-.061-.642-.067-.979q-.016-.922,0-1.844c0-.2-.038-.275-.259-.273q-1.64.018-3.281,0c-.231,0-.254.088-.252.278.008.865,0,1.731.009,2.6,0,.228-.062.3-.285.28a5.24,5.24,0,0,0-.819,0c-.242.021-.273-.082-.271-.289C336.181,499.686,336.176,498.548,336.176,497.409Z"
            transform="translate(-168.834 -122.575)" fill="#deb317" />
        <path id="Path_12" data-name="Path 12"
            d="M475.591,497.5c0-1.128.006-2.255-.005-3.383,0-.209.048-.266.262-.264q2.411.015,4.822,0c.233,0,.291.07.274.286-.021.271.088.634-.05.794-.162.189-.536.058-.816.06q-1.419.013-2.838,0c-.211,0-.3.035-.29.273.02.455.02.911,0,1.366-.011.237.077.276.289.274.98-.01,1.961,0,2.941-.01.252,0,.331.057.327.319-.011.813,0,.813-.812.813-.832,0-1.664.006-2.5,0-.191,0-.252.048-.247.244.014.5.017,1,0,1.5-.008.228.064.281.284.279,1.174-.011,2.348,0,3.522-.012.27,0,.343.07.338.339-.015.808,0,.808-.81.808-1.448,0-2.9-.008-4.343.007-.272,0-.364-.046-.359-.343C475.6,499.728,475.591,498.612,475.591,497.5Z"
            transform="translate(-268.509 -122.647)" fill="#deb317" />
        <path id="Path_13" data-name="Path 13"
            d="M288.129,497.515c0-1.127.005-2.254,0-3.382,0-.215.043-.288.275-.286q2.41.016,4.82,0c.2,0,.29.03.269.255-.026.282.089.652-.053.827s-.535.054-.816.057c-.934.008-1.869.015-2.8,0-.282-.006-.342.088-.329.344a10.093,10.093,0,0,1,0,1.229c-.022.3.094.349.364.345.957-.016,1.915,0,2.871-.011.229,0,.313.047.311.3,0,.835.006.836-.819.836s-1.641.008-2.461-.005c-.212,0-.271.053-.264.264.016.5.017,1,0,1.5-.007.221.073.262.274.26,1.185-.009,2.37,0,3.555-.011.263,0,.345.071.312.323-.035.267.117.625-.063.781-.151.131-.5.043-.758.043-1.436,0-2.872-.011-4.307.01-.327,0-.382-.1-.378-.395C288.139,499.7,288.129,498.608,288.129,497.515Z"
            transform="translate(-134.479 -122.647)" fill="#deb317" />
        <path id="Path_14" data-name="Path 14"
            d="M106.866,498.636c0,.364-.016.73.006,1.093a.525.525,0,0,1-.274.526,4.642,4.642,0,0,1-4.944.058,3.57,3.57,0,0,1-1.532-3.878,3.478,3.478,0,0,1,2.824-2.855,4.081,4.081,0,0,1,3.7.763c.332.272.327.279.028.569-.18.175-.335.438-.547.5s-.388-.242-.591-.369a2.7,2.7,0,0,0-4.091,1.669,2.55,2.55,0,0,0,2.462,3.081,3.4,3.4,0,0,0,1.4-.235.364.364,0,0,0,.269-.4c-.018-.591,0-1.184-.011-1.776,0-.2.058-.258.251-.247a6.014,6.014,0,0,0,.786,0c.223-.016.268.076.262.276C106.856,497.816,106.866,498.226,106.866,498.636Z"
            transform="translate(0 -122.352)" fill="#deb317" />
        <path id="Path_15" data-name="Path 15"
            d="M174.7,500.817q-1.372-3.04-2.748-6.082c-.14-.311-.211-.721-.45-.9-.257-.191-.681-.026-1.029-.063-.237-.026-.336.074-.428.276-1.012,2.272-2.035,4.538-3.053,6.806-.034.074-.108.143-.057.248.376,0,.752-.011,1.129.006.188.009.257-.077.316-.228.171-.422.362-.835.527-1.257a.3.3,0,0,1,.322-.225c1.072.011,2.141.009,3.212,0a.3.3,0,0,1,.325.222c.177.43.371.852.547,1.283a.274.274,0,0,0,.3.205c.388-.014.775-.006,1.217-.006C174.774,500.98,174.737,500.9,174.7,500.817Zm-5.227-2.485c.45-1.055.892-2.089,1.365-3.2.473,1.1.921,2.132,1.38,3.2Z"
            transform="translate(-47.822 -122.57)" fill="#deb317" />
        <path id="Path_16" data-name="Path 16"
            d="M416.351,496.295c0,.638.015,1.276,0,1.912a2.926,2.926,0,0,1-3.26,3.081,2.86,2.86,0,0,1-3.121-2.935c-.079-1.43-.026-2.867-.04-4.3,0-.177.071-.208.223-.2.3.008.593.018.888,0,.22-.016.26.065.259.267-.009,1.207-.007,2.413,0,3.62a5.68,5.68,0,0,0,.035.647,1.757,1.757,0,0,0,2.258,1.682,1.624,1.624,0,0,0,1.388-1.512,14.482,14.482,0,0,0,.051-1.91q.012-1.281,0-2.561c0-.173.036-.242.223-.232a8.63,8.63,0,0,0,.888,0c.182-.009.23.051.228.229-.01.74,0,1.48,0,2.22Z"
            transform="translate(-221.564 -122.644)" fill="#deb317" />
        <path id="Path_17" data-name="Path 17"
            d="M448.908,495.143a3.937,3.937,0,0,0-2.714-.5,1.3,1.3,0,0,0-.558.243.773.773,0,0,0,.074,1.332,5.622,5.622,0,0,0,1.487.478,7.374,7.374,0,0,1,1.3.412,1.738,1.738,0,0,1,1.139,1.526,1.922,1.922,0,0,1-.874,1.813,3.587,3.587,0,0,1-2.152.537,5.008,5.008,0,0,1-2.574-.688c-.19-.116-.275-.228-.139-.456s.17-.6.362-.707.43.214.666.319a4.053,4.053,0,0,0,2.5.328,1.257,1.257,0,0,0,.583-.267.738.738,0,0,0-.041-1.221,2.744,2.744,0,0,0-.914-.363c-.569-.16-1.146-.294-1.705-.483a1.8,1.8,0,0,1-1.4-1.659,1.9,1.9,0,0,1,1.183-1.974,4.605,4.605,0,0,1,4.021.162c.147.07.2.15.117.316C449.137,494.556,449.036,494.834,448.908,495.143Z"
            transform="translate(-245.805 -122.344)" fill="#deb317" />
        <path id="Path_18" data-name="Path 18"
            d="M259.14,493.768c.934,0,1.868.007,2.8,0,.217,0,.3.045.282.276-.026.281.085.649-.056.824s-.533.049-.813.057c-.41.011-.821.023-1.23,0-.294-.019-.35.086-.348.362.013,1.821,0,3.642.013,5.463,0,.268-.037.393-.342.36-.325-.035-.77.1-.954-.062-.211-.19-.064-.64-.065-.976-.007-1.6-.011-3.21,0-4.814,0-.278-.083-.339-.343-.331-.6.019-1.207,0-1.811.01-.209,0-.313-.033-.291-.273.026-.281-.089-.648.051-.825s.531-.054.811-.058C257.614,493.762,258.377,493.768,259.14,493.768Z"
            transform="translate(-111.491 -122.562)" fill="#deb317" />
        <path id="Path_19" data-name="Path 19"
            d="M242.225,497.456c0,1.128-.005,2.255,0,3.383,0,.215-.042.3-.276.284-.35-.026-.813.113-1.025-.063s-.066-.662-.066-1.01c-.006-1.982,0-3.964-.009-5.945,0-.255.057-.34.318-.318.338.029.786-.108.989.062s.058.64.062.977C242.231,495.7,242.225,496.579,242.225,497.456Z"
            transform="translate(-100.653 -122.585)" fill="#deb317" />
        <path id="Path_20" data-name="Path 20"
            d="M209.476,452.324c0-.3-.119-.71.031-.888.177-.21.6-.053.909-.068.261-.013.523.006.784-.006.174-.008.241.044.237.228q-.016.766,0,1.532c0,.184-.062.231-.235.228-.511-.009-1.022-.008-1.534,0-.158,0-.224-.04-.217-.209.012-.272,0-.545,0-.817Z"
            transform="translate(-78.217 -92.245)" fill="#deb317" />
        <path id="Path_21" data-name="Path 21"
            d="M217.952,452.329c0-.3-.119-.708.031-.89.177-.216.6-.053.909-.071.238-.014.479.009.717-.006.208-.013.306.032.3.273-.019.488-.014.978,0,1.467,0,.194-.055.254-.249.249-.5-.013-1-.011-1.5,0-.182,0-.238-.062-.23-.237.012-.261,0-.523,0-.785Z"
            transform="translate(-84.277 -92.245)" fill="#deb317" />
        <path id="Path_22" data-name="Path 22"
            d="M371.288,451.445c.3,0,.71-.119.887.031.21.178.053.6.068.909.013.261-.007.522.006.783.008.174-.043.241-.227.237-.511-.01-1.022-.012-1.533,0-.188,0-.228-.065-.224-.236.009-.5.015-1,0-1.5-.008-.225.081-.267.277-.256.249.015.5,0,.749,0Z"
            transform="translate(-193.207 -92.298)" fill="#deb317" />
        <path id="Path_23" data-name="Path 23"
            d="M378.715,452.329c0-.305-.119-.709.031-.89.178-.215.6-.053.91-.07.239-.013.479.009.717-.006.209-.013.306.032.3.273-.019.489-.014.979,0,1.468,0,.2-.056.253-.25.248-.5-.013-1-.011-1.5,0-.182,0-.238-.061-.23-.237.012-.261,0-.523,0-.785Z"
            transform="translate(-199.219 -92.245)" fill="#deb317" />
        <path id="Path_24" data-name="Path 24"
            d="M217.961,442.6c0-.329.007-.659,0-.988-.006-.182.046-.239.235-.2a2.228,2.228,0,0,1,1.746,2.222c-.01.168-.069.211-.224.209-.5-.007-1-.009-1.5,0-.19,0-.265-.055-.257-.251C217.97,443.259,217.961,442.929,217.961,442.6Z"
            transform="translate(-84.313 -85.146)" fill="#deb317" />
        <path id="Path_25" data-name="Path 25"
            d="M378.726,442.59c0-.33.009-.66,0-.989-.007-.2.072-.224.245-.191a2.223,2.223,0,0,1,1.738,2.2c-.006.177-.056.237-.235.233-.5-.01-1-.011-1.5,0-.2,0-.253-.075-.247-.261C378.734,443.249,378.726,442.919,378.726,442.59Z"
            transform="translate(-199.256 -85.146)" fill="#deb317" />
        <path id="Path_26" data-name="Path 26"
            d="M211.48,442.6c0,.33-.007.66,0,.99,0,.166-.032.249-.223.245q-.769-.016-1.538,0c-.192,0-.219-.078-.223-.244a2.227,2.227,0,0,1,1.723-2.181c.186-.04.273-.021.262.2C211.468,441.943,211.48,442.273,211.48,442.6Z"
            transform="translate(-78.265 -85.146)" fill="#deb317" />
        <path id="Path_27" data-name="Path 27"
            d="M372.24,442.6c0,.33-.01.661,0,.99.009.2-.065.253-.255.249-.5-.011-1-.007-1.5,0-.15,0-.217-.03-.227-.2a2.239,2.239,0,0,1,1.752-2.227c.186-.034.241.016.234.2C372.231,441.938,372.24,442.268,372.24,442.6Z"
            transform="translate(-193.202 -85.145)" fill="#deb317" />
        <line id="Line_1" data-name="Line 1" x1="0.316" transform="translate(149.09 347.165)" fill="none" />
    </g>
</svg>