<svg xmlns="http://www.w3.org/2000/svg" width="64.083" height="64.08" viewBox="0 0 64.083 64.08">
    <path id="Path_63" data-name="Path 63"
        d="M216.95,487.558v-1.252c.04-.159.085-.317.119-.477a5.315,5.315,0,1,1,8.768,5.006.531.531,0,0,0-.13.744c.836,1.724,1.654,3.457,2.479,5.186.087.183.184.361.289.565a12.663,12.663,0,0,1,9.019.025,12.878,12.878,0,0,1,6.811,6l11.753-4.979a12.523,12.523,0,0,1-.16-7.4l-3.42-1.262c-.088.108-.154.186-.216.268a5.294,5.294,0,1,1,.99-2.74c-.006.178.058.479.168.523,1.055.421,2.126.8,3.183,1.184a12.83,12.83,0,1,1,8.277,17.832l-5.2,14.425a13.167,13.167,0,0,1,4.769,3.777l5.792-3.759c.087-.057.224-.1.252-.174a1.067,1.067,0,0,0,.116-.6,5.332,5.332,0,0,1,4.515-6.8,5.392,5.392,0,0,1,5.171,2.6,5.31,5.31,0,0,1-8.025,6.728c-.273-.22-.457-.268-.753-.052-.5.368-1.042.691-1.566,1.032l-4.311,2.8c.129.285.237.529.349.771a12.762,12.762,0,0,1-7.173,17.272c-1.027.372-2.119.564-3.181.839h-2.5a2.106,2.106,0,0,0-.349-.109,12.242,12.242,0,0,1-8.426-4.752,40.478,40.478,0,0,1-2.383-3.9c.089,0,0-.016-.073,0-1.44.336-2.882.66-4.312,1.036-.163.043-.334.373-.355.584a5.327,5.327,0,1,1-10.187-2.511,5.13,5.13,0,0,1,4.672-3.133,5.054,5.054,0,0,1,4.773,2.639.55.55,0,0,0,.747.3c.823-.227,1.661-.394,2.492-.592.639-.153,1.276-.316,1.933-.48a12.925,12.925,0,0,1,3.3-10.632l-4.182-4.595a12.883,12.883,0,0,1-13.072,1.523c-.583,1.043-1.135,2.067-1.726,3.068a.575.575,0,0,0,.12.809,6.523,6.523,0,0,1,.792,1.038,5.263,5.263,0,0,1-1.552,6.987,5.389,5.389,0,0,1-7-.8,6.378,6.378,0,0,1-1.392-3.009v-1.127c.036-.136.079-.27.107-.408a5.345,5.345,0,0,1,6.837-4.111l1.932-3.482a12.919,12.919,0,0,1,.678-21.773l-2.923-6.138a5.191,5.191,0,0,1-5.543-2.04A12.73,12.73,0,0,1,216.95,487.558Zm40.722,32.9L262.887,506a13.124,13.124,0,0,1-5.986-5.631c-.122.035-.183.046-.238.07-3.7,1.565-7.4,3.14-11.1,4.688-.428.179-.352.4-.265.727a12.441,12.441,0,0,1-1.266,9.88c-.477.817-1.075,1.563-1.633,2.364l4.151,4.558A12.762,12.762,0,0,1,257.672,520.461Zm4.712,19.316a10.651,10.651,0,1,0-16.67-13.228c-3.4,4.6-2.1,10.6.6,13.109a7.762,7.762,0,0,1,4.168-4.182,5.358,5.358,0,0,1,.191-7.6,5.293,5.293,0,0,1,7.264-.03,5.366,5.366,0,0,1,.226,7.634A7.842,7.842,0,0,1,262.384,539.777Zm13.894-38.5a10.634,10.634,0,0,0-16.079-13.92c-3.976,4.5-3.042,10.817-.1,13.8a10.754,10.754,0,0,1,4.2-4.219,5.341,5.341,0,0,1,7.017-7.974,5.274,5.274,0,0,1,2.116,3.217,5.385,5.385,0,0,1-1.379,4.86A7.813,7.813,0,0,1,276.278,501.274ZM241.04,516.215a10.637,10.637,0,1,0-16.108-.022,7.7,7.7,0,0,1,4.159-4.2,5.4,5.4,0,0,1,.152-7.559,5.334,5.334,0,0,1,6.731-.57,5.2,5.2,0,0,1,2.145,3.125,5.379,5.379,0,0,1-1.307,4.968C239.2,513.322,239.2,513.322,241.04,516.215Zm-1.818,1.69a5.228,5.228,0,0,0-4.619-4.243,14.8,14.8,0,0,0-3.552.045,5.091,5.091,0,0,0-4.255,3.745.535.535,0,0,0,.229.724A10.546,10.546,0,0,0,239.222,517.905Zm15.037,19.219c-.42,0-.9-.022-1.378,0a5.348,5.348,0,0,0-4.7,3.723.684.684,0,0,0,.337.912,10.527,10.527,0,0,0,11.764-.133.694.694,0,0,0,.2-.6,5.141,5.141,0,0,0-1.861-2.808A5.934,5.934,0,0,0,254.259,537.124Zm14.017-38.433c-.542,0-1.085-.029-1.624.005a5.338,5.338,0,0,0-4.6,3.837.566.566,0,0,0,.271.719,10.692,10.692,0,0,0,11.839-.021.518.518,0,0,0,.247-.665,5.4,5.4,0,0,0-1.936-2.838A5.767,5.767,0,0,0,268.277,498.691Zm-20.35-8.612a3.2,3.2,0,1,0-3.188-3.178A3.2,3.2,0,0,0,247.926,490.079Zm23.491,3.206a3.195,3.195,0,1,0-3.159,3.2A3.175,3.175,0,0,0,271.417,493.285ZM222.3,525.355a3.194,3.194,0,1,0,3.179,3.187A3.218,3.218,0,0,0,222.3,525.355Zm6.411,12.809a3.195,3.195,0,0,0,6.389.024,3.195,3.195,0,1,0-6.389-.024Zm-3.233-51.28a3.2,3.2,0,1,0-3.167,3.195A3.181,3.181,0,0,0,225.48,486.884ZM275.7,522.122a3.2,3.2,0,1,0-3.184-3.178A3.213,3.213,0,0,0,275.7,522.122Zm-21.387,6.436a3.2,3.2,0,1,0,3.2,3.174A3.2,3.2,0,0,0,254.316,528.558Zm-18.175-20.319a3.176,3.176,0,0,0-3.187-3.173,3.22,3.22,0,0,0-3.208,3.17,3.253,3.253,0,0,0,3.237,3.22A3.208,3.208,0,0,0,236.141,508.238Z"
        transform="translate(-216.95 -481.557)" />
</svg>