<svg xmlns="http://www.w3.org/2000/svg" width="64.083" height="48.938" viewBox="0 0 64.083 48.938">
    <g id="Group_12" data-name="Group 12" transform="translate(-868.463 -523.338)">
        <path id="Path_64" data-name="Path 64"
            d="M868.463,533.348c.827-1.659,1.563-1.987,3.962-1.715v.776q0,13.733,0,27.467a6.158,6.158,0,0,0,1.3,4.078,5.948,5.948,0,0,0,4.38,2.208c2.117.16,4.249.27,6.337.627a21.4,21.4,0,0,1,9.885,4.245c.355.281.691.587,1.139.97-1.361-.236-2.571-.482-3.792-.65a43.614,43.614,0,0,0-10.853-.221c-3.121.35-6.22.89-9.324,1.382-1.493.237-2.295-.186-3.029-1.736Z"
            transform="translate(0 -0.304)" />
        <path id="Path_65" data-name="Path 65"
            d="M899,569.842c-.5-.462-.914-.863-1.347-1.237a25.029,25.029,0,0,0-12.959-5.745c-1.952-.295-3.934-.4-5.907-.526a2.391,2.391,0,0,1-2.517-2.634q0-16.893,0-33.787a2.359,2.359,0,0,1,2.727-2.574,31.556,31.556,0,0,1,9.458,1.553,18.589,18.589,0,0,1,9.99,7.517,3.434,3.434,0,0,1,.557,1.74q.048,17.613.023,35.226C899.023,569.491,899.011,569.608,899,569.842Z"
            transform="translate(-0.289 0)" />
        <path id="Path_66" data-name="Path 66"
            d="M903.575,569.758v-.8c0-11.241.033-22.483-.036-33.724a6.249,6.249,0,0,1,1.565-4.194,20.018,20.018,0,0,1,12.156-6.973,56.706,56.706,0,0,1,6.574-.717,2.275,2.275,0,0,1,2.5,2.541q.006,9.416,0,18.833,0,7.415,0,14.829c0,1.874-.854,2.74-2.746,2.774a33.66,33.66,0,0,0-11.678,2.125,22.7,22.7,0,0,0-7.813,4.945c-.1.1-.21.2-.32.3C903.748,569.721,903.7,569.722,903.575,569.758Z"
            transform="translate(-1.301 0)" />
        <path id="Path_67" data-name="Path 67"
            d="M906.893,571.926c1.213-.849,2.265-1.7,3.418-2.375a26.63,26.63,0,0,1,12.305-3.327,15.372,15.372,0,0,0,2.98-.273c2.818-.723,4.408-2.967,4.41-6.047q.006-13.737,0-27.474v-.823a19.3,19.3,0,0,1,2.067.014,2.241,2.241,0,0,1,1.877,1.99,4.338,4.338,0,0,1,.018.5q0,17.961,0,35.922a2.3,2.3,0,0,1-2.244,2.548,7.135,7.135,0,0,1-1.477-.228,58.827,58.827,0,0,0-16.654-1.294C911.422,571.218,909.265,571.612,906.893,571.926Z"
            transform="translate(-1.425 -0.306)" />
    </g>
</svg>