<svg xmlns="http://www.w3.org/2000/svg" width="64.082" height="59.251" viewBox="0 0 64.082 59.251">
    <g id="Group_10" data-name="Group 10" transform="translate(0 0)">
        <path id="Path_74" data-name="Path 74"
            d="M64.083,23.244a3.035,3.035,0,0,1-2.394,2.282,12.465,12.465,0,0,1-3.232-.006,2.858,2.858,0,0,1-2.38-2.822A6.009,6.009,0,0,0,49.7,16.611H14.621l-.1.141c.766.744,1.546,1.476,2.292,2.24a2.947,2.947,0,0,1,.672.959,1.886,1.886,0,0,1-.456,2.078c-.843.867-1.692,1.729-2.566,2.565a1.971,1.971,0,0,1-2.906-.034q-5.563-5.54-11.1-11.1a1.035,1.035,0,0,1,.019-1.723Q5.975,6.222,11.487.718a2.015,2.015,0,0,1,3.086,0q1.159,1.141,2.3,2.3a2.032,2.032,0,0,1,.014,3.135c-.77.781-1.555,1.547-2.461,2.445h.894q17.3,0,34.594,0A13.986,13.986,0,0,1,63.761,19.664c.128.563.215,1.135.321,1.7Z"
            transform="translate(0 0)" />
        <path id="Path_75" data-name="Path 75"
            d="M64.1,69.841c-1.33,1.345-2.657,2.7-3.993,4.035q-3.688,3.7-7.387,7.388a2.059,2.059,0,0,1-3.267,0q-1.064-1.059-2.123-2.123a2.063,2.063,0,0,1-.019-3.308c.746-.748,1.5-1.491,2.371-2.361h-.88q-17.328,0-34.656,0A13.954,13.954,0,0,1,.369,62.413a14.954,14.954,0,0,1-.318-2.975,2.949,2.949,0,0,1,2.912-2.983c.708-.02,1.418-.018,2.127,0a3,3,0,0,1,2.949,2.9,6.012,6.012,0,0,0,6.422,6.1H49.587c-.143-.18-.226-.307-.331-.412-.7-.711-1.423-1.409-2.118-2.129a1.976,1.976,0,0,1-.022-2.9q1.238-1.283,2.52-2.522a1.966,1.966,0,0,1,2.9,0q5.611,5.581,11.2,11.189c.129.129.245.272.366.407Z"
            transform="translate(-0.021 -22.818)" />
    </g>
</svg>