<svg xmlns="http://www.w3.org/2000/svg" width="64.083" height="54.417" viewBox="0 0 64.083 54.417">
    <g id="Group_6" data-name="Group 6" transform="translate(-676.289 -322.655)">
        <path id="Path_54" data-name="Path 54"
            d="M740.371,326.338c-.079,1.161-.174,2.322-.234,3.484-.1,2.041-.183,4.083-.28,6.124a2.545,2.545,0,0,1-1.008,2.118,1.7,1.7,0,0,1-2.334-.082c-.924-.843-1.8-1.736-2.688-2.618a8.572,8.572,0,0,1-.605-.8,5.553,5.553,0,0,1-.52.784q-12.313,12.329-24.638,24.646c-1.331,1.331-2.841,1.614-4.232.768a5.306,5.306,0,0,1-.959-.794q-4.654-4.637-9.292-9.29c-.16-.16-.288-.353-.462-.569-.25.232-.418.377-.575.533-3.26,3.258-6.531,6.506-9.774,9.781a3.3,3.3,0,0,1-3.477,1.145,4.224,4.224,0,0,1-2.887-2.958,2.957,2.957,0,0,1,.548-2.658,5.839,5.839,0,0,1,.629-.695q6.415-6.415,12.835-12.825c1.751-1.749,3.517-1.744,5.275.014q4.648,4.643,9.293,9.289c.16.159.326.312.425.407l22.663-22.612c-1-.971-2.032-1.937-3.019-2.949a1.825,1.825,0,0,1-.235-2.594,2.1,2.1,0,0,1,1.7-.78q3.718-.186,7.435-.37c1.229-.059,2.46-.081,3.687-.169a2.357,2.357,0,0,1,2.728,1.541Z"
            transform="translate(0)" />
        <path id="Path_55" data-name="Path 55"
            d="M766.5,352.658a1.452,1.452,0,0,1,.81,1.484q-.031,16.728-.015,33.456c0,.208.006.417-.007.625-.048.752-.425,1.195-1.16,1.2q-4,.036-8,0c-.736-.007-1.111-.455-1.153-1.206-.009-.166-.005-.333-.005-.5q0-12.444-.01-24.888a1.465,1.465,0,0,1,.474-1.144q4.33-4.292,8.63-8.615C766.206,352.925,766.36,352.789,766.5,352.658Z"
            transform="translate(-33.269 -12.373)" />
        <path id="Path_56" data-name="Path 56"
            d="M742.887,375.885v.559q0,10.386,0,20.773c0,1.36-.351,1.719-1.688,1.72q-3.535,0-7.07,0c-1.234,0-1.6-.373-1.6-1.608,0-3.65.006-7.3-.01-10.95a.968.968,0,0,1,.467-.921,7.322,7.322,0,0,0,1.028-.911q4.142-4.131,8.27-8.277a2.741,2.741,0,0,0,.347-.591Z"
            transform="translate(-23.189 -21.868)" />
        <path id="Path_57" data-name="Path 57"
            d="M708.131,382.007c1.339,1.34,2.558,2.563,3.781,3.782.664.662,1.314,1.34,2.005,1.974a6.645,6.645,0,0,0,3.925,1.743c.184.018.367.049.581.079.011.209.029.391.029.573q0,4.908,0,9.817c0,1.19-.375,1.569-1.571,1.571q-3.627.007-7.253,0c-1.108,0-1.525-.407-1.526-1.5q-.009-8.754,0-17.509C708.1,382.419,708.113,382.3,708.131,382.007Z"
            transform="translate(-13.119 -24.477)" />
        <path id="Path_58" data-name="Path 58"
            d="M683.714,390.1a7.884,7.884,0,0,0,5.157-2.679c1.65-1.706,3.346-3.366,5.125-5.15.022.323.046.515.046.707q0,8.542,0,17.082c0,1.234-.364,1.594-1.606,1.6q-3.566.005-7.133,0c-1.234,0-1.588-.362-1.589-1.609q0-4.63,0-9.26Z"
            transform="translate(-3.062 -24.587)" />
    </g>
</svg>