<svg xmlns="http://www.w3.org/2000/svg" width="64.083" height="58.217" viewBox="0 0 64.083 58.217">
    <g id="Group_11" data-name="Group 11" transform="translate(-477.528 -156.576)">
        <path id="Path_79" data-name="Path 79"
            d="M477.528,180.8c.126-.349.228-.708.383-1.043a4.329,4.329,0,0,1,3.228-2.591.9.9,0,0,0,.806-.688,29.075,29.075,0,0,1,9.792-13.824c.066-.051.129-.1.2-.153a.964.964,0,0,1,1.393.091.934.934,0,0,1-.22,1.372c-.953.841-1.916,1.67-2.857,2.525-.381.346-.713.745-1.139,1.2.272.027.428.056.586.056,3.294,0,6.589.009,9.884-.013a.948.948,0,0,0,.705-.335,54.153,54.153,0,0,1,6.578-8.833c-.881.136-1.766.244-2.64.412a26.6,26.6,0,0,0-7.058,2.444c-.037.019-.073.041-.11.058-.659.31-1.2.182-1.45-.343a.942.942,0,0,1,.585-1.316,42.088,42.088,0,0,1,4.138-1.745,29.028,29.028,0,0,1,36.547,17.548c.336.891.653,1.485,1.732,1.748a4.177,4.177,0,0,1,2.983,4.046q.042,4.253,0,8.507a4.406,4.406,0,0,1-3.614,4.275.893.893,0,0,0-.794.7,28.74,28.74,0,0,1-8.73,12.946c-.1.082-.189.165-.288.241a.937.937,0,1,1-1.2-1.434c.859-.82,1.724-1.634,2.582-2.455.146-.139.267-.3.464-.533-.27-.02-.448-.044-.626-.044-3.274,0-6.548-.01-9.821.015a1,1,0,0,0-.741.378,46.326,46.326,0,0,1-6.454,8.5,1.815,1.815,0,0,0-.139.181l.069.192c1.554-.325,3.123-.594,4.659-.988a24.779,24.779,0,0,0,6.043-2.5c.2-.111.434-.31.611-.272.353.075.826.2.97.464s-.029.716-.126,1.069c-.034.123-.248.208-.391.289a29.151,29.151,0,0,1-42.174-16.169.846.846,0,0,0-.506-.5,4.533,4.533,0,0,1-3.775-3.617c-.009-.036-.05-.063-.076-.095Zm32.025,11.633q13.637,0,27.273,0a2.645,2.645,0,0,0,2.9-2.864q.006-3.909,0-7.819a2.624,2.624,0,0,0-2.811-2.82q-27.336-.005-54.672,0a2.631,2.631,0,0,0-2.831,2.862q-.005,3.753,0,7.506c0,2.154.977,3.135,3.125,3.135ZM521.1,177.031a1.378,1.378,0,0,0-.051-.323c-.977-2.251-1.95-4.5-2.958-6.739a.819.819,0,0,0-.634-.33c-5.254-.018-10.507-.01-15.761-.023a.717.717,0,0,0-.766.476c-.923,2.137-1.858,4.27-2.783,6.407a3.981,3.981,0,0,0-.146.532Zm.206,17.327H498a4.427,4.427,0,0,0,.14.463c.916,2.118,1.845,4.23,2.747,6.355a.87.87,0,0,0,.955.58c5.045-.019,10.09-.028,15.135.007a1.292,1.292,0,0,0,1.421-.857C519.322,198.751,520.3,196.619,521.311,194.358Zm-1.2,7.35c.177.018.259.033.34.033,3.565,0,7.13.01,10.695-.014a.933.933,0,0,0,.691-.377q1.485-2.6,2.889-5.24a14.857,14.857,0,0,0,.665-1.729,1.085,1.085,0,0,0-.2-.058c-3.9,0-7.8,0-11.7-.018-.389,0-.422.242-.515.489-.514,1.363-1.006,2.734-1.556,4.082C521.039,199.815,520.572,200.72,520.11,201.708ZM499.02,169.69a1.748,1.748,0,0,0-.292-.061c-3.606,0-7.211-.01-10.817.014a.875.875,0,0,0-.62.4c-.986,1.733-1.957,3.476-2.892,5.237a14.707,14.707,0,0,0-.661,1.717,1.4,1.4,0,0,0,.216.054c3.877,0,7.754,0,11.63.018.409,0,.46-.229.57-.5q1.16-2.895,2.339-5.781C498.64,170.419,498.831,170.077,499.02,169.69Zm21.09-.066c.069.2.093.274.124.349.925,2.227,1.869,4.446,2.762,6.685.16.4.39.4.709.4q5.533-.005,11.067,0c.182,0,.363-.016.6-.027-.073-.24-.123-.438-.193-.629a28.271,28.271,0,0,0-3.272-6.3.979.979,0,0,0-.917-.482c-3.418.017-6.836.01-10.254.01Zm-21.1,32.086c-.06-.164-.084-.243-.116-.317-.925-2.227-1.869-4.446-2.761-6.685-.161-.4-.391-.4-.709-.4q-5.534.005-11.067,0c-.182,0-.363.016-.57.026a1.55,1.55,0,0,0,.039.276,26.222,26.222,0,0,0,3.525,6.792,1.016,1.016,0,0,0,.726.32c3.459.02,6.919.014,10.379.013C498.617,201.742,498.781,201.724,499.008,201.711Zm31.044-34a27.348,27.348,0,0,0-17.921-9.163c.146.186.2.27.269.34a43.72,43.72,0,0,1,6.379,8.454.793.793,0,0,0,.815.407c3.249-.009,6.5,0,9.747-.006C529.521,167.746,529.7,167.73,530.051,167.714Zm-40.782,35.907-.071.157a27.184,27.184,0,0,0,17.789,9.038,3.5,3.5,0,0,0-.216-.295,45.919,45.919,0,0,1-6.486-8.55.95.95,0,0,0-.7-.335c-1.981-.027-3.962-.015-5.943-.015Zm20.325-44.84c-2.124,1.656-6.8,7.5-7.158,8.929h14.382A40.789,40.789,0,0,0,509.594,158.781Zm7.219,44.894h-14.5a40.716,40.716,0,0,0,7.247,8.933A40.8,40.8,0,0,0,516.812,203.675Z"
            transform="translate(0 0)" />
        <path id="Path_80" data-name="Path 80"
            d="M527.139,201.624c-.565,1.541-1.081,2.92-1.573,4.309-.179.506-.411.938-1.016.934-.573,0-.806-.419-.979-.9-.791-2.192-1.6-4.379-2.386-6.57a1.6,1.6,0,0,1-.132-.664.875.875,0,0,1,.8-.831.9.9,0,0,1,1.017.651c.479,1.287.941,2.58,1.411,3.87.077.21.164.417.29.736.554-1.518,1.072-2.915,1.572-4.32.178-.5.4-.946,1.011-.944s.828.452,1.005.951c.5,1.4,1.018,2.8,1.578,4.332l1.525-4.162c.065-.176.114-.358.194-.527a.929.929,0,1,1,1.732.676c-.6,1.707-1.227,3.406-1.844,5.107-.22.607-.456,1.207-.664,1.817a.961.961,0,0,1-1.884.016q-.732-2.025-1.473-4.047C527.293,201.964,527.249,201.874,527.139,201.624Z"
            transform="translate(-17.59 -16.696)" />
        <path id="Path_81" data-name="Path 81"
            d="M501.213,203.148c.567-1.55,1.084-2.93,1.576-4.319.179-.505.4-.941,1.011-.939s.829.46,1.006.953c.5,1.407,1.018,2.811,1.572,4.336.552-1.507,1.058-2.891,1.565-4.275a2.9,2.9,0,0,1,.209-.52.865.865,0,0,1,1.112-.439.852.852,0,0,1,.594,1.087c-.118.462-.3.908-.462,1.358-.676,1.857-1.363,3.71-2.028,5.571-.175.488-.408.894-.977.9s-.819-.383-.993-.876c-.433-1.237-.891-2.465-1.342-3.7-.07-.19-.154-.375-.279-.679-.552,1.51-1.07,2.9-1.567,4.3-.179.5-.4.947-1.008.949s-.831-.447-1.011-.946c-.768-2.134-1.549-4.263-2.324-6.393-.043-.117-.089-.234-.123-.354a.932.932,0,0,1,.555-1.223.9.9,0,0,1,1.2.592c.491,1.282.949,2.576,1.422,3.866C500.993,202.6,501.07,202.784,501.213,203.148Z"
            transform="translate(-8.15 -16.694)" />
        <path id="Path_82" data-name="Path 82"
            d="M553.111,203.16l1.493-4.073c.072-.2.133-.4.22-.584a.93.93,0,1,1,1.742.649c-.362,1.064-.763,2.113-1.146,3.17-.44,1.212-.884,2.423-1.317,3.639-.17.48-.4.9-.978.905-.606.008-.841-.425-1.02-.93-.5-1.407-1.019-2.806-1.578-4.335-.2.516-.357.916-.5,1.32q-.589,1.612-1.17,3.227a.952.952,0,0,1-1.843.011c-.841-2.307-1.686-4.612-2.513-6.923a.929.929,0,0,1,.529-1.285.919.919,0,0,1,1.223.648c.557,1.478,1.091,2.965,1.681,4.576l1.427-3.9a2.147,2.147,0,0,1,.268-.692,2,2,0,0,1,.872-.671c.445-.107.772.229.93.663.443,1.211.882,2.424,1.324,3.636C552.843,202.467,552.943,202.718,553.111,203.16Z"
            transform="translate(-27.033 -16.695)" />
    </g>
</svg>